<svg width="58" height="59" viewBox="0 0 58 59" fill="none" xmlns="http://www.w3.org/2000/svg">
<path d="M29 58.4C13.0101 58.4 0 45.3002 0 29.2C0 13.0999 13.0101 0 29 0C44.9899 0 58 13.0999 58 29.2C58 45.3002 44.9899 58.4 29 58.4ZM29 3.43465C14.8879 3.43465 3.41112 14.9906 3.41112 29.2C3.41112 43.4095 14.8879 54.9654 29 54.9654C43.1121 54.9654 54.5889 43.4095 54.5889 29.2C54.5889 14.9906 43.1121 3.43465 29 3.43465Z" fill="#989696"/>
<path d="M38.5591 36.2737C39.266 36.9855 39.266 38.1425 38.5555 38.8543C37.8486 39.566 36.6995 39.5624 35.9926 38.8506L19.4409 22.1263C18.734 21.4109 18.734 20.2575 19.4445 19.5421C20.155 18.834 21.3005 18.834 22.0074 19.5494L38.5591 36.2737Z" fill="#989696"/>
<path d="M19.4409 36.2737C18.734 36.9854 18.734 38.1425 19.4445 38.8542C20.1514 39.566 21.3005 39.5623 22.0074 38.8506L38.5555 22.1226C39.2624 21.4072 39.2624 20.2538 38.5519 19.5384C37.8414 18.834 36.6995 18.834 35.9926 19.5494L19.4409 36.2737Z" fill="#989696"/>
</svg>
