<svg width="336" height="172" viewBox="0 0 336 172" fill="none" xmlns="http://www.w3.org/2000/svg">
<path d="M203.1 134.8C201.7 133.4 192 123.2 189.1 119.6C195.6 118.5 199.8 113.9 199.8 108.7C199.8 103.9 196.1 100 190.7 98.7C188.3 98.2 185.6 98 180.3 98H172.5V137.5H180.2V120.3C180.2 120.3 190.2 132.3 191.2 133.3C192.6 134.7 193.9 135.8 195.3 136.5C196.7 137.2 197.8 137.4 201.3 137.4H206.2C205 136.6 204.3 136 203.1 134.8ZM181.3 117.1C181.1 117.1 180.6 117.1 180.3 117.1V102.6C180.6 102.6 181.3 102.6 181.7 102.6C188.3 102.6 191.6 104.9 191.6 109.5C191.5 113.8 187.5 117.1 181.3 117.1Z" fill="#121C4D"/>
<path d="M246.7 135.9V117.3H239V132.2C237.4 132.9 235.5 133.3 233.2 133.3C224.7 133.3 219.1 127.3 219.1 118.1C219.1 108.8 225 102.5 233.9 102.5C237.5 102.5 241.1 103.6 244.3 105.7V98.3C240.8 97.4 237.6 97 234.4 97C220.4 97 210.5 105.9 210.5 118.4C210.5 130.4 219.6 138.6 232.9 138.6C237.6 138.6 242.6 137.6 246.7 135.9Z" fill="#121C4D"/>
<path d="M319.7 138.6C329.5 138.6 335.6 134 335.5 126.2C335.4 120.1 332.1 117.1 324.2 113.7C319 111.4 316.1 110.5 316.1 107.1C316.1 104.2 318.6 102.3 322.4 102.3C325.9 102.3 329.7 103.3 332.7 105.7V98.7004C329.5 97.6004 325.9 96.9004 322.6 96.9004C314 96.9004 308.2 101.2 308.3 108C308.3 111.1 309.4 113.5 311.7 115.6C313.2 117 315 118 319.4 119.8C325.4 122.4 327.8 124 327.9 127.2C327.9 130.8 324.8 133.2 320.5 133.2C317 133.2 312.9 131.9 308.9 129.9V137.1C312.4 138.1 316.1 138.6 319.7 138.6Z" fill="#121C4D"/>
<path d="M278.4 96.7002C265.7 96.7002 256.7 105.2 256.7 117.4C256.7 129.9 265.5 138.8 278.1 138.8C290.5 138.8 299.3 130.1 299.3 118C299.4 105.5 290.8 96.7002 278.4 96.7002ZM278.4 133.1C270.9 133.1 265.5 126.4 265.5 117C265.5 108.4 270.8 102.3 278.2 102.3C285.4 102.3 290.7 109 290.7 118.3C290.7 126.7 285.4 133.1 278.4 133.1Z" fill="#121C4D"/>
<path d="M155.5 137.6H164L144.3 96.8003H143.9L124.2 137.6H131.8L136 128.2H151.3L155.5 137.6ZM138.2 123.4L143.7 111.1L149.2 123.4H138.2Z" fill="#121C4D"/>
<path d="M0 119.2C0 138.8 10.7 155.9 26.6 165L42.1 67.4C18.1 72.4 0 93.7 0 119.2ZM63.6 67.4L52.9 0H52.8V172C84.3 172 105.6 145.6 105.6 119.2C105.6 93.7 87.6 72.4 63.6 67.4Z" fill="#121C4D"/>
</svg>
