<?xml version="1.0" encoding="utf-8"?>
<!-- Generator: Adobe Illustrator 21.0.0, SVG Export Plug-In . SVG Version: 6.00 Build 0)  -->
<svg version="1.1" id="Layer_1" xmlns="http://www.w3.org/2000/svg" xmlns:xlink="http://www.w3.org/1999/xlink" x="0px" y="0px"
	 viewBox="0 0 400 400" style="enable-background:new 0 0 400 400;" xml:space="preserve">
<style type="text/css">
	.st0{fill:#A49E9E;}
</style>
<g>
	<path class="st0" d="M200,0C89.9,0,0,89.6,0,200c0,110.1,89.6,200,200,200s200-89.9,200-200S310.4,0,200,0z M200,368.1
		c-92.7,0-168.5-75.4-168.5-168.5c0-92.7,75.4-168.5,168.5-168.5s168.5,75.7,168.5,168.5S293.1,368.1,200,368.1z"/>
	<path class="st0" d="M133.1,187.7c8.8,0,15.8-6.9,15.8-15.8v-31.5c0-8.8-6.9-15.8-15.8-15.8c-8.8,0-15.8,6.9-15.8,15.8v31.5
		C117.4,180.8,124.3,187.7,133.1,187.7z"/>
	<path class="st0" d="M264.4,187.7c8.8,0,15.8-6.9,15.8-15.8v-31.5c0-8.8-6.9-15.8-15.8-15.8c-8.8,0-15.8,6.9-15.8,15.8v31.5
		C248.6,180.8,255.5,187.7,264.4,187.7z"/>
	<path class="st0" d="M312.6,244.2c-7.6-4.4-17.4-1.6-21.5,6c-18.3,33.1-53.3,53.6-91.2,53.6s-72.9-20.5-91.2-53.6
		c-4.1-7.6-13.9-10.1-21.5-6s-10.1,13.9-6,21.5c24,43.2,69.4,70,118.6,70s95-26.8,118.6-70C323,258,320.2,248.3,312.6,244.2z"/>
</g>
</svg>
