<?xml version="1.0" encoding="utf-8"?>
<!-- Generator: Adobe Illustrator 21.0.0, SVG Export Plug-In . SVG Version: 6.00 Build 0)  -->
<svg version="1.1" id="Layer_1" xmlns="http://www.w3.org/2000/svg" xmlns:xlink="http://www.w3.org/1999/xlink" x="0px" y="0px"
	 viewBox="0 0 400 400" style="enable-background:new 0 0 400 400;" xml:space="preserve">
<style type="text/css">
	.st0{fill:#EBB112;}
</style>
<g>
	<path class="st0" d="M200,7.4C94,7.4,7.4,94,7.4,200S93.7,392.6,200,392.6S392.6,306,392.6,200S306.3,7.4,200,7.4z"/>
	<g>
		<path d="M200,0C89.9,0,0,89.6,0,200c0,110.1,89.6,200,200,200s200-89.9,200-200S310.4,0,200,0z M200,368.1
			c-92.7,0-168.5-75.4-168.5-168.5c0-92.7,75.4-168.5,168.5-168.5s168.5,75.7,168.5,168.5S293.1,368.1,200,368.1z"/>
		<path d="M133.1,187.7c8.8,0,15.8-6.9,15.8-15.8v-31.5c0-8.8-6.9-15.8-15.8-15.8c-8.8,0-15.8,6.9-15.8,15.8v31.5
			C117.4,180.8,124.3,187.7,133.1,187.7z"/>
		<path d="M264.4,187.7c8.8,0,15.8-6.9,15.8-15.8v-31.5c0-8.8-6.9-15.8-15.8-15.8c-8.8,0-15.8,6.9-15.8,15.8v31.5
			C248.6,180.8,255.5,187.7,264.4,187.7z"/>
		<path d="M312.6,244.2c-3.1-1.8-6.5-2.4-9.8-2H95.4v0c-2.7-0.1-5.5,0.6-8.1,1.9c-7.6,4.1-10.1,13.9-6,21.5
			c24,43.2,69.4,70,118.6,70s95-26.8,118.6-70C323,258,320.2,248.3,312.6,244.2z"/>
	</g>
</g>
</svg>
