<?xml version="1.0" encoding="utf-8"?>
<!-- Generator: Adobe Illustrator 21.0.0, SVG Export Plug-In . SVG Version: 6.00 Build 0)  -->
<svg version="1.1" id="Layer_1" xmlns="http://www.w3.org/2000/svg" xmlns:xlink="http://www.w3.org/1999/xlink" x="0px" y="0px"
	 viewBox="0 0 400 400" style="enable-background:new 0 0 400 400;" xml:space="preserve">
<style type="text/css">
	.st0{fill:#A49E9E;}
</style>
<g>
	<path class="st0" d="M200,0C89.9,0,0,89.9,0,200s89.6,200,200,200s200-89.9,200-200S310.4,0,200,0z M200,368.1
		c-92.7,0-168.5-75.4-168.5-168.5c0-92.7,75.4-168.5,168.5-168.5s168.5,75.7,168.5,168.5S292.7,368.1,200,368.1z"/>
	<path class="st0" d="M200.3,232.8c-37.5,0-71.9,20.2-90.2,53c-4.4,7.6-1.6,17.4,6,21.5c7.6,4.4,17.4,1.6,21.5-6
		c12.6-22.7,36.6-36.9,62.5-36.9s49.8,14.2,62.5,36.9c2.8,5.4,8.2,8.2,13.9,8.2v0c2.8,0,5.4-0.6,8.2-2.2c7.6-4.1,10.1-13.9,6-21.5
		C272.2,253.3,237.9,232.8,200.3,232.8z"/>
	<path class="st0" d="M264.4,188c8.8,0,15.8-7.3,15.8-15.8v-31.5c0-8.8-6.9-15.8-15.8-15.8s-15.8,6.9-15.8,15.8v31.5
		C248.6,181.1,255.5,188,264.4,188z"/>
	<path class="st0" d="M133.1,188c8.8,0,15.8-7.3,15.8-15.8v-31.5c0-8.8-6.9-15.8-15.8-15.8s-15.8,6.9-15.8,15.8v31.5
		C117.4,181.1,124.3,188,133.1,188z"/>
</g>
</svg>
