<?xml version="1.0" encoding="utf-8"?>
<!-- Generator: Adobe Illustrator 21.0.0, SVG Export Plug-In . SVG Version: 6.00 Build 0)  -->
<svg version="1.1" id="Layer_1" xmlns="http://www.w3.org/2000/svg" xmlns:xlink="http://www.w3.org/1999/xlink" x="0px" y="0px"
	 viewBox="0 0 400 400" style="enable-background:new 0 0 400 400;" xml:space="preserve">
<style type="text/css">
	.st0{fill:#A49E9E;}
</style>
<g>
	<path class="st0" d="M200,0C89.9,0,0,89.9,0,200s89.6,200,200,200c110.4,0,200-89.9,200-200S310.4,0,200,0z M200,368.1
		c-92.7,0-168.5-75.4-168.5-168.5c0-92.7,75.4-168.5,168.5-168.5s168.5,75.7,168.5,168.5S292.7,368.1,200,368.1z"/>
	<path class="st0" d="M132.9,188c8.8,0,15.8-7.3,15.8-15.8v-31.5c0-8.8-6.9-15.8-15.8-15.8c-8.8,0-15.8,6.9-15.8,15.8v31.5
		C117.1,181.1,124.1,188,132.9,188z"/>
	<path class="st0" d="M264.1,188c8.8,0,15.8-7.3,15.8-15.8v-31.5c0-8.8-6.9-15.8-15.8-15.8c-8.8,0-15.8,6.9-15.8,15.8v31.5
		C248.4,181.1,255.3,188,264.1,188z"/>
	<path class="st0" d="M279.9,253H120.1c-8.8,0-15.8,6.9-15.8,15.8s6.9,15.8,15.8,15.8h159.7c8.8,0,15.8-6.9,15.8-15.8
		S288.4,253,279.9,253z"/>
</g>
</svg>
