<svg width="58" height="58" viewBox="0 0 58 58" fill="none" xmlns="http://www.w3.org/2000/svg">
<path d="M29 58C23.2643 58 17.6575 56.2992 12.8885 53.1126C8.11945 49.9261 4.40245 45.3969 2.20751 40.0978C0.0125653 34.7988 -0.561731 28.9678 0.55724 23.3424C1.67621 17.7169 4.43819 12.5496 8.49391 8.49391C12.5496 4.43819 17.7169 1.67621 23.3424 0.55724C28.9678 -0.561731 34.7988 0.0125653 40.0978 2.20751C45.3969 4.40245 49.9261 8.11945 53.1126 12.8885C56.2992 17.6575 58 23.2643 58 29C57.992 36.6888 54.9341 44.0604 49.4973 49.4973C44.0604 54.9341 36.6888 57.992 29 58ZM29 3.62501C23.9813 3.62501 19.0753 5.11323 14.9024 7.90147C10.7295 10.6897 7.47714 14.6527 5.55657 19.2894C3.636 23.9261 3.13349 29.0282 4.11259 33.9504C5.09169 38.8727 7.50842 43.3941 11.0572 46.9428C14.6059 50.4916 19.1273 52.9083 24.0496 53.8874C28.9719 54.8665 34.0739 54.364 38.7106 52.4434C43.3473 50.5229 47.3103 47.2705 50.0985 43.0976C52.8868 38.9247 54.375 34.0187 54.375 29C54.375 22.2701 51.7016 15.8159 46.9428 11.0572C42.1841 6.29844 35.7299 3.62501 29 3.62501V3.62501Z" fill="#B1CF22"/>
<path d="M25.4112 37.3375C24.9307 37.3371 24.47 37.1459 24.1304 36.8059L18.1552 30.8125C17.835 30.4689 17.6607 30.0145 17.669 29.5449C17.6773 29.0754 17.8675 28.6274 18.1996 28.2953C18.5317 27.9632 18.9797 27.773 19.4493 27.7647C19.9188 27.7564 20.3733 27.9307 20.7169 28.2509L25.4112 32.9452L37.2831 21.0975C37.6228 20.7538 38.0851 20.5592 38.5684 20.5563C39.0516 20.5535 39.5162 20.7427 39.8599 21.0824C40.2036 21.4221 40.3983 21.8845 40.4011 22.3677C40.4039 22.8509 40.2147 23.3155 39.875 23.6592L26.6981 36.8059C26.5293 36.9749 26.3286 37.109 26.1078 37.2002C25.8869 37.2914 25.6502 37.3381 25.4112 37.3375Z" fill="#B1CF22"/>
</svg>
