<svg width="17" height="16" viewBox="0 0 17 16" fill="none" xmlns="http://www.w3.org/2000/svg">
<path d="M13.0705 2.95311C13.4096 2.95311 13.6808 2.68184 13.6808 2.34275V0.884656C13.6808 0.545565 13.4096 0.274292 13.0705 0.274292C12.7314 0.274292 12.4601 0.545565 12.4601 0.884656V2.34275C12.4601 2.68184 12.7314 2.95311 13.0705 2.95311Z" fill="#071D49"/>
<path d="M8.42492 2.95311C8.76401 2.95311 9.03529 2.68184 9.03529 2.34275V0.884656C9.03529 0.545565 8.76401 0.274292 8.42492 0.274292C8.08583 0.274292 7.81456 0.545565 7.81456 0.884656V2.34275C7.81456 2.68184 8.08583 2.95311 8.42492 2.95311Z" fill="#071D49"/>
<path d="M3.74547 2.95311C4.08456 2.95311 4.35583 2.68184 4.35583 2.34275V0.884656C4.35583 0.545565 4.08456 0.274292 3.74547 0.274292C3.40637 0.274292 3.1351 0.545565 3.1351 0.884656V2.34275C3.1351 2.68184 3.40637 2.95311 3.74547 2.95311Z" fill="#071D49"/>
<path d="M4.38974 6.71704H3.37247V7.73431H4.38974V6.71704Z" fill="#071D49"/>
<path d="M8.93356 6.71704H7.91629V7.73431H8.93356V6.71704Z" fill="#071D49"/>
<path d="M13.4774 6.71704H12.4601V7.73431H13.4774V6.71704Z" fill="#071D49"/>
<path d="M4.38974 11.193H3.37247V12.2103H4.38974V11.193Z" fill="#071D49"/>
<path d="M8.93356 11.193H7.91629V12.2103H8.93356V11.193Z" fill="#071D49"/>
<path d="M16.5631 3.12265C16.5631 2.5801 16.1223 2.13928 15.5797 2.13928H14.732V2.34274C14.732 3.25828 13.986 4.00428 13.0705 4.00428C12.1549 4.00428 11.4089 3.25828 11.4089 2.34274V2.13928H10.0865V2.34274C10.0865 3.25828 9.34047 4.00428 8.42493 4.00428C7.50938 4.00428 6.76338 3.25828 6.76338 2.34274V2.13928H5.44093V2.34274C5.44093 3.25828 4.69493 4.00428 3.77938 4.00428C2.86384 4.00428 2.11784 3.25828 2.11784 2.34274V2.13928H1.2362C0.693656 2.13928 0.286747 2.5801 0.252838 3.12265V14.3126C0.252838 14.8552 0.693656 15.296 1.2362 15.296H15.6137C16.1562 15.296 16.597 14.8552 16.597 14.3126L16.5631 3.12265ZM5.44093 12.7528C5.44093 13.058 5.20356 13.2954 4.89838 13.2954H2.82993C2.52475 13.2954 2.28738 13.058 2.28738 12.7528V10.6505C2.28738 10.3453 2.52475 10.1079 2.82993 10.1079H4.89838C5.20356 10.1079 5.44093 10.3453 5.44093 10.6505V12.7528ZM5.44093 8.31074C5.44093 8.61592 5.20356 8.85328 4.89838 8.85328H2.82993C2.52475 8.85328 2.28738 8.61592 2.28738 8.31074V6.20837C2.28738 5.90319 2.52475 5.66583 2.82993 5.66583H4.89838C5.20356 5.66583 5.44093 5.86928 5.44093 6.20837V8.31074ZM10.0187 12.7528C10.0187 13.058 9.78129 13.2954 9.47611 13.2954H7.40765C7.10247 13.2954 6.86511 13.058 6.86511 12.7528V10.6505C6.86511 10.3453 7.10247 10.1079 7.40765 10.1079H9.4422C9.74738 10.1079 10.0187 10.3453 10.0187 10.6505V12.7528ZM10.0187 8.31074C10.0187 8.61592 9.78129 8.85328 9.47611 8.85328H7.40765C7.10247 8.85328 6.86511 8.61592 6.86511 8.31074V6.20837C6.86511 5.90319 7.10247 5.66583 7.40765 5.66583H9.4422C9.74738 5.66583 10.0187 5.86928 10.0187 6.20837V8.31074ZM14.5625 12.7528C14.5625 13.058 14.3251 13.2954 14.0199 13.2954H11.9515C11.6463 13.2954 11.4089 13.058 11.4089 12.7528V10.6505C11.4089 10.3453 11.6463 10.1079 11.9515 10.1079H14.0199C14.3251 10.1079 14.5625 10.3453 14.5625 10.6505V12.7528ZM14.5625 8.27683C14.5625 8.58201 14.3251 8.81937 14.0199 8.81937H11.9515C11.6463 8.81937 11.4089 8.58201 11.4089 8.27683V6.17446C11.4089 5.86928 11.6463 5.63192 11.9515 5.63192H14.0199C14.3251 5.63192 14.5625 5.86928 14.5625 6.17446V8.27683Z" fill="#071D49"/>
<path d="M13.4774 11.193H12.4601V12.2103H13.4774V11.193Z" fill="#071D49"/>
</svg>
