<svg width="17" height="16" viewBox="0 0 17 16" fill="none" xmlns="http://www.w3.org/2000/svg">
<path fill-rule="evenodd" clip-rule="evenodd" d="M15.6099 2.06688C15.8492 2.17745 16.061 2.33885 16.2302 2.5396C16.4055 2.74203 16.5338 2.98007 16.6061 3.23693C16.6784 3.4938 16.6929 3.76323 16.6486 4.02626L15.7379 9.50984C15.6701 9.93536 15.4513 10.323 15.1209 10.6033C14.7904 10.8836 14.37 11.0381 13.9349 11.0391H5.39967L5.41813 11.1366C5.44009 11.2793 5.51304 11.4094 5.62372 11.5034C5.73439 11.5973 5.87543 11.6488 6.0212 11.6484H14.8271C14.9904 11.6484 15.1469 11.7126 15.2623 11.8269C15.3777 11.9411 15.4425 12.0961 15.4425 12.2577C15.4425 12.4193 15.3777 12.5743 15.2623 12.6885C15.1469 12.8028 14.9904 12.867 14.8271 12.867H14.7164C14.8176 13.1431 14.8502 13.4393 14.8113 13.7305C14.7724 14.0217 14.6632 14.2993 14.4929 14.5398C14.3226 14.7804 14.0963 14.9768 13.8332 15.1123C13.57 15.2479 13.2777 15.3187 12.981 15.3187C12.6844 15.3187 12.3921 15.2479 12.1289 15.1123C11.8657 14.9768 11.6394 14.7804 11.4692 14.5398C11.2989 14.2993 11.1897 14.0217 11.1508 13.7305C11.1119 13.4393 11.1445 13.1431 11.2457 12.867H9.17805C9.27023 13.1184 9.30557 13.3868 9.28156 13.6532C9.25756 13.9196 9.1748 14.1776 9.03912 14.4088C8.90345 14.6401 8.71816 14.8391 8.49634 14.9918C8.27452 15.1444 8.02157 15.247 7.75533 15.2923C7.48909 15.3376 7.21606 15.3245 6.9555 15.2539C6.69494 15.1833 6.4532 15.057 6.24733 14.8838C6.04147 14.7106 5.8765 14.4948 5.76406 14.2516C5.65162 14.0084 5.59445 13.7437 5.59659 13.4763C5.59881 13.2595 5.6405 13.0448 5.71967 12.8426C5.33984 12.7806 4.98932 12.6019 4.71766 12.3319C4.44601 12.0618 4.26696 11.714 4.20585 11.3377L4.06432 10.5334V10.5273L2.73512 2.60662L2.61205 1.89985H0.673628C0.510422 1.89985 0.3539 1.83565 0.238496 1.72139C0.123091 1.60713 0.0582581 1.45215 0.0582581 1.29056C0.0582581 1.12897 0.123091 0.973994 0.238496 0.85973C0.3539 0.745467 0.510422 0.681274 0.673628 0.681274H3.13511C3.14742 0.681274 3.15819 0.684321 3.16896 0.687367C3.17972 0.690414 3.19049 0.69346 3.2028 0.69346C3.24446 0.698048 3.28564 0.706203 3.32587 0.717832C3.36239 0.730362 3.39746 0.746702 3.43049 0.766574C3.46693 0.783185 3.50023 0.805853 3.52895 0.833596C3.55859 0.856873 3.58544 0.88345 3.60895 0.912803C3.633 0.942973 3.65363 0.975663 3.67048 1.01029C3.69376 1.04502 3.70851 1.08467 3.71356 1.12605C3.72746 1.14657 3.73785 1.16921 3.74433 1.19308L3.86125 1.89985H14.8456C15.1097 1.89928 15.3706 1.95631 15.6099 2.06688ZM13.3229 12.9697C13.2217 12.9027 13.1027 12.867 12.981 12.867C12.818 12.8675 12.6617 12.9318 12.5464 13.046C12.4311 13.1602 12.3662 13.3148 12.3657 13.4763C12.3657 13.5968 12.4018 13.7146 12.4694 13.8148C12.537 13.915 12.6331 13.9931 12.7455 14.0392C12.858 14.0853 12.9817 14.0974 13.1011 14.0739C13.2205 14.0504 13.3301 13.9923 13.4162 13.9071C13.5022 13.8219 13.5608 13.7133 13.5846 13.5952C13.6083 13.477 13.5961 13.3545 13.5496 13.2431C13.503 13.1318 13.4241 13.0366 13.3229 12.9697ZM7.78458 12.9697C7.68339 12.9027 7.56441 12.867 7.4427 12.867C7.27965 12.8675 7.12341 12.9318 7.00811 13.046C6.89281 13.1602 6.82782 13.3148 6.82733 13.4763C6.82733 13.5968 6.86342 13.7146 6.93104 13.8148C6.99866 13.915 7.09477 13.9931 7.20721 14.0392C7.31965 14.0853 7.44339 14.0974 7.56276 14.0739C7.68213 14.0504 7.79177 13.9923 7.87784 13.9071C7.9639 13.8219 8.02251 13.7133 8.04625 13.5952C8.06999 13.477 8.05781 13.3545 8.01123 13.2431C7.96466 13.1318 7.88578 13.0366 7.78458 12.9697Z" fill="#071D49"/>
</svg>
