<svg width="16" height="20" viewBox="0 0 16 20" fill="none" xmlns="http://www.w3.org/2000/svg">
<path fill-rule="evenodd" clip-rule="evenodd" d="M2.63602 0.881906C2.53184 0.893371 2.4356 0.943033 2.36589 1.0213C2.29618 1.09958 2.25795 1.2009 2.25858 1.30571V2.46456H1.39772C0.816982 2.46456 0.371328 2.9658 0.371328 3.53732V14C0.371311 14.0022 0.371311 14.0044 0.371328 14.0066C0.37126 14.011 0.37126 14.0154 0.371328 14.0198C0.375695 14.1305 0.423235 14.235 0.503767 14.3111L4.50344 19.3173C4.54151 19.3833 4.59665 19.4378 4.66307 19.4751C4.72949 19.5124 4.80473 19.5311 4.88088 19.5292H14.2973C14.88 19.5292 15.3237 19.0271 15.3237 18.4565V3.53715C15.3237 2.96563 14.8781 2.46439 14.2973 2.46439H13.7014V1.30554C13.7014 1.19314 13.6567 1.08535 13.5772 1.00587C13.4977 0.926395 13.39 0.881738 13.2776 0.881738H12.3041C12.1917 0.881738 12.0839 0.926395 12.0044 1.00587C11.925 1.08535 11.8803 1.19314 11.8803 1.30554V2.46439H10.4897V1.30554C10.4897 1.19314 10.4451 1.08535 10.3656 1.00587C10.2861 0.926395 10.1783 0.881738 10.0659 0.881738H9.09246C8.98006 0.881738 8.87226 0.926395 8.79279 1.00587C8.71331 1.08535 8.66865 1.19314 8.66865 1.30554V2.46439H7.28467V1.30554C7.28467 1.19314 7.24002 1.08535 7.16054 1.00587C7.08106 0.926395 6.97327 0.881738 6.86087 0.881738H5.88742C5.77502 0.881738 5.66723 0.926395 5.58775 1.00587C5.50827 1.08535 5.46362 1.19314 5.46362 1.30554V2.46439H4.07964V1.30554C4.07964 1.19314 4.03498 1.08535 3.95551 1.00587C3.87603 0.926395 3.76823 0.881738 3.65583 0.881738H2.68239C2.66694 0.880892 2.65147 0.880892 2.63602 0.881738V0.881906ZM6.67545 5.21268C6.69089 5.21183 6.70636 5.21183 6.72179 5.21268C6.79949 5.21135 6.87606 5.23139 6.94313 5.27061C7.0102 5.30983 7.06519 5.36672 7.1021 5.43507C7.13901 5.50342 7.15641 5.58059 7.1524 5.65815C7.1484 5.73571 7.12313 5.81069 7.07938 5.87488L5.02657 8.96072C4.99231 9.01178 4.94735 9.05477 4.8948 9.08672C4.84226 9.11867 4.78338 9.13882 4.72227 9.14575C4.66115 9.15268 4.59926 9.14622 4.54088 9.12685C4.48251 9.10748 4.42905 9.07565 4.38422 9.03356L2.96714 7.71579C2.88455 7.63943 2.8357 7.53342 2.83132 7.42106C2.82694 7.3087 2.8674 7.1992 2.94379 7.11665C3.02019 7.03411 3.12627 6.98528 3.23868 6.9809C3.3511 6.97653 3.46066 7.01697 3.54324 7.09332L4.59613 8.07337L6.37745 5.40472C6.41031 5.3531 6.45396 5.3092 6.5054 5.27605C6.55684 5.2429 6.61485 5.22129 6.67545 5.21268V5.21268ZM8.11902 7.39131C8.13226 7.39069 8.14553 7.39069 8.15877 7.39131H12.1849C12.2407 7.39119 12.2959 7.40205 12.3474 7.42329C12.3989 7.44454 12.4458 7.47573 12.4852 7.5151C12.5247 7.55446 12.556 7.60123 12.5773 7.65271C12.5987 7.70419 12.6097 7.75938 12.6097 7.81512C12.6097 7.87085 12.5987 7.92603 12.5773 7.97751C12.556 8.02899 12.5247 8.07576 12.4852 8.11512C12.4458 8.15449 12.3989 8.18568 12.3474 8.20693C12.2959 8.22817 12.2407 8.23905 12.1849 8.23892H8.15877C8.10312 8.24153 8.04749 8.23316 7.99508 8.21427C7.94266 8.19538 7.89447 8.16635 7.85328 8.12885C7.81208 8.09134 7.77867 8.04608 7.75496 7.99566C7.73125 7.94524 7.7177 7.89065 7.71509 7.835C7.71248 7.77934 7.72086 7.72371 7.73974 7.6713C7.75863 7.61888 7.78766 7.57069 7.82517 7.52949C7.86267 7.48829 7.90793 7.45488 7.95835 7.43117C8.00877 7.40746 8.06336 7.39392 8.11902 7.39131V7.39131ZM3.46378 10.9672C3.47922 10.9663 3.49469 10.9663 3.51012 10.9672H12.1849C12.2407 10.9671 12.2959 10.9779 12.3474 10.9992C12.3989 11.0204 12.4458 11.0516 12.4852 11.091C12.5247 11.1303 12.556 11.1771 12.5773 11.2286C12.5987 11.2801 12.6097 11.3352 12.6097 11.391C12.6097 11.4467 12.5987 11.5019 12.5773 11.5534C12.556 11.6049 12.5247 11.6516 12.4852 11.691C12.4458 11.7304 12.3989 11.7616 12.3474 11.7828C12.2959 11.804 12.2407 11.8149 12.1849 11.8148H3.51012C3.39772 11.8209 3.28749 11.7822 3.20366 11.7071C3.11984 11.6319 3.06929 11.5266 3.06315 11.4142C3.057 11.3018 3.09576 11.1915 3.17089 11.1077C3.24602 11.0239 3.35138 10.9733 3.46378 10.9672V10.9672ZM1.67585 14.4238H4.45708V17.9004L1.67585 14.4238ZM8.11902 14.543C8.13226 14.5424 8.14553 14.5424 8.15877 14.543H12.1849C12.2407 14.5429 12.2959 14.5538 12.3474 14.575C12.3989 14.5963 12.4458 14.6275 12.4852 14.6668C12.5247 14.7062 12.556 14.753 12.5773 14.8045C12.5987 14.8559 12.6097 14.9111 12.6097 14.9669C12.6097 15.0226 12.5987 15.0778 12.5773 15.1292C12.556 15.1807 12.5247 15.2275 12.4852 15.2669C12.4458 15.3062 12.3989 15.3374 12.3474 15.3587C12.2959 15.3799 12.2407 15.3908 12.1849 15.3907H8.15877C8.04637 15.3959 7.93648 15.3563 7.85328 15.2806C7.77007 15.2048 7.72036 15.0991 7.71509 14.9867C7.70982 14.8743 7.74941 14.7644 7.82517 14.6812C7.90092 14.598 8.00662 14.5483 8.11902 14.543V14.543Z" fill="white"/>
</svg>
