<svg width="31" height="31" viewBox="0 0 31 31" fill="none" xmlns="http://www.w3.org/2000/svg">
<g filter="url(#filter0_d_2822_36820)">
<path d="M13.5007 26.0015C19.8524 26.0015 25.0015 20.8524 25.0015 14.5007C25.0015 8.14906 19.8524 3 13.5007 3C7.14906 3 2 8.14906 2 14.5007C2 20.8524 7.14906 26.0015 13.5007 26.0015Z" fill="#C4D600"/>
</g>
<path d="M10.9471 21.3575C11.0062 21.4196 11.0773 21.469 11.1561 21.5027C11.2349 21.5364 11.3197 21.5538 11.4054 21.5538C11.4911 21.5538 11.5759 21.5364 11.6547 21.5027C11.7335 21.469 11.8046 21.4196 11.8637 21.3575L21.8455 11.3758C21.9074 11.3165 21.9566 11.2454 21.9902 11.1666C22.0238 11.0878 22.0411 11.0031 22.0411 10.9174C22.0411 10.8318 22.0238 10.747 21.9902 10.6683C21.9566 10.5895 21.9074 10.5183 21.8455 10.4591L19.0305 7.64405C18.9713 7.58202 18.9002 7.53263 18.8214 7.49889C18.7427 7.46515 18.6578 7.44775 18.5721 7.44775C18.4864 7.44775 18.4016 7.46515 18.3228 7.49889C18.244 7.53263 18.1729 7.58202 18.1138 7.64405L11.4047 14.3473L8.91734 11.86C8.85832 11.798 8.78733 11.7486 8.70867 11.7149C8.63001 11.6812 8.5453 11.6638 8.45971 11.6638C8.37413 11.6638 8.28944 11.6812 8.21077 11.7149C8.13211 11.7486 8.06112 11.798 8.00211 11.86L5.15461 14.6425C5.09239 14.7015 5.04284 14.7726 5.00898 14.8514C4.97512 14.9302 4.95764 15.0151 4.95764 15.1008C4.95764 15.1866 4.97512 15.2715 5.00898 15.3503C5.04284 15.4291 5.09239 15.5002 5.15461 15.5592L10.9471 21.3575ZM8.42724 13.2387L10.9146 15.726C10.9737 15.788 11.0448 15.8374 11.1236 15.8712C11.2024 15.9049 11.2872 15.9223 11.3729 15.9223C11.4586 15.9223 11.5434 15.9049 11.6222 15.8712C11.701 15.8374 11.7721 15.788 11.8313 15.726L18.5404 9.01687L20.4373 10.9137L11.4047 19.9567L6.56138 15.1119L8.42724 13.2387Z" fill="#071D49" stroke="#071D49" stroke-width="0.2"/>
<defs>
<filter id="filter0_d_2822_36820" x="0.31" y="0.46" width="29.7815" height="29.7815" filterUnits="userSpaceOnUse" color-interpolation-filters="sRGB">
<feFlood flood-opacity="0" result="BackgroundImageFix"/>
<feColorMatrix in="SourceAlpha" type="matrix" values="0 0 0 0 0 0 0 0 0 0 0 0 0 0 0 0 0 0 127 0" result="hardAlpha"/>
<feOffset dx="1.7" dy="0.85"/>
<feGaussianBlur stdDeviation="1.695"/>
<feComposite in2="hardAlpha" operator="out"/>
<feColorMatrix type="matrix" values="0 0 0 0 0 0 0 0 0 0 0 0 0 0 0 0 0 0 0.25 0"/>
<feBlend mode="normal" in2="BackgroundImageFix" result="effect1_dropShadow_2822_36820"/>
<feBlend mode="normal" in="SourceGraphic" in2="effect1_dropShadow_2822_36820" result="shape"/>
</filter>
</defs>
</svg>
