<svg width="31" height="31" viewBox="0 0 31 31" fill="none" xmlns="http://www.w3.org/2000/svg">
<g filter="url(#filter0_d_2820_36816)">
<path d="M13.5007 26.0015C19.8524 26.0015 25.0015 20.8524 25.0015 14.5007C25.0015 8.14906 19.8524 3 13.5007 3C7.14906 3 2 8.14906 2 14.5007C2 20.8524 7.14906 26.0015 13.5007 26.0015Z" fill="#071D49"/>
</g>
<path d="M11.4369 19.537C10.333 19.2988 9.31369 18.7676 8.48616 17.9991C7.65863 17.2306 7.05349 16.2534 6.73439 15.1701C6.4153 14.0868 6.39403 12.9375 6.67285 11.8432C6.95166 10.7488 7.52025 9.74982 8.31879 8.95128C9.11733 8.15273 10.1163 7.58415 11.2107 7.30533C12.305 7.02652 13.4543 7.04778 14.5376 7.36688C15.6209 7.68597 16.5982 8.29112 17.3666 9.11864C18.1351 9.94617 18.6663 10.9655 18.9045 12.0694C18.9246 12.1644 18.9634 12.2544 19.0184 12.3344C19.0734 12.4143 19.1437 12.4826 19.2252 12.5354C19.3067 12.5881 19.3978 12.6242 19.4933 12.6417C19.5888 12.6592 19.6867 12.6576 19.7816 12.6372C19.8767 12.6171 19.9669 12.5785 20.047 12.5236C20.1271 12.4686 20.1956 12.3983 20.2484 12.3168C20.3013 12.2353 20.3376 12.1442 20.3551 12.0486C20.3727 11.9531 20.3712 11.855 20.3507 11.76C20.0573 10.3957 19.4015 9.13567 18.4523 8.11261C17.5032 7.08955 16.2958 6.34126 14.9573 5.94649C13.6187 5.55171 12.1985 5.52505 10.8461 5.86932C9.49371 6.21358 8.2591 6.91604 7.27223 7.90276C6.28536 8.88948 5.58272 10.124 5.23826 11.4763C4.89379 12.8287 4.92024 14.2489 5.31481 15.5875C5.70938 16.9261 6.45751 18.1336 7.48042 19.0829C8.50334 20.0322 9.76324 20.6882 11.1275 20.9818C11.2229 21.0036 11.3216 21.0062 11.418 20.9895C11.5143 20.9728 11.6065 20.9372 11.6889 20.8846C11.7714 20.8321 11.8427 20.7637 11.8985 20.6834C11.9544 20.6031 11.9937 20.5125 12.0143 20.4169C12.0349 20.3211 12.0363 20.2223 12.0183 20.126C12.0003 20.0297 11.9634 19.938 11.9097 19.8561C11.856 19.7743 11.7865 19.7039 11.7054 19.6491C11.6242 19.5943 11.533 19.5562 11.4369 19.537V19.537Z" fill="white"/>
<path d="M12.0211 8.95728V12.6537H9.80408C9.60808 12.6537 9.42011 12.7316 9.28152 12.8702C9.14293 13.0088 9.06506 13.1968 9.06506 13.3928C9.06506 13.5888 9.14293 13.7767 9.28152 13.9153C9.42011 14.0539 9.60808 14.1318 9.80408 14.1318H12.7602C12.8573 14.132 12.9534 14.113 13.0432 14.0759C13.1329 14.0388 13.2145 13.9844 13.2831 13.9157C13.3518 13.8471 13.4062 13.7655 13.4433 13.6758C13.4804 13.586 13.4994 13.4899 13.4992 13.3928V8.95728C13.4992 8.76128 13.4213 8.5733 13.2827 8.43471C13.1441 8.29612 12.9562 8.21826 12.7602 8.21826C12.5642 8.21826 12.3762 8.29612 12.2376 8.43471C12.099 8.5733 12.0211 8.76128 12.0211 8.95728V8.95728Z" fill="white"/>
<path d="M17.1957 13.0239C16.0838 13.0236 15.0062 13.4088 14.1465 14.114C13.2869 14.8191 12.6983 15.8005 12.4811 16.891C12.2639 17.9815 12.4316 19.1135 12.9556 20.0942C13.4795 21.0749 14.3273 21.8436 15.3545 22.2692C16.3817 22.6949 17.5247 22.7512 18.5887 22.4285C19.6528 22.1059 20.572 21.4243 21.1898 20.4998C21.8076 19.5754 22.0858 18.4653 21.9768 17.3588C21.8679 16.2523 21.3786 15.2177 20.5924 14.4315C19.6914 13.5307 18.4697 13.0245 17.1957 13.0239V13.0239ZM17.1957 21.1545C16.4253 21.1559 15.6782 20.89 15.0819 20.4021C14.4856 19.9143 14.077 19.2348 13.9256 18.4793C13.7743 17.7239 13.8897 16.9394 14.2521 16.2595C14.6145 15.5796 15.2015 15.0465 15.913 14.751C16.6245 14.4555 17.4165 14.416 18.1539 14.6391C18.8913 14.8622 19.5285 15.3342 19.9569 15.9746C20.3852 16.615 20.5782 17.3841 20.5029 18.1508C20.4276 18.9176 20.0887 19.6345 19.544 20.1793C18.921 20.8021 18.0766 21.1528 17.1957 21.1545V21.1545Z" fill="white"/>
<path d="M16.6072 17.8283C16.6072 17.9844 16.6692 18.134 16.7795 18.2444C16.8899 18.3547 17.0396 18.4167 17.1956 18.4167C17.3517 18.4167 17.5014 18.3547 17.6117 18.2444C17.7221 18.134 17.7841 17.9844 17.7841 17.8283V15.9801C17.7841 15.824 17.7221 15.6743 17.6117 15.564C17.5014 15.4536 17.3517 15.3916 17.1956 15.3916C17.0396 15.3916 16.8899 15.4536 16.7795 15.564C16.6692 15.6743 16.6072 15.824 16.6072 15.9801V17.8283Z" fill="white"/>
<path d="M17.1956 20.1132C17.5206 20.1132 17.7841 19.8497 17.7841 19.5247C17.7841 19.1997 17.5206 18.9363 17.1956 18.9363C16.8706 18.9363 16.6072 19.1997 16.6072 19.5247C16.6072 19.8497 16.8706 20.1132 17.1956 20.1132Z" fill="white"/>
<defs>
<filter id="filter0_d_2820_36816" x="0.31" y="0.46" width="29.7815" height="29.7815" filterUnits="userSpaceOnUse" color-interpolation-filters="sRGB">
<feFlood flood-opacity="0" result="BackgroundImageFix"/>
<feColorMatrix in="SourceAlpha" type="matrix" values="0 0 0 0 0 0 0 0 0 0 0 0 0 0 0 0 0 0 127 0" result="hardAlpha"/>
<feOffset dx="1.7" dy="0.85"/>
<feGaussianBlur stdDeviation="1.695"/>
<feComposite in2="hardAlpha" operator="out"/>
<feColorMatrix type="matrix" values="0 0 0 0 0 0 0 0 0 0 0 0 0 0 0 0 0 0 0.25 0"/>
<feBlend mode="normal" in2="BackgroundImageFix" result="effect1_dropShadow_2820_36816"/>
<feBlend mode="normal" in="SourceGraphic" in2="effect1_dropShadow_2820_36816" result="shape"/>
</filter>
</defs>
</svg>
