<svg width="19" height="19" viewBox="0 0 19 19" fill="none" xmlns="http://www.w3.org/2000/svg">
<path fill-rule="evenodd" clip-rule="evenodd" d="M16.1156 1.18243L17.3651 2.43193C18.0227 3.08956 18.0227 4.14177 17.4308 4.73364L8.22397 13.9405C8.15821 14.072 8.02668 14.1378 7.89515 14.1378L4.60699 14.7954H4.47547C4.27818 14.7954 4.14665 14.7297 3.94936 14.5981C3.75207 14.4666 3.68631 14.2035 3.75207 14.0063L4.4097 10.7181C4.47547 10.5866 4.54123 10.455 4.60699 10.3893L13.8138 1.18243C14.4715 0.590558 15.4579 0.590558 16.1156 1.18243ZM5.26462 13.2829L7.43481 12.8883L8.09244 12.2307L6.44836 10.455L5.72497 11.1784L5.26462 13.2829ZM7.36905 9.53436L9.01313 11.31L14.7345 5.58856L13.0247 3.87872L7.36905 9.53436ZM15.5895 4.66788L16.4444 3.81296C16.5759 3.68143 16.5759 3.48414 16.4444 3.35261L15.1291 2.16888C14.9976 2.03735 14.8003 2.03735 14.6688 2.16888L13.8796 2.95803L15.5895 4.66788ZM13.8138 11.5072C13.8138 11.1126 14.0769 10.8495 14.4715 10.8495C14.8661 10.8495 15.1291 11.1126 15.1291 11.5072V15.7818C15.1291 17.0313 14.0769 18.0835 12.8274 18.0835H2.96291C1.71341 18.0835 0.661194 17.0313 0.661194 15.7818V5.9173C0.661194 4.66779 1.71341 3.61558 2.96291 3.61558H7.23752C7.6321 3.61558 7.89515 3.87864 7.89515 4.27321C7.89515 4.66779 7.6321 4.93085 7.23752 4.93085H2.96291C2.4368 4.93085 1.97646 5.39119 1.97646 5.9173V15.7818C1.97646 16.3079 2.4368 16.7682 2.96291 16.7682H12.8274C13.3535 16.7682 13.8138 16.3079 13.8138 15.7818V11.5072Z" fill="white"/>
<path d="M17.3651 2.43193L17.2383 2.55866L17.2383 2.55866L17.3651 2.43193ZM16.1156 1.18243L16.2425 1.05552L16.2355 1.04921L16.1156 1.18243ZM17.4308 4.73364L17.3041 4.60691L17.3041 4.60691L17.4308 4.73364ZM8.22397 13.9405L8.09724 13.8138L8.07667 13.8343L8.06367 13.8603L8.22397 13.9405ZM7.89515 14.1378V13.9586H7.87741L7.86001 13.962L7.89515 14.1378ZM4.60699 14.7954V14.9746H4.62474L4.64214 14.9712L4.60699 14.7954ZM3.94936 14.5981L4.04878 14.449L4.04878 14.449L3.94936 14.5981ZM3.75207 14.0063L3.9221 14.0629L3.92563 14.0523L3.92781 14.0414L3.75207 14.0063ZM4.4097 10.7181L4.2494 10.6379L4.23866 10.6594L4.23396 10.6829L4.4097 10.7181ZM4.60699 10.3893L4.73372 10.516L4.73372 10.516L4.60699 10.3893ZM13.8138 1.18243L13.6938 1.04903L13.6871 1.0557L13.8138 1.18243ZM7.43481 12.8883L7.46687 13.0646L7.52196 13.0546L7.56154 13.015L7.43481 12.8883ZM5.26462 13.2829L5.08954 13.2446L5.03206 13.5073L5.29669 13.4592L5.26462 13.2829ZM8.09244 12.2307L8.21918 12.3574L8.34113 12.2354L8.22395 12.1089L8.09244 12.2307ZM6.44836 10.455L6.57987 10.3333L6.45333 10.1966L6.32163 10.3283L6.44836 10.455ZM5.72497 11.1784L5.59824 11.0517L5.5611 11.0888L5.54988 11.1401L5.72497 11.1784ZM9.01313 11.31L8.88162 11.4317L9.00816 11.5684L9.13986 11.4367L9.01313 11.31ZM7.36905 9.53436L7.24232 9.40763L7.12037 9.52958L7.23754 9.65613L7.36905 9.53436ZM14.7345 5.58856L14.8613 5.7153L14.988 5.58856L14.8613 5.46183L14.7345 5.58856ZM13.0247 3.87872L13.1514 3.75199L13.0247 3.62526L12.898 3.75199L13.0247 3.87872ZM16.4444 3.81296L16.5711 3.93969L16.5711 3.93969L16.4444 3.81296ZM15.5895 4.66788L15.4627 4.79461L15.5895 4.92134L15.7162 4.79461L15.5895 4.66788ZM16.4444 3.35261L16.5713 3.22571L16.5643 3.2194L16.4444 3.35261ZM15.1291 2.16888L15.0022 2.29578L15.0092 2.30209L15.1291 2.16888ZM14.6688 2.16888L14.7955 2.29561L14.7955 2.29561L14.6688 2.16888ZM13.8796 2.95803L13.7529 2.8313L13.6261 2.95803L13.7529 3.08477L13.8796 2.95803ZM17.4918 2.3052L16.2423 1.0557L15.9888 1.30916L17.2383 2.55866L17.4918 2.3052ZM17.5576 4.86037C18.2241 4.19387 18.2147 3.02809 17.4918 2.3052L17.2383 2.55866C17.8307 3.15103 17.8213 4.08967 17.3041 4.60691L17.5576 4.86037ZM8.3507 14.0672L17.5576 4.86037L17.3041 4.60691L8.09724 13.8138L8.3507 14.0672ZM7.89515 14.317C8.08463 14.317 8.28395 14.2213 8.38427 14.0206L8.06367 13.8603C8.03247 13.9227 7.96874 13.9586 7.89515 13.9586V14.317ZM4.64214 14.9712L7.9303 14.3135L7.86001 13.962L4.57184 14.6197L4.64214 14.9712ZM4.47547 14.9746H4.60699V14.6162H4.47547V14.9746ZM3.84994 14.7473C4.05616 14.8847 4.2243 14.9746 4.47547 14.9746V14.6162C4.33205 14.6162 4.23714 14.5746 4.04878 14.449L3.84994 14.7473ZM3.58204 13.9496C3.49383 14.2142 3.57756 14.5657 3.84994 14.7473L4.04878 14.449C3.92658 14.3675 3.87878 14.1929 3.9221 14.0629L3.58204 13.9496ZM4.23396 10.6829L3.57632 13.9711L3.92781 14.0414L4.58545 10.7532L4.23396 10.6829ZM4.48026 10.2625C4.42979 10.313 4.38732 10.3796 4.35274 10.4401C4.31691 10.5028 4.28174 10.5733 4.2494 10.6379L4.57001 10.7982C4.60343 10.7314 4.63402 10.6703 4.66396 10.6179C4.69514 10.5634 4.71843 10.5313 4.73372 10.516L4.48026 10.2625ZM13.6871 1.0557L4.48026 10.2625L4.73372 10.516L13.9406 1.30916L13.6871 1.0557ZM16.2355 1.04921C15.5097 0.395997 14.4197 0.395997 13.694 1.04921L13.9337 1.31564C14.5232 0.78512 15.4062 0.785119 15.9957 1.31564L16.2355 1.04921ZM7.40275 12.7119L5.23256 13.1065L5.29669 13.4592L7.46687 13.0646L7.40275 12.7119ZM7.96571 12.1039L7.30808 12.7616L7.56154 13.015L8.21918 12.3574L7.96571 12.1039ZM6.31685 10.5768L7.96094 12.3524L8.22395 12.1089L6.57987 10.3333L6.31685 10.5768ZM5.8517 11.3052L6.57509 10.5818L6.32163 10.3283L5.59824 11.0517L5.8517 11.3052ZM5.43971 13.3212L5.90005 11.2167L5.54988 11.1401L5.08954 13.2446L5.43971 13.3212ZM9.14464 11.1882L7.50056 9.41259L7.23754 9.65613L8.88162 11.4317L9.14464 11.1882ZM14.6078 5.46183L8.8864 11.1832L9.13986 11.4367L14.8613 5.7153L14.6078 5.46183ZM12.898 4.00545L14.6078 5.7153L14.8613 5.46183L13.1514 3.75199L12.898 4.00545ZM7.49578 9.66109L13.1514 4.00545L12.898 3.75199L7.24232 9.40763L7.49578 9.66109ZM16.3176 3.68623L15.4627 4.54115L15.7162 4.79461L16.5711 3.93969L16.3176 3.68623ZM16.3176 3.47935C16.3792 3.54088 16.3792 3.62469 16.3176 3.68623L16.5711 3.93969C16.7726 3.73817 16.7726 3.4274 16.5711 3.22588L16.3176 3.47935ZM15.0092 2.30209L16.3245 3.48583L16.5643 3.2194L15.249 2.03566L15.0092 2.30209ZM14.7955 2.29561C14.857 2.23407 14.9408 2.23407 15.0024 2.29561L15.2558 2.04214C15.0543 1.84063 14.7436 1.84063 14.542 2.04214L14.7955 2.29561ZM14.0063 3.08477L14.7955 2.29561L14.542 2.04214L13.7529 2.8313L14.0063 3.08477ZM15.7162 4.54115L14.0063 2.8313L13.7529 3.08477L15.4627 4.79461L15.7162 4.54115ZM14.4715 10.6703C14.2335 10.6703 14.0212 10.7504 13.868 10.9037C13.7147 11.0569 13.6346 11.2692 13.6346 11.5072H13.9931C13.9931 11.3506 14.0445 11.2341 14.1214 11.1571C14.1984 11.0802 14.3149 11.0288 14.4715 11.0288V10.6703ZM15.3083 11.5072C15.3083 11.2692 15.2282 11.0569 15.075 10.9037C14.9218 10.7504 14.7095 10.6703 14.4715 10.6703V11.0288C14.628 11.0288 14.7446 11.0802 14.8215 11.1571C14.8985 11.2341 14.9499 11.3506 14.9499 11.5072H15.3083ZM15.3083 15.7818V11.5072H14.9499V15.7818H15.3083ZM12.8274 18.2627C14.1759 18.2627 15.3083 17.1303 15.3083 15.7818H14.9499C14.9499 16.9323 13.9779 17.9043 12.8274 17.9043V18.2627ZM2.96291 18.2627H12.8274V17.9043H2.96291V18.2627ZM0.481969 15.7818C0.481969 17.1303 1.61442 18.2627 2.96291 18.2627V17.9043C1.81239 17.9043 0.840419 16.9323 0.840419 15.7818H0.481969ZM0.481969 5.9173V15.7818H0.840419V5.9173H0.481969ZM2.96291 3.43636C1.61442 3.43636 0.481969 4.56881 0.481969 5.9173H0.840419C0.840419 4.76678 1.81239 3.79481 2.96291 3.79481V3.43636ZM7.23752 3.43636H2.96291V3.79481H7.23752V3.43636ZM8.07438 4.27321C8.07438 4.0352 7.99425 3.82292 7.84103 3.6697C7.68781 3.51648 7.47554 3.43636 7.23752 3.43636V3.79481C7.39408 3.79481 7.51062 3.84621 7.58757 3.92316C7.66452 4.00011 7.71592 4.11665 7.71592 4.27321H8.07438ZM7.23752 5.11007C7.47554 5.11007 7.68781 5.02995 7.84103 4.87673C7.99425 4.72351 8.07438 4.51123 8.07438 4.27321H7.71592C7.71592 4.42978 7.66452 4.54632 7.58757 4.62327C7.51062 4.70022 7.39408 4.75162 7.23752 4.75162V5.11007ZM2.96291 5.11007H7.23752V4.75162H2.96291V5.11007ZM2.15568 5.9173C2.15568 5.49017 2.53578 5.11007 2.96291 5.11007V4.75162C2.33782 4.75162 1.79723 5.29221 1.79723 5.9173H2.15568ZM2.15568 15.7818V5.9173H1.79723V15.7818H2.15568ZM2.96291 16.589C2.53578 16.589 2.15568 16.2089 2.15568 15.7818H1.79723C1.79723 16.4069 2.33782 16.9475 2.96291 16.9475V16.589ZM12.8274 16.589H2.96291V16.9475H12.8274V16.589ZM13.6346 15.7818C13.6346 16.2089 13.2545 16.589 12.8274 16.589V16.9475C13.4525 16.9475 13.9931 16.4069 13.9931 15.7818H13.6346ZM13.6346 11.5072V15.7818H13.9931V11.5072H13.6346Z" fill="white"/>
</svg>
