<svg width="16" height="16" viewBox="0 0 16 16" fill="none" xmlns="http://www.w3.org/2000/svg">
<path d="M14.7368 0H1.26316C0.555789 0 0 0.572601 0 1.26316V14.7368C0 15.4442 0.572601 16 1.26316 16H14.7368C15.4442 16 16 15.4274 16 14.7368V1.26316C16 0.572601 15.4274 0 14.7368 0ZM13.4064 6.29895C13.4064 6.65269 13.1201 6.92208 12.7832 6.92208C12.4295 6.92208 12.1601 6.63577 12.1601 6.29895V4.73269L4.73275 12.1601H6.29901C6.65275 12.1601 6.92214 12.4464 6.92214 12.7832C6.92214 13.1369 6.63583 13.4063 6.29901 13.4063L3.2169 13.4064C2.86316 13.4064 2.59377 13.1201 2.59377 12.7833L2.59366 9.7012C2.59366 9.34746 2.87996 9.07807 3.21678 9.07807C3.55361 9.07807 3.83991 9.36437 3.83991 9.7012V11.2675L11.2673 3.84009H9.70103C9.34728 3.84009 9.0779 3.55379 9.0779 3.21696C9.0779 2.88013 9.3642 2.59383 9.70103 2.59383H12.7831C13.1369 2.59383 13.4063 2.88013 13.4063 3.21696L13.4064 6.29895Z" fill="#071D49"/>
</svg>
