<svg width="31" height="31" viewBox="0 0 31 31" fill="none" xmlns="http://www.w3.org/2000/svg">
<g filter="url(#filter0_d_2828_36769)">
<path d="M13.5 26C19.8513 26 25 20.8513 25 14.5C25 8.14873 19.8513 3 13.5 3C7.14873 3 2 8.14873 2 14.5C2 20.8513 7.14873 26 13.5 26Z" fill="#C4D600"/>
</g>
<path d="M16.0956 20.6793L13.3204 17.8396L12 19.1951L15.4378 22.7125C15.5282 22.8075 15.6368 22.882 15.7566 22.9314C15.8765 22.9808 16.005 23.0039 16.134 22.9995C16.2517 22.9987 16.3679 22.9729 16.4753 22.9235C16.5828 22.8741 16.6791 22.8023 16.7582 22.7125L23 16.3555L21.6748 15L16.0956 20.6793Z" fill="#071D49"/>
<path d="M11.5049 6C10.8125 5.99903 10.1353 6.20352 9.55907 6.58751C8.98285 6.9715 8.5335 7.51775 8.26784 8.1572C8.00218 8.79666 7.93216 9.50054 8.06665 10.1798C8.20115 10.8591 8.5341 11.4832 9.02339 11.9731C9.51268 12.4631 10.1363 12.7969 10.8154 12.9324C11.4944 13.0678 12.1984 12.9988 12.8383 12.7341C13.4781 12.4693 14.025 12.0207 14.4098 11.445C14.7946 10.8693 15 10.1925 15 9.50005C14.9987 8.57305 14.6302 7.68429 13.9752 7.02834C13.3201 6.37238 12.4319 6.00261 11.5049 6ZM11.5049 11.4149C11.1299 11.4159 10.763 11.3056 10.4506 11.0979C10.1383 10.8903 9.89466 10.5946 9.75046 10.2484C9.60626 9.9022 9.56801 9.52099 9.64058 9.15303C9.71315 8.78507 9.89326 8.4469 10.1581 8.18136C10.423 7.91582 10.7607 7.7348 11.1284 7.66127C11.4962 7.58775 11.8775 7.625 12.2241 7.76829C12.5707 7.91159 12.867 8.15454 13.0755 8.46631C13.2839 8.77808 13.3952 9.14465 13.3952 9.5197C13.3888 10.0177 13.1871 10.4932 12.8335 10.844C12.48 11.1947 12.0029 11.3927 11.5049 11.3953V11.4149Z" fill="#071D49"/>
<path d="M13.8646 15.6571C14.3084 15.6573 14.7397 15.8135 15.091 16.1014C15.4424 16.3892 15.6941 16.7925 15.8069 17.2483L17 15.9916C16.696 15.3894 16.2438 14.8861 15.6917 14.5354C15.1395 14.1847 14.508 13.9996 13.8646 14H9.56962C8.62329 14.0013 7.71609 14.4012 7.04693 15.1117C6.37776 15.8223 6.00126 16.7856 6 17.7905V19.174C6 19.3931 6.08195 19.6032 6.22783 19.7581C6.37371 19.913 6.57157 20 6.77788 20H10.8295L9.67463 18.7787L10.0898 18.348H7.55575V17.8159C7.55701 17.2505 7.7691 16.7086 8.14561 16.3088C8.52212 15.909 9.03241 15.6838 9.56488 15.6825L13.8646 15.6571Z" fill="#071D49"/>
<defs>
<filter id="filter0_d_2828_36769" x="0.31" y="0.46" width="29.78" height="29.78" filterUnits="userSpaceOnUse" color-interpolation-filters="sRGB">
<feFlood flood-opacity="0" result="BackgroundImageFix"/>
<feColorMatrix in="SourceAlpha" type="matrix" values="0 0 0 0 0 0 0 0 0 0 0 0 0 0 0 0 0 0 127 0" result="hardAlpha"/>
<feOffset dx="1.7" dy="0.85"/>
<feGaussianBlur stdDeviation="1.695"/>
<feComposite in2="hardAlpha" operator="out"/>
<feColorMatrix type="matrix" values="0 0 0 0 0 0 0 0 0 0 0 0 0 0 0 0 0 0 0.25 0"/>
<feBlend mode="normal" in2="BackgroundImageFix" result="effect1_dropShadow_2828_36769"/>
<feBlend mode="normal" in="SourceGraphic" in2="effect1_dropShadow_2828_36769" result="shape"/>
</filter>
</defs>
</svg>
