<svg width="37" height="38" viewBox="0 0 37 38" fill="none" xmlns="http://www.w3.org/2000/svg">
<path fill-rule="evenodd" clip-rule="evenodd" d="M18.2214 2.17924C18.7132 2.17924 19.1119 1.6914 19.1119 1.08962C19.1119 0.487839 18.7132 0 18.2214 0C17.7296 0 17.3309 0.487839 17.3309 1.08962C17.3309 1.6914 17.7296 2.17924 18.2214 2.17924ZM18.0235 8.04641C18.0235 8.65176 17.6201 9.13603 17.133 9.13603C16.6459 9.13603 16.2501 8.65176 16.2425 8.04641C16.2425 7.44107 16.6459 6.95679 17.133 6.95679C17.6277 6.95679 18.0235 7.45038 18.0235 8.04641ZM19.8578 10.2257C20.3496 10.2257 20.7483 9.73782 20.7483 9.13604C20.7483 8.53426 20.3496 8.04642 19.8578 8.04642C19.3659 8.04642 18.9673 8.53426 18.9673 9.13604C18.9673 9.73782 19.3659 10.2257 19.8578 10.2257ZM17.133 12.647C17.6201 12.647 18.0235 12.1628 18.0235 11.5574C18.0235 10.9521 17.6277 10.4678 17.133 10.4678C16.6459 10.4678 16.2425 10.9521 16.2425 11.5574C16.2425 12.1628 16.6459 12.647 17.133 12.647ZM34.5095 35.4731H35.575C36.0393 35.4731 36.4123 35.9295 36.397 36.4976C36.397 37.0657 36.0241 37.522 35.5598 37.522H28.7325C28.2682 37.522 27.8953 37.0657 27.8953 36.4976C27.8953 36.0785 28.1008 35.7153 28.3976 35.557H26.0229C26.3197 35.7153 26.5252 36.0785 26.5252 36.4976C26.5252 37.0657 26.1523 37.522 25.688 37.522H24.1125C23.6482 37.522 23.2752 37.0657 23.2752 36.4976C23.2752 36.0785 23.4807 35.7153 23.7776 35.557H22.0803C22.3771 35.7153 22.5826 36.0785 22.5826 36.4976C22.5826 37.0657 22.2097 37.522 21.7454 37.522H0.837239C0.372952 37.522 0 37.0657 0 36.4976C0 35.9295 0.372952 35.4731 0.837239 35.4731H1.93326L14.7506 16.6889C14.9409 16.3815 16.1359 14.5934 18.2214 14.5934C20.3068 14.5934 21.5018 16.3722 21.6921 16.6889L34.5095 35.4731ZM9.71197 30.8539C9.71197 31.4593 10.1154 31.9435 10.6025 31.9435C11.0972 31.9435 11.493 31.4593 11.493 30.8539C11.493 30.2486 11.0896 29.7643 10.6025 29.7643C10.1078 29.7643 9.71197 30.2579 9.71197 30.8539ZM13.1294 26.3557C13.1294 26.9611 13.5328 27.4454 14.0199 27.4454C14.5071 27.4454 14.9028 26.9611 14.9105 26.3557C14.9105 25.7504 14.5147 25.2661 14.0199 25.2661C13.5252 25.2661 13.1294 25.7597 13.1294 26.3557ZM18.3812 19.8087C18.3812 19.2034 17.9778 18.7191 17.4907 18.7191C16.9959 18.7191 16.6002 19.2034 16.6002 19.8087C16.6002 20.4141 16.9959 20.8983 17.4907 20.8983C17.9854 20.8983 18.3812 20.4047 18.3812 19.8087ZM16.0141 21.1684C15.5194 21.1684 15.1236 21.662 15.1236 22.258C15.1236 22.8634 15.5194 23.3476 16.0141 23.3476C16.5088 23.3476 16.9046 22.8541 16.9046 22.258C16.9046 21.6527 16.5012 21.1684 16.0141 21.1684ZM16.0065 26.3557C16.0065 26.9611 16.4099 27.4454 16.897 27.4454C17.3841 27.4454 17.7875 26.9611 17.7875 26.3557C17.7875 25.7504 17.3841 25.2661 16.897 25.2661C16.4023 25.2661 16.0065 25.7597 16.0065 26.3557ZM18.3812 22.258C17.8865 22.258 17.4907 22.7516 17.4907 23.3476C17.4907 23.9437 17.8865 24.4373 18.3812 24.4373C18.8759 24.4373 19.2717 23.953 19.2717 23.3476C19.2717 22.7423 18.8759 22.258 18.3812 22.258ZM18.8911 26.3557C18.8911 26.9611 19.2945 27.4454 19.7817 27.4454C20.2688 27.4454 20.6646 26.9611 20.6722 26.3557C20.6722 25.7504 20.2764 25.2661 19.7817 25.2661C19.2869 25.2661 18.8911 25.7597 18.8911 26.3557ZM20.2916 23.3383C20.2916 23.9437 20.695 24.428 21.1821 24.428C21.6693 24.428 22.0727 23.9437 22.0727 23.3383C22.0727 22.733 21.6769 22.2487 21.1821 22.2487C20.6874 22.2487 20.2916 22.733 20.2916 23.3383ZM22.9023 26.7748C22.9023 27.3802 23.3057 27.8644 23.7928 27.8644C24.2875 27.8644 24.6833 27.3802 24.6833 26.7748C24.6833 26.1695 24.2875 25.6852 23.7928 25.6852C23.2981 25.6852 22.9023 26.1788 22.9023 26.7748Z" fill="#071D49"/>
</svg>
