<svg width="15" height="20" viewBox="0 0 15 20" fill="none" xmlns="http://www.w3.org/2000/svg">
<path d="M12.6636 1.11818L10.3612 2.50088C10.3277 2.52269 10.2885 2.5343 10.2486 2.5343C10.2086 2.5343 10.1695 2.52269 10.1359 2.50088L7.57702 0.968028C7.43975 0.886521 7.28306 0.843506 7.12342 0.843506C6.96378 0.843506 6.80708 0.886521 6.66982 0.968028L4.09838 2.50088C4.06365 2.52251 4.02355 2.53397 3.98264 2.53397C3.94172 2.53397 3.90162 2.52251 3.86689 2.50088L1.577 1.12444C1.44305 1.04327 1.28941 1.00035 1.13279 1.00035C0.976158 1.00035 0.822524 1.04327 0.688572 1.12444C0.553371 1.19806 0.440314 1.30649 0.36111 1.4385C0.281906 1.5705 0.239436 1.72129 0.238101 1.87523V18.5301C0.237692 18.6867 0.27897 18.8406 0.357697 18.9759C0.436424 19.1113 0.549763 19.2233 0.686072 19.3003C0.822382 19.3774 0.97675 19.4168 1.13332 19.4145C1.2899 19.4122 1.44303 19.3682 1.577 19.2872L3.8794 17.9045C3.91292 17.8827 3.95204 17.871 3.99202 17.871C4.03201 17.871 4.07113 17.8827 4.10464 17.9045L6.66356 19.4373C6.79882 19.529 6.95702 19.581 7.12029 19.5875C7.27893 19.5867 7.43447 19.5435 7.57076 19.4623L10.1422 17.9232C10.1769 17.9016 10.217 17.8901 10.2579 17.8901C10.2989 17.8901 10.339 17.9016 10.3737 17.9232L12.6636 19.2997C12.7975 19.3808 12.9512 19.4238 13.1078 19.4238C13.2644 19.4238 13.4181 19.3808 13.552 19.2997C13.69 19.2245 13.8049 19.1132 13.8843 18.9776C13.9637 18.8419 14.0045 18.6872 14.0025 18.5301V1.87523C14.0029 1.71864 13.9616 1.56476 13.8829 1.4294C13.8042 1.29404 13.6908 1.18207 13.5545 1.105C13.4182 1.02793 13.2638 0.988527 13.1073 0.990844C12.9507 0.993161 12.7976 1.03711 12.6636 1.11818V1.11818ZM5.09943 12.6052C5.06669 12.5116 5.05668 12.4115 5.07021 12.3133C5.08375 12.215 5.12044 12.1214 5.17728 12.0401C5.23411 11.9589 5.30945 11.8923 5.39708 11.8458C5.48471 11.7994 5.58212 11.7744 5.68129 11.7731C5.80481 11.7696 5.92659 11.8029 6.03125 11.8686C6.13592 11.9343 6.21878 12.0295 6.2694 12.1422C6.34762 12.3436 6.49422 12.511 6.68351 12.6151C6.8728 12.7192 7.09269 12.7533 7.30464 12.7115C7.51658 12.6697 7.70705 12.5547 7.84265 12.3865C7.97826 12.2184 8.05034 12.0078 8.04626 11.7918C8.05044 11.6673 8.02963 11.5433 7.98505 11.4269C7.94047 11.3106 7.87302 11.2044 7.7867 11.1146C7.70038 11.0248 7.59694 10.9531 7.48248 10.904C7.36802 10.8548 7.24486 10.8291 7.12029 10.8283C6.7545 10.8196 6.39658 10.7204 6.07849 10.5395C5.76041 10.3587 5.49209 10.1019 5.2975 9.79204C5.10291 9.48218 4.98812 9.12894 4.96338 8.76389C4.93864 8.39883 5.00473 8.03334 5.15574 7.70006C5.27839 7.42078 5.46248 7.17278 5.69431 6.97454C5.92613 6.7763 6.1997 6.63293 6.49464 6.55511V5.8231C6.49464 5.65717 6.56055 5.49803 6.67789 5.3807C6.79522 5.26336 6.95436 5.19745 7.12029 5.19745C7.28622 5.19745 7.44536 5.26336 7.56269 5.3807C7.68003 5.49803 7.74594 5.65717 7.74594 5.8231V6.55511C8.08808 6.65367 8.40001 6.83652 8.65314 7.08692C8.86746 7.29837 9.03574 7.55185 9.14741 7.83145C9.1741 7.92269 9.17965 8.01882 9.16363 8.11254C9.14762 8.20625 9.11045 8.29508 9.05496 8.37228C8.99948 8.44948 8.92713 8.51302 8.84341 8.55807C8.75969 8.60312 8.6668 8.6285 8.57181 8.63228C8.44861 8.63804 8.32647 8.60725 8.22072 8.5438C8.11497 8.48035 8.03033 8.38707 7.97744 8.27566C7.92782 8.16363 7.85781 8.06179 7.77097 7.97535C7.68622 7.88856 7.58504 7.81951 7.47332 7.77225C7.36161 7.72498 7.24159 7.70044 7.12029 7.70006V7.70006C6.8763 7.70333 6.64332 7.80213 6.47137 7.97526C6.29942 8.14838 6.20219 8.38202 6.20058 8.62603C6.19995 8.86676 6.29064 9.09878 6.45436 9.27527C6.61808 9.45177 6.84264 9.5596 7.08275 9.57702C7.60905 9.58882 8.11511 9.78209 8.51528 10.1241C8.91546 10.4662 9.18518 10.9359 9.27879 11.454C9.35393 11.9733 9.24066 12.5023 8.95948 12.9453C8.67831 13.3883 8.24782 13.716 7.74594 13.869V14.5822C7.74594 14.7482 7.68003 14.9073 7.56269 15.0247C7.44536 15.142 7.28622 15.2079 7.12029 15.2079C6.95436 15.2079 6.79522 15.142 6.67789 15.0247C6.56055 14.9073 6.49464 14.7482 6.49464 14.5822V13.8753C6.18191 13.7813 5.89423 13.6185 5.65277 13.3987C5.41132 13.1789 5.22223 12.9077 5.09943 12.6052V12.6052Z" fill="#071D49"/>
</svg>
