<svg width="14" height="20" viewBox="0 0 14 20" fill="none" xmlns="http://www.w3.org/2000/svg">
<path d="M6.77956 0.703369C5.10082 0.703369 3.49083 1.37025 2.30378 2.55729C1.11674 3.74434 0.44986 5.35433 0.44986 7.03307C0.44986 10.5317 6.77956 19.117 6.77956 19.117C6.77956 19.117 13.1093 10.5317 13.1093 7.03307C13.1093 5.35433 12.4424 3.74434 11.2553 2.55729C10.0683 1.37025 8.4583 0.703369 6.77956 0.703369ZM6.77956 9.9102C6.21051 9.9102 5.65425 9.74146 5.18111 9.42532C4.70796 9.10917 4.33919 8.65983 4.12143 8.1341C3.90367 7.60837 3.84669 7.02987 3.9577 6.47176C4.06872 5.91365 4.34274 5.401 4.74511 4.99862C5.14749 4.59625 5.66014 4.32223 6.21825 4.21121C6.77636 4.1002 7.35486 4.15718 7.88059 4.37494C8.40632 4.5927 8.85566 4.96147 9.17181 5.43462C9.48795 5.90776 9.65669 6.46402 9.65669 7.03307C9.65669 7.4109 9.58227 7.78503 9.43768 8.1341C9.29309 8.48317 9.08116 8.80034 8.814 9.06751C8.54683 9.33467 8.22966 9.5466 7.88059 9.69119C7.53152 9.83578 7.15739 9.9102 6.77956 9.9102V9.9102Z" fill="#071D49"/>
</svg>
