<svg width="15" height="18" viewBox="0 0 15 18" fill="none" xmlns="http://www.w3.org/2000/svg">
<path d="M0.717834 16.9936V0.610838C0.717834 0.32809 0.949451 0.098877 1.23517 0.098877H13.6511C13.9368 0.098877 14.1684 0.32809 14.1684 0.610838V16.9936C14.1684 17.2763 13.9368 17.5055 13.6511 17.5055H1.23517C0.949451 17.5055 0.717834 17.2763 0.717834 16.9936ZM3.30449 12.6419H11.5818C11.8675 12.6419 12.0991 12.4127 12.0991 12.13C12.0991 11.8472 11.8675 11.618 11.5818 11.618H3.30449C3.01878 11.618 2.78716 11.8472 2.78716 12.13C2.78716 12.4127 3.01878 12.6419 3.30449 12.6419ZM3.30449 15.4577H7.44314C7.72885 15.4577 7.96047 15.2285 7.96047 14.9457C7.96047 14.663 7.72885 14.4338 7.44314 14.4338H3.30449C3.01878 14.4338 2.78716 14.663 2.78716 14.9457C2.78716 15.2285 3.01878 15.4577 3.30449 15.4577ZM10.5471 6.79829V5.98643C10.5471 4.28994 9.15742 2.91466 7.44314 2.91466C7.15742 2.91466 6.92581 3.14387 6.92581 3.42662C6.92581 3.70937 7.15742 3.93858 7.44314 3.93858C8.58599 3.93858 9.51246 4.85543 9.51246 5.98643V6.79829L9.10227 6.39236C8.90024 6.19242 8.57269 6.19242 8.37066 6.39236C8.16863 6.59229 8.16863 6.91644 8.37066 7.11638L9.66398 8.39628C9.86602 8.59621 10.1936 8.59621 10.3956 8.39628L11.6889 7.11638C11.891 6.91644 11.891 6.59229 11.6889 6.39236C11.4869 6.19242 11.1593 6.19242 10.9573 6.39236L10.5471 6.79829ZM4.33915 5.17457V5.98643C4.33915 7.68291 5.72885 9.05819 7.44314 9.05819C7.72885 9.05819 7.96047 8.82898 7.96047 8.54623C7.96047 8.26348 7.72885 8.03427 7.44314 8.03427C6.30028 8.03427 5.37381 7.11742 5.37381 5.98643V5.17457L5.784 5.5805C5.98603 5.78043 6.31359 5.78043 6.51562 5.5805C6.71765 5.38056 6.71765 5.05641 6.51562 4.85647L5.22229 3.57657C5.02026 3.37664 4.6927 3.37664 4.49067 3.57657L3.19735 4.85647C2.99532 5.05641 2.99532 5.38056 3.19735 5.5805C3.39938 5.78043 3.72693 5.78043 3.92896 5.5805L4.33915 5.17457Z" fill="#071D49"/>
</svg>
