<svg width="196" height="136" viewBox="0 0 196 136" fill="none" xmlns="http://www.w3.org/2000/svg">
<path d="M64.42 40.43V10.98C64.59 6.53 67.2299 5.39001 68.7599 5.11001H139.64C141.2 5.39001 143.98 6.58002 143.98 11.41V40.41H149.06V2.55001C149.065 2.2162 149.004 1.88467 148.88 1.57485C148.755 1.26503 148.57 0.983151 148.336 0.745688C148.101 0.508224 147.821 0.319955 147.513 0.191916C147.205 0.0638768 146.874 -0.00135132 146.54 2.12186e-05H61.5399L44.43 2.27001C43.8166 2.3479 43.2527 2.64685 42.844 3.11077C42.4353 3.57469 42.2099 4.17173 42.21 4.79V40.43H64.42Z" fill="#585858"/>
<path d="M143.95 97.6399V117.93C143.95 122.93 140.95 124.04 139.44 124.26L138.64 124.32H138.56L69.5599 129.88C68.5599 129.88 64.4 129.4 64.4 123.5C64.4165 123.3 64.4165 123.1 64.4 122.9V97.6399H42.2V125.64C42.2014 126.14 42.3476 126.629 42.6209 127.048C42.8942 127.466 43.2828 127.797 43.74 128L60.8499 135.41L60.99 135.47H61.08C61.1254 135.485 61.1745 135.485 61.2199 135.47C61.2199 135.47 61.28 135.47 61.3 135.47H61.4799H62.0099L146.66 128.62C147.3 128.567 147.897 128.276 148.332 127.803C148.768 127.331 149.01 126.712 149.01 126.07V97.6399H143.95Z" fill="#585858"/>
<path d="M23.13 81.45C20.5714 82.5085 17.8177 83.013 15.05 82.93C6.45002 82.93 0 77.49 0 67.46C0 57.88 6.46 51.46 15.94 51.46C18.4265 51.3589 20.9039 51.8169 23.19 52.8L22.19 56.01C20.255 55.1509 18.1569 54.721 16.04 54.75C8.87001 54.75 4.13 59.34 4.13 67.36C4.13 74.83 8.43002 79.61 15.83 79.61C18.051 79.646 20.2549 79.2168 22.3 78.35L23.13 81.45Z" fill="#585858"/>
<path d="M39.78 82.4301L39.4301 79.6601H39.31C38.5318 80.699 37.5172 81.5375 36.3503 82.1061C35.1834 82.6748 33.8978 82.9573 32.6 82.9301C28.18 82.9301 25.91 79.78 25.91 76.64C25.91 71.33 30.61 68.4101 39.08 68.4701V68.01C39.08 66.23 38.58 62.93 34.08 62.95C32.0595 62.9429 30.0788 63.5118 28.3701 64.5901L27.47 61.9301C29.6563 60.6342 32.1589 59.9696 34.7 60.01C41.4 60.01 43.03 64.59 43.03 69.01V77.2101C43.0084 78.9658 43.1188 80.7208 43.36 82.4601L39.78 82.4301ZM39.16 71.2401C34.85 71.1401 29.91 71.9201 29.91 76.1601C29.8658 76.6638 29.9309 77.1711 30.101 77.6474C30.271 78.1236 30.5419 78.5575 30.8951 78.9193C31.2484 79.2811 31.6757 79.5623 32.1477 79.7437C32.6197 79.925 33.1254 80.0023 33.63 79.9701C34.7943 80.0039 35.9393 79.6666 36.8992 79.0069C37.8591 78.3471 38.5844 77.3992 38.97 76.3001C39.0992 75.8961 39.1634 75.4742 39.16 75.0501V71.2401Z" fill="#585858"/>
<path d="M49.47 66.43C49.47 64.14 49.39 62.33 49.29 60.51H52.81L53.03 64.12H53.14C53.8627 62.8423 54.9189 61.785 56.1959 61.0611C57.4729 60.3372 58.9226 59.9739 60.39 60.01C63.39 60.01 68.11 61.8201 68.11 69.3501V82.43H64.11V69.79C64.11 66.25 62.77 63.28 59.04 63.28C57.8273 63.3056 56.6539 63.7154 55.6888 64.4504C54.7238 65.1854 54.017 66.2077 53.67 67.37C53.4849 67.969 53.3938 68.5931 53.4001 69.22V82.43H49.4001L49.47 66.43Z" fill="#585858"/>
<path d="M90.25 81.63C88.2687 82.5139 86.1193 82.9574 83.95 82.93C77.34 82.93 73.01 78.44 73.01 71.74C73.01 65.04 77.62 60.05 84.79 60.05C86.7007 60.0239 88.5931 60.4236 90.33 61.22L89.44 64.28C87.9998 63.5424 86.3976 63.1779 84.78 63.22C79.78 63.22 77.04 66.97 77.05 71.52C77.05 76.6 80.31 79.73 84.68 79.73C86.3647 79.7391 88.0308 79.3772 89.56 78.67L90.25 81.63Z" fill="#585858"/>
<path d="M96.8799 72.19C96.9599 77.58 100.38 79.8 104.38 79.8C106.46 79.8587 108.528 79.477 110.45 78.68L111.15 81.51C108.839 82.4834 106.347 82.9572 103.84 82.9C97.1 82.9 93.0599 78.42 93.0599 71.84C93.0599 65.26 96.9699 60.01 103.37 60.01C110.52 60.01 112.37 66.29 112.37 70.32C112.385 70.9465 112.338 71.5728 112.23 72.19H96.8799ZM108.55 69.32C108.55 66.81 107.55 62.87 103.05 62.87C98.9799 62.87 97.2499 66.55 96.9299 69.32H108.55Z" fill="#585858"/>
<path d="M117.36 50.25H121.36V82.43H117.36V50.25Z" fill="#585858"/>
<path d="M140.2 82.4299L139.85 79.6599H139.73C138.954 80.6987 137.941 81.5372 136.776 82.106C135.61 82.6747 134.326 82.9572 133.03 82.9299C128.6 82.9299 126.33 79.7799 126.33 76.6399C126.33 71.3299 131.04 68.4099 139.5 68.4699V68.0099C139.5 66.2299 139 62.9299 134.5 62.9499C132.479 62.9428 130.499 63.5117 128.79 64.5899L127.95 61.9299C130.137 60.6355 132.639 59.971 135.18 60.0099C141.88 60.0099 143.52 64.5899 143.52 69.0099V77.2099C143.493 78.9658 143.604 80.7212 143.85 82.4599L140.2 82.4299ZM139.58 71.2399C135.27 71.1399 130.33 71.9199 130.33 76.1599C130.292 76.6605 130.361 77.1634 130.534 77.6347C130.707 78.106 130.979 78.5348 131.331 78.8921C131.684 79.2495 132.109 79.527 132.578 79.7061C133.047 79.8851 133.549 79.9614 134.05 79.9299C135.215 79.9669 136.361 79.6309 137.322 78.9707C138.282 78.3105 139.007 77.3608 139.39 76.2599C139.519 75.856 139.583 75.434 139.58 75.0099V71.2399Z" fill="#585858"/>
<path d="M168.81 50.25V76.77C168.81 78.77 168.88 80.92 168.99 82.43H165.45L165.25 78.64H165.14C164.436 79.9884 163.362 81.1082 162.044 81.868C160.727 82.6278 159.22 82.9962 157.7 82.93C152.39 82.93 148.3 78.44 148.3 71.79C148.3 64.46 152.81 60.01 158.14 60.01C161.51 60.01 163.78 61.59 164.76 63.34H164.85V50.25H168.81ZM164.81 69.43C164.813 68.8589 164.756 68.2891 164.64 67.73C164.344 66.4225 163.611 65.255 162.562 64.4205C161.513 63.586 160.21 63.1342 158.87 63.14C154.74 63.14 152.27 66.76 152.27 71.57C152.27 76.03 154.49 79.72 158.79 79.72C160.168 79.7162 161.503 79.2379 162.57 78.3655C163.638 77.4932 164.372 76.28 164.65 74.93C164.791 74.3711 164.858 73.7963 164.85 73.22L164.81 69.43Z" fill="#585858"/>
<path d="M195.29 71.26C195.29 79.38 189.66 82.93 184.39 82.93C178.45 82.93 173.86 78.59 173.86 71.64C173.86 64.3 178.68 60.01 184.74 60.01C191.04 60.01 195.29 64.58 195.29 71.26ZM177.91 71.51C177.91 76.32 180.67 79.94 184.56 79.94C188.45 79.94 191.23 76.37 191.23 71.4C191.23 67.69 189.37 63 184.63 63C179.89 63 177.95 67.36 177.95 71.51H177.91Z" fill="#585858"/>
</svg>
