<svg width="31" height="40" viewBox="0 0 31 40" fill="none" xmlns="http://www.w3.org/2000/svg">
<path d="M16.1462 24.7272C16.5612 24.6394 16.8326 24.3281 16.8326 24.0008C16.8326 23.6975 16.5932 23.466 16.2499 23.4022C16.0983 23.3782 15.9227 23.3782 15.5874 23.3942L15.0845 23.4261V25.9166L15.5794 25.8927V24.8071C15.5794 24.8071 16.218 25.5255 16.2819 25.5893C16.3697 25.6771 16.4575 25.741 16.5373 25.7809C16.6331 25.8208 16.6969 25.8288 16.9204 25.8208L17.2397 25.8049C17.1519 25.749 17.112 25.7091 17.0402 25.6452C16.9524 25.5574 16.3377 24.9507 16.1462 24.7272ZM15.5874 24.5995V23.6815C15.6034 23.6815 15.6513 23.6736 15.6752 23.6736C16.0983 23.6496 16.3058 23.7853 16.3058 24.0727C16.3058 24.3441 16.0504 24.5676 15.6513 24.5915C15.6353 24.5995 15.6034 24.5995 15.5874 24.5995Z" fill="#585858"/>
<path d="M22.3007 17.8383C22.3007 16.1381 21.0873 14.7971 19.4829 14.5656L18.7645 10.1194V21.5661C20.8718 21.4543 22.3007 19.6024 22.3007 17.8383Z" fill="#585858"/>
<path d="M17.0003 21.215L18.0381 14.6694C16.4256 15.1085 15.2203 16.5932 15.2203 18.2854C15.2203 19.5866 15.9387 20.6722 17.0003 21.215Z" fill="#585858"/>
<path d="M19.3391 25.3498C19.2353 25.4057 19.1156 25.4297 18.9719 25.4376C18.4291 25.4696 18.0699 25.1024 18.0699 24.5276C18.0699 23.937 18.4451 23.5219 19.0118 23.4899C19.2433 23.474 19.4748 23.5299 19.6744 23.6576V23.1866C19.4509 23.1467 19.2513 23.1307 19.0438 23.1387C18.1497 23.1866 17.5191 23.7933 17.5191 24.5835C17.5191 25.3498 18.1018 25.8288 18.948 25.7889C19.2433 25.7729 19.5626 25.6931 19.826 25.5654V24.384L19.3391 24.4079V25.3498Z" fill="#585858"/>
<path d="M24.7831 23.881C24.4559 23.7533 24.2643 23.7054 24.2643 23.4898C24.2643 23.3063 24.4239 23.1706 24.6714 23.1626C24.8949 23.1466 25.1344 23.2025 25.3259 23.3462V22.8992C25.1264 22.8433 24.8949 22.8113 24.6874 22.8193C24.1366 22.8513 23.7694 23.1466 23.7694 23.5777C23.7694 23.7772 23.8412 23.9289 23.9849 24.0486C24.0807 24.1284 24.2004 24.1843 24.4718 24.2881C24.855 24.4318 25.0146 24.5276 25.0146 24.7271C25.0146 24.9586 24.8151 25.1183 24.5437 25.1342C24.3202 25.1422 24.0567 25.0783 23.8013 24.9666V25.4216C24.0328 25.4695 24.2643 25.4934 24.4958 25.4854C25.1184 25.4535 25.5095 25.1342 25.5016 24.6393C25.4936 24.2482 25.278 24.0726 24.7831 23.881Z" fill="#585858"/>
<path d="M21.8536 22.9632C21.0394 23.0111 20.4726 23.5779 20.4726 24.3522C20.4726 25.1504 21.0394 25.6772 21.8376 25.6373C22.6279 25.5974 23.1946 25.0067 23.1946 24.2404C23.1946 23.4422 22.6438 22.9153 21.8536 22.9632ZM21.8536 25.2701C21.3746 25.2941 21.0314 24.887 21.0314 24.2963C21.0314 23.7535 21.3746 23.3384 21.8456 23.3144C22.3086 23.2905 22.6438 23.6976 22.6438 24.2883C22.6438 24.8231 22.3006 25.2462 21.8536 25.2701Z" fill="#585858"/>
<path d="M13.2645 23.45L12.0113 26.0841L12.4982 26.0602L12.7696 25.4535L13.7435 25.3976L14.0149 25.9804L14.5577 25.9484L13.3044 23.45H13.2645ZM12.8973 25.1422L13.2486 24.344L13.5998 25.1023L12.8973 25.1422Z" fill="#585858"/>
<path d="M29.9397 0.947754H6.12829H6.12031C6.11233 0.947754 6.09636 0.947754 6.08838 0.947754C6.07241 0.947754 6.05645 0.947754 6.04847 0.947754H6.04048L1.22712 1.58634C0.86791 1.63424 0.604492 1.93757 0.604492 2.29677V36.2937C0.604492 36.581 0.772122 36.8365 1.03554 36.9562L5.84891 39.0396C5.84891 39.0396 5.85689 39.0396 5.85689 39.0476C5.87285 39.0556 5.88084 39.0556 5.8968 39.0636C5.90478 39.0636 5.91277 39.0715 5.92075 39.0715C5.93671 39.0795 5.9447 39.0795 5.96066 39.0795C5.96864 39.0795 5.97662 39.0875 5.98461 39.0875C6.00057 39.0875 6.01654 39.0955 6.0325 39.0955C6.04048 39.0955 6.04847 39.0955 6.05645 39.0955C6.0804 39.0955 6.10434 39.0955 6.12829 39.0955C6.14425 39.0955 6.1682 39.0955 6.18417 39.0955L29.9876 37.1717C30.3628 37.1398 30.6501 36.8285 30.6501 36.4533V1.66617C30.6581 1.26705 30.3308 0.947754 29.9397 0.947754ZM29.2213 34.0666C29.2213 34.0826 29.2213 34.0985 29.2213 34.1145C29.2213 35.5194 28.3831 35.8307 27.9521 35.8946L27.7286 35.9105C27.7126 35.9105 27.7046 35.9105 27.7046 35.9105L8.30748 37.4751C8.02809 37.4671 6.85468 37.3394 6.85468 35.679C6.85468 35.6152 6.85469 35.5593 6.8467 35.5114V4.03693C6.8946 2.7837 7.63696 2.4644 8.068 2.38458H28C28.439 2.4644 29.2213 2.79966 29.2213 4.15667C29.2213 4.17263 29.2213 4.18859 29.2213 4.20456V34.0666Z" fill="#585858"/>
</svg>
