<svg width="24" height="19" viewBox="0 0 24 19" fill="none" xmlns="http://www.w3.org/2000/svg">
<path fill-rule="evenodd" clip-rule="evenodd" d="M5.69408 7.44178C6.04616 7.09796 6.61058 7.10623 6.95362 7.45806C7.29693 7.81066 7.28969 8.37508 6.93709 8.71812L4.22374 11.362C4.05584 11.5258 3.84066 11.6095 3.62393 11.6149C3.38499 11.6208 3.14424 11.5309 2.96445 11.3462L0.320588 8.63339C-0.0227144 8.28053 -0.0157398 7.71637 0.336861 7.37281C0.688688 7.03003 1.25311 7.03804 1.59641 7.38935L2.78337 8.6073C2.79293 8.62539 2.8123 8.64838 2.83504 8.67292C3.04711 4.49646 6.13554 1.05828 10.3159 0.420755C13.5182 -0.0674621 16.7239 1.23471 18.6819 3.81916C18.7615 3.92429 18.8142 4.04803 18.8341 4.17796C18.8775 4.46598 18.7605 4.75375 18.5288 4.92992C18.4236 5.00948 18.2996 5.06192 18.1705 5.08155C17.8822 5.12572 17.5942 5.0087 17.418 4.777C15.811 2.65622 13.1811 1.58757 10.5546 1.98822C7.15382 2.5064 4.64041 5.28614 4.42988 8.67343C4.49833 8.61479 4.558 8.56081 4.58151 8.52542L5.69408 7.44178ZM3.65467 9.86634C3.66526 9.86608 3.6756 9.8653 3.68593 9.86427C3.67611 9.87641 3.66604 9.87641 3.65467 9.86634ZM20.184 7.11795L22.8274 9.83105C23.171 10.1842 23.164 10.7483 22.8109 11.0921C22.4595 11.4349 21.8954 11.4269 21.5518 11.0756L20.3649 9.85765C20.3535 9.83621 20.329 9.8078 20.2995 9.77809C20.0748 13.9411 16.9915 17.3648 12.8215 18.0008C9.61892 18.4893 6.41348 17.1871 4.45518 14.6027C4.37588 14.4975 4.32318 14.3735 4.30329 14.2441C4.25938 13.9561 4.3764 13.6678 4.60836 13.4919C4.7135 13.4121 4.83775 13.3596 4.96691 13.3403C5.25493 13.2964 5.54295 13.4131 5.71912 13.6451C7.32559 15.7656 9.9555 16.834 12.5823 16.4339C15.9645 15.918 18.4696 13.1659 18.7041 9.80366C18.6419 9.85714 18.5887 9.90622 18.567 9.93902L17.4536 11.0229C17.1018 11.367 16.5377 11.358 16.1944 11.0066C15.8508 10.6543 15.8583 10.0899 16.2106 9.74606L18.9245 7.1022C19.0919 6.93894 19.3076 6.85447 19.5243 6.84931C19.7632 6.84362 20.0043 6.93377 20.184 7.11795Z" fill="white"/>
</svg>
