<svg width="18" height="18" viewBox="0 0 18 18" fill="none" xmlns="http://www.w3.org/2000/svg">
<path d="M2.81199 4.0853C3.35015 4.39587 3.53458 5.08392 3.2238 5.62208C2.91323 6.16024 2.22518 6.34467 1.68702 6.03389C1.14886 5.72331 0.96443 5.03506 1.27521 4.4971C1.58578 3.95894 2.27403 3.77452 2.81199 4.0853" fill="#BABCBC"/>
<path d="M6.03093 1.68964C6.34169 2.2278 6.15727 2.91583 5.61932 3.22642C5.08116 3.53718 4.39313 3.35276 4.08234 2.81461C3.77177 2.27665 3.95599 1.58862 4.49414 1.27783C5.0323 0.967261 5.72033 1.15149 6.03092 1.68964" fill="#BABCBC"/>
<path d="M7.31271 4.5V8.43773C7.31271 9.03455 7.54991 9.60682 7.97192 10.0287C8.39372 10.4507 8.96602 10.6879 9.56284 10.6879H12.9379V8.43773H9.56284V4.5H7.31271Z" fill="#BABCBC"/>
<path d="M9.00025 0H7.87531V2.25012H9.00025C10.7905 2.25012 12.5076 2.96131 13.7734 4.22713C15.0392 5.49295 15.7504 7.21003 15.7504 9.00025C15.7504 10.7905 15.0392 12.5076 13.7734 13.7734C12.5076 15.0392 10.7905 15.7504 9.00025 15.7504C7.21003 15.7504 5.49295 15.0392 4.22713 13.7734C2.96131 12.5076 2.25013 10.7905 2.25013 9.00025V7.87531H0V9.00025C0 11.3873 0.948196 13.6764 2.636 15.3642C4.32401 17.0521 6.61321 18.0002 9 18.0002C11.3868 18.0002 13.6762 17.0521 15.364 15.3642C17.0518 13.6762 18 11.387 18 9.00025C18 6.61346 17.0518 4.32406 15.364 2.63625C13.676 0.948447 11.3868 0.000250986 9 0.000250986L9.00025 0Z" fill="#BABCBC"/>
</svg>
