<svg width="31" height="31" viewBox="0 0 31 31" fill="none" xmlns="http://www.w3.org/2000/svg">
<g filter="url(#filter0_d_2811_36790)">
<path d="M13.5007 26.0015C19.8524 26.0015 25.0015 20.8524 25.0015 14.5007C25.0015 8.14906 19.8524 3 13.5007 3C7.14906 3 2 8.14906 2 14.5007C2 20.8524 7.14906 26.0015 13.5007 26.0015Z" fill="#00C389"/>
</g>
<path d="M9.03243 20.2665H15.7888L15.805 20.3182C15.9851 20.8786 16.3381 21.3674 16.8134 21.7146C17.2887 22.0618 17.8618 22.2494 18.4503 22.2505C18.5757 22.2503 18.701 22.2419 18.8253 22.2254C19.3181 22.1585 19.784 21.9607 20.1745 21.6526C20.5649 21.3444 20.8655 20.9372 21.0451 20.4734C21.2246 20.0095 21.2764 19.506 21.1952 19.0153C21.1139 18.5246 20.9026 18.0647 20.5831 17.6834C20.2637 17.3022 19.8478 17.0136 19.3789 16.8477C18.91 16.6818 18.4052 16.6447 17.9171 16.7403C17.429 16.8359 16.9754 17.0606 16.6037 17.391C16.232 17.7215 15.9557 18.1456 15.8036 18.6192L15.7873 18.6708H9.03096C8.80587 18.6775 8.58175 18.6389 8.37184 18.5574C8.16193 18.4759 7.97052 18.353 7.80895 18.1962C7.64737 18.0393 7.51893 17.8516 7.43122 17.6442C7.34351 17.4368 7.29831 17.2139 7.29831 16.9887C7.29831 16.7636 7.34351 16.5407 7.43122 16.3333C7.51893 16.1259 7.64737 15.9382 7.80895 15.7813C7.97052 15.6245 8.16193 15.5016 8.37184 15.4201C8.58175 15.3386 8.80587 15.3 9.03096 15.3067H17.9573C18.3876 15.3067 18.8138 15.2219 19.2114 15.0572C19.6089 14.8925 19.9702 14.6511 20.2745 14.3468C20.5788 14.0425 20.8202 13.6813 20.9849 13.2837C21.1496 12.8861 21.2344 12.4599 21.2344 12.0296C21.2344 11.5992 21.1496 11.1731 20.9849 10.7755C20.8202 10.3779 20.5788 10.0167 20.2745 9.71235C19.9702 9.40805 19.6089 9.16666 19.2114 9.00197C18.8138 8.83729 18.3876 8.75252 17.9573 8.75252H11.2009L11.1847 8.70086C10.9821 8.06906 10.5605 7.53044 9.99579 7.18213C9.43111 6.83381 8.76054 6.69873 8.10504 6.80124C7.44954 6.90375 6.85225 7.23711 6.42087 7.7412C5.98949 8.24528 5.75242 8.88692 5.75242 9.55038C5.75242 10.2139 5.98949 10.8555 6.42087 11.3596C6.85225 11.8637 7.44954 12.197 8.10504 12.2995C8.76054 12.402 9.43111 12.267 9.99579 11.9186C10.5605 11.5703 10.9821 11.0317 11.1847 10.3999L11.2009 10.3482H17.9588C18.2919 10.347 18.618 10.4448 18.8955 10.6292C19.173 10.8136 19.3894 11.0762 19.5174 11.3839C19.6454 11.6915 19.679 12.0302 19.6141 12.357C19.5493 12.6838 19.3887 12.984 19.153 13.2194C18.8366 13.5335 18.409 13.7101 17.9632 13.7109H9.03096C8.59465 13.7017 8.16091 13.7796 7.75512 13.9402C7.34933 14.1007 6.97968 14.3407 6.66784 14.646C6.35601 14.9513 6.10826 15.3158 5.93912 15.718C5.76998 16.1203 5.68286 16.5523 5.68286 16.9887C5.68286 17.4251 5.76998 17.8571 5.93912 18.2594C6.10826 18.6617 6.35601 19.0262 6.66784 19.3315C6.97968 19.6368 7.34933 19.8767 7.75512 20.0373C8.16091 20.1979 8.59465 20.2758 9.03096 20.2665H9.03243ZM17.6192 18.628C17.8134 18.4333 18.0692 18.3119 18.3428 18.2847C18.6165 18.2574 18.8912 18.3259 19.12 18.4785C19.3488 18.6311 19.5176 18.8583 19.5976 19.1214C19.6776 19.3846 19.6638 19.6673 19.5587 19.9214C19.4536 20.1755 19.2635 20.3853 19.021 20.515C18.7785 20.6447 18.4985 20.6862 18.2288 20.6326C17.959 20.5789 17.7163 20.4333 17.5419 20.2207C17.3674 20.008 17.2722 19.7415 17.2724 19.4665C17.272 19.3107 17.3025 19.1565 17.3621 19.0126C17.4216 18.8687 17.509 18.738 17.6192 18.628ZM9.37787 10.3881C9.18371 10.5828 8.92803 10.7041 8.65444 10.7314C8.38084 10.7587 8.10626 10.6903 7.87746 10.5378C7.64866 10.3853 7.47981 10.1582 7.3997 9.89521C7.3196 9.63218 7.33316 9.34952 7.43812 9.09538C7.54308 8.84125 7.73294 8.63138 7.9753 8.50153C8.21767 8.37169 8.49756 8.32991 8.76728 8.38332C9.03699 8.43673 9.27984 8.58202 9.45443 8.79443C9.62903 9.00683 9.72457 9.27321 9.72476 9.54817C9.72508 9.7046 9.69432 9.85953 9.63427 10.004C9.57421 10.1484 9.48605 10.2795 9.37491 10.3896L9.37787 10.3881Z" fill="white"/>
<defs>
<filter id="filter0_d_2811_36790" x="0.31" y="0.46" width="29.7815" height="29.7815" filterUnits="userSpaceOnUse" color-interpolation-filters="sRGB">
<feFlood flood-opacity="0" result="BackgroundImageFix"/>
<feColorMatrix in="SourceAlpha" type="matrix" values="0 0 0 0 0 0 0 0 0 0 0 0 0 0 0 0 0 0 127 0" result="hardAlpha"/>
<feOffset dx="1.7" dy="0.85"/>
<feGaussianBlur stdDeviation="1.695"/>
<feComposite in2="hardAlpha" operator="out"/>
<feColorMatrix type="matrix" values="0 0 0 0 0 0 0 0 0 0 0 0 0 0 0 0 0 0 0.25 0"/>
<feBlend mode="normal" in2="BackgroundImageFix" result="effect1_dropShadow_2811_36790"/>
<feBlend mode="normal" in="SourceGraphic" in2="effect1_dropShadow_2811_36790" result="shape"/>
</filter>
</defs>
</svg>
