<svg width="20" height="13" viewBox="0 0 20 13" fill="none" xmlns="http://www.w3.org/2000/svg">
<path d="M18.0211 1.01934C17.8235 0.624121 17.4678 0.426514 16.7959 0.426514H14.3851C14.2271 0.426514 14.069 0.466035 13.9109 0.505557C13.7528 0.545078 13.6342 0.663643 13.5157 0.742686C13.3971 0.821729 13.3181 0.979815 13.239 1.1379C13.16 1.29599 13.16 1.41455 13.16 1.57264V6.82899H12.8043H7.86409H7.66648H3.47721H1.06639C0.987351 6.82899 0.908308 6.829 0.829265 6.86852C0.750222 6.90804 0.671179 6.94756 0.631658 6.98708C0.592136 7.0266 0.513093 7.10565 0.513093 7.18469C0.473572 7.34277 0.473572 7.3823 0.473572 7.46134V9.20028C0.473572 9.35837 0.552615 9.51646 0.631658 9.63502C0.750222 9.75359 0.908308 9.79311 1.06639 9.79311H2.88438C2.88438 10.4255 3.12151 11.0183 3.59577 11.453C4.07003 11.8877 4.66285 12.1249 5.29519 12.1249C5.92754 12.1249 6.55988 11.8877 6.99462 11.453C7.46888 11.0183 7.706 10.4255 7.706 9.79311H12.5671C12.5671 10.4255 12.8043 11.0183 13.2785 11.453C13.7528 11.8877 14.3456 12.1249 14.978 12.1249C15.6103 12.1249 16.2426 11.8877 16.6774 11.453C17.1516 11.0183 17.3888 10.4255 17.3888 9.79311H19.2068C19.3648 9.79311 19.5229 9.71406 19.6415 9.63502C19.7601 9.51646 19.7996 9.35837 19.7996 9.20028V8.01464V6.27569V4.53675L18.0211 1.01934ZM6.44132 10.2674C6.36227 10.465 6.20419 10.6626 6.00658 10.7811C5.80897 10.8997 5.57184 10.9788 5.33471 10.9788C5.01854 10.9788 4.70237 10.8602 4.46524 10.6231C4.22811 10.3859 4.10955 10.1093 4.10955 9.79311C4.10955 9.55598 4.18859 9.31885 4.30716 9.12124C4.42572 8.92364 4.62333 8.76555 4.86046 8.68651C5.09759 8.60746 5.33471 8.56794 5.57184 8.60746C5.80897 8.64698 6.00658 8.76555 6.20419 8.92364C6.36227 9.08172 6.48084 9.27933 6.52036 9.51646C6.55988 9.83263 6.52036 10.0698 6.44132 10.2674ZM16.1241 10.2674C16.045 10.465 15.887 10.6626 15.6893 10.7811C15.4917 10.8997 15.2546 10.9788 15.0175 10.9788C14.8594 10.9788 14.7013 10.9392 14.5432 10.8997C14.3851 10.8602 14.2666 10.7416 14.148 10.6626C14.0294 10.544 13.9504 10.4255 13.8714 10.2674C13.7923 10.1093 13.7923 9.99072 13.7923 9.83263C13.7923 9.5955 13.8714 9.35837 13.9899 9.20028C14.1085 9.00268 14.3061 8.84459 14.5432 8.76555C14.7804 8.68651 15.0175 8.64698 15.2546 8.68651C15.4917 8.72603 15.6893 8.84459 15.887 9.00268C16.045 9.16076 16.1636 9.35837 16.2031 9.5955C16.2426 9.83263 16.2031 10.0698 16.1241 10.2674ZM15.0175 4.53675C14.8594 4.53675 14.7013 4.45771 14.5827 4.37866C14.4642 4.29962 14.3851 4.10201 14.3851 3.94393V2.20498C14.3851 2.04689 14.4642 1.88881 14.5827 1.80977C14.7013 1.6912 14.8594 1.65168 15.0175 1.65168H16.8355C17.1516 1.65168 17.2702 1.96785 17.4283 2.2445L18.6535 4.57627H15.0175V4.53675Z" fill="white"/>
</svg>
