<svg width="55" height="53" viewBox="0 0 55 53" fill="none" xmlns="http://www.w3.org/2000/svg">
<ellipse cx="27.5" cy="26.5" rx="27.5" ry="26.5" fill="#C7C9C7"/>
<path d="M41.4085 17.8274C41.0826 17.185 40.4959 16.8638 39.3878 16.8638H35.4115C35.1508 16.8638 34.89 16.928 34.6293 16.9923C34.3685 17.0565 34.173 17.2492 33.9774 17.3777C33.7819 17.5062 33.6515 17.7632 33.5211 18.0201C33.3908 18.2771 33.3907 18.4698 33.3907 18.7268V27.271H32.8041H24.6559H24.33H17.4204H13.4441C13.3137 27.271 13.1833 27.271 13.053 27.3353C12.9226 27.3995 12.7922 27.4638 12.727 27.528C12.6619 27.5923 12.5315 27.7207 12.5315 27.8492C12.4663 28.1062 12.4663 28.1704 12.4663 28.2989V31.1256C12.4663 31.3826 12.5967 31.6395 12.727 31.8323C12.9226 32.025 13.1833 32.0892 13.4441 32.0892H16.4426C16.4426 33.1171 16.8337 34.0807 17.6159 34.7874C18.3982 35.4941 19.3759 35.8795 20.4189 35.8795C21.4619 35.8795 22.5048 35.4941 23.2219 34.7874C24.0041 34.0807 24.3952 33.1171 24.3952 32.0892H32.413C32.413 33.1171 32.8041 34.0807 33.5863 34.7874C34.3685 35.4941 35.3463 35.8795 36.3893 35.8795C37.4322 35.8795 38.4752 35.4941 39.1922 34.7874C39.9745 34.0807 40.3656 33.1171 40.3656 32.0892H43.3641C43.6248 32.0892 43.8856 31.9607 44.0811 31.8323C44.2767 31.6395 44.3419 31.3826 44.3419 31.1256V29.1983V26.3716V23.545L41.4085 17.8274ZM22.3093 32.8601C22.1789 33.1813 21.9182 33.5026 21.5922 33.6953C21.2663 33.888 20.8752 34.0165 20.4841 34.0165C19.9626 34.0165 19.4411 33.8238 19.05 33.4383C18.6589 33.0529 18.4633 32.6032 18.4633 32.0892C18.4633 31.7038 18.5937 31.3183 18.7893 30.9971C18.9848 30.6759 19.3108 30.4189 19.7019 30.2904C20.093 30.162 20.4841 30.0977 20.8752 30.162C21.2663 30.2262 21.5922 30.4189 21.9182 30.6759C22.1789 30.9329 22.3745 31.2541 22.4396 31.6395C22.5048 32.1535 22.4396 32.5389 22.3093 32.8601ZM38.2796 32.8601C38.1493 33.1813 37.8885 33.5026 37.5626 33.6953C37.2367 33.888 36.8456 34.0165 36.4545 34.0165C36.1937 34.0165 35.933 33.9523 35.6722 33.888C35.4115 33.8238 35.2159 33.631 35.0204 33.5026C34.8248 33.3098 34.6945 33.1171 34.5641 32.8601C34.4337 32.6032 34.4337 32.4104 34.4337 32.1535C34.4337 31.768 34.5641 31.3826 34.7596 31.1256C34.9552 30.8044 35.2811 30.5474 35.6722 30.4189C36.0633 30.2904 36.4545 30.2262 36.8456 30.2904C37.2367 30.3547 37.5626 30.5474 37.8885 30.8044C38.1493 31.0613 38.3448 31.3826 38.41 31.768C38.4752 32.1535 38.41 32.5389 38.2796 32.8601ZM36.4545 23.545C36.1937 23.545 35.933 23.4165 35.7374 23.288C35.5419 23.1595 35.4115 22.8383 35.4115 22.5813V19.7547C35.4115 19.4977 35.5419 19.2407 35.7374 19.1123C35.933 18.9195 36.1937 18.8553 36.4545 18.8553H39.453C39.9745 18.8553 40.17 19.3692 40.4307 19.8189L42.4515 23.6092H36.4545V23.545Z" fill="#071D49"/>
</svg>
