<svg width="31" height="31" viewBox="0 0 31 31" fill="none" xmlns="http://www.w3.org/2000/svg">
<g filter="url(#filter0_d_2825_36845)">
<path d="M13.5 26C19.8513 26 25 20.8513 25 14.5C25 8.14873 19.8513 3 13.5 3C7.14873 3 2 8.14873 2 14.5C2 20.8513 7.14873 26 13.5 26Z" fill="#F0B323"/>
</g>
<path d="M20.5689 16.8637C20.5915 16.7507 20.59 16.6343 20.5644 16.5219C20.5389 16.4095 20.4899 16.3038 20.4207 16.2117C20.3521 16.121 20.2652 16.0458 20.1656 15.991C20.0661 15.9361 19.9561 15.9027 19.8428 15.8931C19.6375 15.8832 19.4357 15.9491 19.2759 16.0783C19.1123 16.2051 19.0024 16.389 18.9684 16.5933C18.6785 18.0251 17.902 19.3125 16.7709 20.237C15.6398 21.1615 14.2236 21.6661 12.7627 21.6653C12.6034 21.6653 12.4404 21.6653 12.2848 21.6653H12.2255C12.1185 21.6614 12.0117 21.6786 11.9113 21.716C11.811 21.7534 11.7189 21.8101 11.6405 21.8831C11.4821 22.0304 11.3886 22.2346 11.3808 22.4507C11.3729 22.6669 11.4513 22.8773 11.5986 23.0358C11.7459 23.1942 11.9501 23.2876 12.1662 23.2955C12.3589 23.2955 12.5626 23.2955 12.7627 23.2955C14.6068 23.2933 16.3931 22.6513 17.8166 21.479C19.2402 20.3068 20.213 18.6769 20.5689 16.8675V16.8637Z" fill="#071D49"/>
<path d="M20.4244 7.33835C20.4256 7.2244 20.4026 7.1115 20.357 7.00707C20.3115 6.90263 20.2443 6.80902 20.16 6.73239C20.0756 6.65576 19.976 6.59783 19.8677 6.56243C19.7594 6.52703 19.6448 6.51495 19.5315 6.52697C19.327 6.55401 19.1397 6.65558 19.0054 6.81224C18.8683 6.97032 18.7944 7.17354 18.798 7.3828V9.891L18.3015 9.35381C17.4547 8.43862 16.4047 7.73519 15.2362 7.30024C14.0677 6.8653 12.8133 6.711 11.5743 6.8498C10.3352 6.98859 9.14602 7.41661 8.1027 8.09932C7.05937 8.78202 6.19107 9.70032 5.56777 10.7802C5.49723 10.9039 5.46032 11.0438 5.4607 11.1862C5.46108 11.3286 5.49874 11.4684 5.56994 11.5917C5.64114 11.7149 5.74339 11.8174 5.86651 11.8889C5.98963 11.9604 6.12934 11.9984 6.27171 11.9991C6.42 11.9976 6.5654 11.958 6.69405 11.8842C6.81956 11.8101 6.92315 11.704 6.99417 11.5767C7.49089 10.7232 8.18039 9.99763 9.00757 9.4581C9.83475 8.91858 10.7767 8.58003 11.758 8.46951C12.7394 8.35899 13.733 8.47956 14.6595 8.82159C15.586 9.16363 16.4196 9.71764 17.0937 10.4393L17.5457 10.921H15.2412C15.0371 10.9213 14.8399 10.995 14.6855 11.1284C14.5273 11.2645 14.4255 11.4548 14.4003 11.662C14.39 11.7743 14.4032 11.8875 14.4391 11.9944C14.475 12.1013 14.5328 12.1995 14.6088 12.2828C14.6848 12.3662 14.7773 12.4327 14.8805 12.4783C14.9836 12.5238 15.0951 12.5474 15.2079 12.5474H18.5127C19.0197 12.5474 19.506 12.346 19.8645 11.9875C20.223 11.629 20.4244 11.1427 20.4244 10.6357V7.33835Z" fill="#071D49"/>
<path d="M9.96918 11.3213C9.49346 11.3213 9.02843 11.4624 8.63294 11.7268C8.23744 11.9911 7.92925 12.3669 7.74737 12.8065C7.56549 13.246 7.51809 13.7297 7.61117 14.1962C7.70425 14.6627 7.93363 15.0912 8.27027 15.4273C8.60691 15.7634 9.03569 15.9921 9.50236 16.0845C9.96902 16.1769 10.4526 16.1287 10.8919 15.9461C11.3312 15.7636 11.7065 15.4548 11.9702 15.0589C12.234 14.663 12.3744 14.1978 12.3737 13.7221C12.3727 13.085 12.1189 12.4744 11.6681 12.0242C11.2173 11.5741 10.6062 11.3213 9.96918 11.3213ZM11.0547 13.7221C11.0554 13.9369 10.9924 14.1472 10.8736 14.3262C10.7547 14.5052 10.5855 14.6449 10.3872 14.7276C10.1889 14.8103 9.97051 14.8323 9.75969 14.7909C9.54888 14.7494 9.3551 14.6463 9.20292 14.4947C9.05073 14.343 8.94698 14.1496 8.90479 13.9389C8.8626 13.7282 8.88388 13.5098 8.96593 13.3112C9.04799 13.1126 9.18711 12.9429 9.36571 12.8234C9.5443 12.704 9.75432 12.6402 9.96918 12.6402C10.2564 12.6402 10.532 12.7541 10.7355 12.9569C10.9389 13.1596 11.0537 13.4348 11.0547 13.7221Z" fill="#071D49"/>
<path d="M11.403 16.3042H8.5391C7.87123 16.3052 7.231 16.5709 6.75874 17.0432C6.28649 17.5154 6.02076 18.1557 6.01978 18.8235V19.6905C6.01977 19.8647 6.08873 20.0319 6.2116 20.1555C6.33448 20.2791 6.50127 20.349 6.67553 20.35H13.2666C13.4408 20.349 13.6076 20.2791 13.7305 20.1555C13.8534 20.0319 13.9223 19.8647 13.9223 19.6905V18.8235C13.9213 18.1557 13.6556 17.5154 13.1833 17.0432C12.7111 16.5709 12.0708 16.3052 11.403 16.3042ZM12.6034 18.8235V19.031H7.33501V18.8235C7.33599 18.5045 7.46317 18.1988 7.68877 17.9732C7.91436 17.7476 8.22006 17.6204 8.5391 17.6195H11.403C11.7217 17.6204 12.027 17.7477 12.252 17.9734C12.477 18.1991 12.6034 18.5048 12.6034 18.8235Z" fill="#071D49"/>
<defs>
<filter id="filter0_d_2825_36845" x="0.31" y="0.46" width="29.78" height="29.78" filterUnits="userSpaceOnUse" color-interpolation-filters="sRGB">
<feFlood flood-opacity="0" result="BackgroundImageFix"/>
<feColorMatrix in="SourceAlpha" type="matrix" values="0 0 0 0 0 0 0 0 0 0 0 0 0 0 0 0 0 0 127 0" result="hardAlpha"/>
<feOffset dx="1.7" dy="0.85"/>
<feGaussianBlur stdDeviation="1.695"/>
<feComposite in2="hardAlpha" operator="out"/>
<feColorMatrix type="matrix" values="0 0 0 0 0 0 0 0 0 0 0 0 0 0 0 0 0 0 0.25 0"/>
<feBlend mode="normal" in2="BackgroundImageFix" result="effect1_dropShadow_2825_36845"/>
<feBlend mode="normal" in="SourceGraphic" in2="effect1_dropShadow_2825_36845" result="shape"/>
</filter>
</defs>
</svg>
