<svg width="30" height="30" viewBox="0 0 30 30" fill="none" xmlns="http://www.w3.org/2000/svg">
<circle cx="15.3677" cy="15.1226" r="14.1226" fill="#002C6A" stroke="#EFEFEF" stroke-width="0.863973"/>
<path d="M8.48734 14.9348C8.48734 15.2454 8.61104 15.5217 8.8137 15.7244C9.01635 15.927 9.29534 16.0534 9.60327 16.0507L14.4407 16.0507L14.4407 20.8882C14.4407 21.1988 14.5644 21.4751 14.7671 21.6778C14.9697 21.8804 15.2487 22.0068 15.5567 22.0041C16.1725 22.0041 16.6726 21.5041 16.6726 20.8882L16.6726 16.0507L21.51 16.0507C22.1259 16.0507 22.626 15.5507 22.626 14.9348C22.626 14.3189 22.1259 13.8189 21.51 13.8189L16.6726 13.8189L16.6726 8.98142C16.6726 8.36555 16.1725 7.86549 15.5567 7.86549C14.9408 7.86549 14.4407 8.36555 14.4407 8.98142L14.4407 13.8189L9.60327 13.8189C8.98477 13.8162 8.48471 14.3163 8.48734 14.9348Z" fill="white" stroke="white" stroke-width="0.129596"/>
</svg>
