<svg width="32" height="28" viewBox="0 0 32 28" fill="none" xmlns="http://www.w3.org/2000/svg">
<path d="M30.4561 21.5609L19.3705 2.72502C18.6452 1.52826 17.402 0.799805 16.0033 0.799805C14.6047 0.799805 13.3614 1.52826 12.6362 2.72502L1.55058 21.5609C0.825348 22.7577 0.825348 24.2666 1.49877 25.4634C2.224 26.7122 3.46725 27.4406 4.8659 27.4406H27.089C28.4876 27.4406 29.7827 26.7122 30.4561 25.4634C31.1813 24.2666 31.1813 22.7577 30.4561 21.5609ZM29.161 24.6829C28.7466 25.4113 27.9696 25.8796 27.1408 25.8796H4.8659C4.03707 25.8796 3.26004 25.4634 2.84563 24.6829C2.43121 23.9544 2.43121 23.0699 2.84563 22.3414L13.983 3.50551C14.3975 2.77705 15.1745 2.36079 16.0033 2.36079C16.8322 2.36079 17.6092 2.77705 18.0236 3.50551L29.161 22.3414C29.5754 23.0699 29.5754 23.9544 29.161 24.6829Z" fill="#FF6A13" stroke="#FF6A13" stroke-width="0.5"/>
<path d="M16.0033 22.8616C16.5731 22.8616 17.0394 22.3934 17.0394 21.821V13.4957C17.0394 12.9234 16.5731 12.4551 16.0033 12.4551C15.4335 12.4551 14.9673 12.9234 14.9673 13.4957V21.821C14.9673 22.3934 15.4335 22.8616 16.0033 22.8616Z" fill="#FF6A13" stroke="#FF6A13" stroke-width="0.5"/>
<path d="M16.0033 10.5821C16.5731 10.5821 17.0394 10.1138 17.0394 9.54145V9.02113C17.0394 8.44876 16.5731 7.98047 16.0033 7.98047C15.4335 7.98047 14.9673 8.44876 14.9673 9.02113V9.54145C14.9673 10.1658 15.4335 10.5821 16.0033 10.5821Z" fill="#FF6A13" stroke="#FF6A13" stroke-width="0.5"/>
</svg>
