<svg xmlns="http://www.w3.org/2000/svg" viewBox="0 0 32.75 29.13"><defs><style>.cls-1{fill:#fff;}</style></defs><g id="Capa_2" data-name="Capa 2"><g id="Capa_1-2" data-name="Capa 1"><path class="cls-1" d="M32.14,26.89a4.26,4.26,0,0,0,0-4.4h0l-12-20.31L20,2.28h0l.17-.11h0a4.41,4.41,0,0,0-7.6,0h0L.62,22.48h0a4.38,4.38,0,0,0-.06,4.4l.18-.1h0l-.18.1h0a4.37,4.37,0,0,0,3.81,2.24h24a4.27,4.27,0,0,0,3.8-2.23h0ZM2.19,26l.17-.1a2.34,2.34,0,0,1,0-2.32h0l12-20.31-.17-.1h0l.17.1h0a2.33,2.33,0,0,1,4,0h0l.17-.1h0l-.18.1,12,20.31h0a2.34,2.34,0,0,1,0,2.32,2.31,2.31,0,0,1-2,1.19h-24a2.21,2.21,0,0,1-2-1.18l-.12.06.12-.06h0l-.17.1Zm0-2.52Zm28.38,0h0ZM32,22.59Z"/><path class="cls-1" d="M16.38,24.19a1.32,1.32,0,0,0,1.31-1.32v-9a1.32,1.32,0,1,0-2.63,0v9A1.33,1.33,0,0,0,16.38,24.19Z"/><path class="cls-1" d="M16.38,11a1.32,1.32,0,0,0,1.31-1.32V9.06a1.32,1.32,0,1,0-2.63,0v.57A1.29,1.29,0,0,0,16.38,11Z"/></g></g></svg>