<svg width="15" height="18" viewBox="0 0 15 18" fill="none" xmlns="http://www.w3.org/2000/svg">
<path fill-rule="evenodd" clip-rule="evenodd" d="M1.52987 2.3918H13.5814L14.1434 0.45561C14.1746 0.371428 14.1434 0.287245 14.0809 0.203063C14.0185 0.146942 13.9248 0.0908203 13.8312 0.0908203H1.2801C1.18643 0.0908203 1.09277 0.118881 1.03033 0.203063C0.967882 0.259185 0.93666 0.371428 0.967882 0.45561L1.52987 2.3918ZM13.5501 15.5524H13.4877H1.5298L0.967815 17.4885C0.936593 17.5727 0.967815 17.6569 1.03026 17.7411C1.0927 17.7972 1.18637 17.8533 1.28003 17.8533H13.7999C13.8935 17.8533 13.9872 17.8253 14.0497 17.7411C14.1121 17.685 14.1121 17.5727 14.1121 17.4885L13.5501 15.5524ZM1.56105 2.95315H13.5501C14.2995 6.96583 14.2995 11.0066 13.5189 15.0192H13.4877H1.56105C0.780509 11.0066 0.780509 6.96583 1.56105 2.95315ZM3.05968 11.2311H12.2388V10.6698H3.05968V11.2311ZM3.05968 9.1265H12.2388V8.56529H3.05968V9.1265ZM3.05968 7.02195H12.2388V6.46073H3.05968V7.02195Z" fill="#071D49"/>
</svg>
