<svg width="39" height="39" viewBox="0 0 39 39" fill="none" xmlns="http://www.w3.org/2000/svg">
<ellipse cx="19.5001" cy="19.0668" rx="19.5001" ry="19.0668" fill="#071D49"/>
<path fill-rule="evenodd" clip-rule="evenodd" d="M13.2012 11.4978H27.1274L27.7768 9.31012C27.8129 9.215 27.7768 9.11989 27.7047 9.02477C27.6325 8.96136 27.5243 8.89795 27.4161 8.89795H12.9125C12.8043 8.89795 12.6961 8.92965 12.6239 9.02477C12.5518 9.08818 12.5157 9.215 12.5518 9.31012L13.2012 11.4978ZM27.0914 26.3676H27.0192H13.2012L12.5518 28.5552C12.5157 28.6503 12.5518 28.7455 12.6239 28.8406C12.6961 28.904 12.8043 28.9674 12.9125 28.9674H27.38C27.4882 28.9674 27.5965 28.9357 27.6686 28.8406C27.7408 28.7772 27.7408 28.6503 27.7408 28.5552L27.0914 26.3676ZM13.2372 12.1319H27.0914C27.9572 16.6657 27.9572 21.2313 27.0553 25.7652H27.0192H13.2372C12.3353 21.2313 12.3353 16.6657 13.2372 12.1319ZM14.969 21.4849H25.5761V20.8508H14.969V21.4849ZM14.969 19.107H25.5761V18.4729H14.969V19.107ZM14.969 16.7292H25.5761V16.095H14.969V16.7292Z" fill="white"/>
</svg>
