<svg width="24" height="31" viewBox="0 0 24 31" fill="none" xmlns="http://www.w3.org/2000/svg">
<path fill-rule="evenodd" clip-rule="evenodd" d="M1.68605 4.43193H22.5438L23.5164 1.1554C23.5705 1.01294 23.5164 0.870487 23.4084 0.728029C23.3003 0.633058 23.1382 0.538086 22.9761 0.538086H1.25376C1.09166 0.538086 0.929549 0.585572 0.821478 0.728029C0.713407 0.823001 0.659371 1.01294 0.713407 1.1554L1.68605 4.43193ZM22.4897 26.7029H22.3816H1.68598L0.713337 29.9794C0.659302 30.1219 0.713337 30.2643 0.821408 30.4068C0.92948 30.5018 1.09159 30.5967 1.25369 30.5967H22.922C23.0841 30.5967 23.2462 30.5493 23.3543 30.4068C23.4623 30.3118 23.4623 30.1219 23.4623 29.9794L22.4897 26.7029ZM1.73999 5.38185H22.4897C23.7865 12.1723 23.7865 19.0103 22.4356 25.8008H22.3816H1.73999C0.389098 19.0103 0.389098 12.1723 1.73999 5.38185ZM4.3337 19.3902H20.2202V18.4405H4.3337V19.3902ZM4.3337 15.8287H20.2202V14.879H4.3337V15.8287ZM4.3337 12.2673H20.2202V11.3176H4.3337V12.2673Z" fill="#00C389"/>
</svg>
