<svg width="21" height="21" viewBox="0 0 21 21" fill="none" xmlns="http://www.w3.org/2000/svg">
<path d="M10.4999 20.8503C15.9597 20.8503 20.3999 16.4101 20.3999 10.9503C20.3999 5.49044 15.9597 1.05029 10.4999 1.05029C5.04 1.05029 0.599854 5.49044 0.599854 10.9503C0.599854 16.4101 5.04 20.8503 10.4999 20.8503ZM10.4999 2.53529C15.1405 2.53529 18.9149 6.30967 18.9149 10.9503C18.9149 15.5909 15.1405 19.3653 10.4999 19.3653C5.85923 19.3653 2.08485 15.5909 2.08485 10.9503C2.08485 6.30967 5.85923 2.53529 10.4999 2.53529Z" fill="#FF6A13" stroke="#FF6A13" stroke-width="0.3"/>
<path d="M7.17607 14.2742C7.32209 14.4202 7.51019 14.492 7.70077 14.492C7.89134 14.492 8.08192 14.4202 8.22547 14.2742L10.5 11.9997L12.7745 14.2742C12.9205 14.4202 13.1086 14.492 13.2992 14.492C13.4898 14.492 13.6804 14.4202 13.8239 14.2742C14.1135 13.9846 14.1135 13.5144 13.8239 13.2248L11.5494 10.9503L13.8239 8.67576C14.1135 8.38619 14.1135 7.91594 13.8239 7.62636C13.5343 7.33679 13.0641 7.33679 12.7745 7.62636L10.5 9.90089L8.22547 7.62636C7.93589 7.33679 7.46564 7.33679 7.17607 7.62636C6.88649 7.91594 6.88649 8.38619 7.17607 8.67576L9.45059 10.9503L7.17607 13.2248C6.88402 13.5144 6.88402 13.9846 7.17607 14.2742Z" fill="#FF6A13" stroke="#FF6A13" stroke-width="0.3"/>
</svg>
