<svg width="40" height="39" viewBox="0 0 40 39" fill="none" xmlns="http://www.w3.org/2000/svg">
<ellipse cx="20.2013" cy="19.0668" rx="19.5001" ry="19.0668" fill="#071D49"/>
<path d="M8.78159 26.2558L19.4869 7.23017C19.6947 6.96592 20.1105 6.96592 20.3184 7.23017L31.6472 26.2558C31.7512 26.4144 31.8031 26.6258 31.6992 26.8372C31.5953 26.9957 31.4394 27.1014 31.2315 27.1014H9.14536C8.93749 27.1014 8.78159 26.9957 8.67766 26.7843C8.62569 26.6258 8.62569 26.4144 8.78159 26.2558ZM22.501 14.9461H21.4616V16.0031H22.501V14.9461ZM25.0993 18.6456H24.06V19.7026H25.0993V18.6456ZM23.5403 24.459H24.5797V23.402H23.5403V24.459ZM21.4616 22.8735H22.501V21.8165H21.4616V22.8735ZM20.4223 19.7026H21.4616V18.6456H20.4223V19.7026ZM19.3829 12.8322H20.4223V11.7752H19.3829V12.8322ZM18.8633 15.4746H17.8239V16.5316H18.8633V15.4746ZM16.7846 23.402H17.8239V22.345H16.7846V23.402ZM16.2649 19.7026H17.3042V18.6456H16.2649V19.7026ZM13.1469 24.9875H14.1862V23.9305H13.1469V24.9875Z" fill="white"/>
</svg>
