<svg width="181" height="157" viewBox="0 0 181 157" fill="none" xmlns="http://www.w3.org/2000/svg">
<path d="M179.157 149.628L95.8326 1.54256C94.2147 -0.514186 90.9788 -0.514186 89.3608 1.54256L1.18285 149.628C0.373875 150.862 -0.0306113 152.508 0.778361 154.153C1.58733 155.387 2.80079 156.21 4.41874 156.21H176.325C177.943 156.21 179.157 155.387 179.966 153.742C180.37 152.508 180.37 150.862 179.157 149.628ZM72.3724 61.5995H80.4621V69.8265H72.3724V61.5995ZM52.1481 90.3939H60.2378V98.6209H52.1481V90.3939ZM64.2827 135.642H56.193V127.415H64.2827V135.642ZM80.4621 123.302H72.3724V115.075H80.4621V123.302ZM88.5519 98.6209H80.4621V90.3939H88.5519V98.6209ZM96.6416 45.1456H88.5519V36.9186H96.6416V45.1456ZM100.686 65.713H108.776V73.94H100.686V65.713ZM116.866 127.415H108.776V119.188H116.866V127.415ZM120.911 98.6209H112.821V90.3939H120.911V98.6209ZM145.18 139.756H137.09V131.529H145.18V139.756Z" fill="#121C4D"/>
</svg>
