<svg width="50" height="27" viewBox="0 0 50 27" fill="none" xmlns="http://www.w3.org/2000/svg">
<path d="M49.6531 11.9225C49.6531 11.6011 49.55 11.2175 49.3542 10.9686C46.7771 7.4745 44.1794 3.99072 41.561 0.527691C41.3652 0.268482 40.9734 0.0300112 40.6642 0.0300112C38.0355 -0.0114622 35.4069 -0.00109515 32.7782 0.00927321C32.1288 0.00927321 31.7371 0.434379 31.6855 1.08759C31.6649 1.32606 31.6752 1.5749 31.6752 1.81337C31.6752 7.20492 31.6752 12.5965 31.6752 17.988C31.6752 18.1746 31.6752 18.3509 31.6752 18.5168C31.201 18.6723 31.1907 18.4235 31.1907 18.1332C31.1907 16.2876 31.1907 14.4317 31.1907 12.5861C31.1907 10.5643 31.1907 8.54244 31.1804 6.5206C31.1804 5.80519 30.7165 5.31788 30.098 5.31788C29.4898 5.31788 29.0569 5.81556 29.0569 6.54134C29.0569 7.68186 29.0569 8.82238 29.0569 9.9629C29.0569 10.1806 29.0569 10.388 29.0569 10.6472C28.7786 10.6472 28.593 10.6472 28.4075 10.6472C23.1295 10.6472 17.8619 10.6472 12.584 10.6472C8.82144 10.6472 5.05886 10.6472 1.29629 10.6472C0.461302 10.6472 0.0180398 11.0308 0.00773132 11.7877C-0.00257711 14.4006 -0.00257711 17.003 0.00773132 19.6158C0.00773132 20.3209 0.450994 20.7253 1.15197 20.7356C1.64677 20.746 2.13127 20.7356 2.63638 20.7356C2.69823 23.1618 3.72908 24.9037 5.9557 25.7228C8.17201 26.5419 10.0894 25.868 11.646 24.1365C13.2231 25.8058 14.9859 26.4279 16.8723 25.8783C19.3463 25.1526 20.5421 23.3692 20.6658 20.7771C23.4697 20.7771 26.2427 20.7771 29.0672 20.7771C29.0672 21.2748 29.0672 21.7517 29.0672 22.239C29.0775 22.913 29.5105 23.4003 30.1187 23.4003C30.6959 23.4107 31.1495 22.9545 31.1907 22.3013C31.2113 21.9073 31.2113 21.5029 31.1907 21.1089C31.1804 20.7771 31.3041 20.6631 31.6752 20.7978C31.6752 21.2644 31.6649 21.7206 31.6752 22.1665C31.6855 22.9856 32.1185 23.4003 32.9225 23.4107C33.4174 23.4107 33.9225 23.4314 34.4173 23.4107C34.7781 23.3899 34.9945 23.504 35.2007 23.8254C37.1181 26.7804 41.5507 26.7908 43.4784 23.8461C43.7052 23.504 43.9216 23.4107 44.3031 23.4107C45.6638 23.4314 47.0142 23.421 48.3749 23.421C49.2305 23.421 49.6531 23.0063 49.6531 22.1561C49.6738 18.7345 49.6738 15.3337 49.6531 11.9225ZM2.20343 12.8038C11.1408 12.8038 20.0782 12.8038 29.026 12.8038C29.026 13.1564 29.026 13.4674 29.026 13.7992C20.0679 13.7992 11.1511 13.7992 2.20343 13.7992C2.20343 13.4674 2.20343 13.146 2.20343 12.8038ZM2.20343 18.5479C2.20343 18.2369 2.20343 17.9258 2.20343 17.5836C2.76008 17.5836 3.30643 17.5836 3.87339 17.5836C3.49198 18.5583 3.32705 18.6516 2.20343 18.5479ZM7.68751 23.9084C6.0897 23.8876 4.81146 22.6019 4.81146 21.0052C4.80115 19.3877 6.05878 18.1021 7.66689 18.0917C9.27501 18.0813 10.5842 19.3877 10.5842 21.0052C10.5842 22.5708 9.23378 23.9291 7.68751 23.9084ZM15.6044 23.9084C14.0375 23.9187 12.7077 22.5916 12.7077 21.0156C12.7077 19.3981 14.0169 18.0917 15.625 18.1021C17.2331 18.1124 18.4907 19.3981 18.4804 21.0052C18.4701 22.6123 17.2022 23.898 15.6044 23.9084ZM18.6969 16.4639C18.2124 16.4639 17.7176 16.3602 17.2537 16.215C15.3364 15.624 13.6355 15.9869 12.1511 17.3452C11.9861 17.4903 11.8315 17.6562 11.7181 17.7807C11.1202 17.3452 10.5739 16.8371 9.93475 16.495C8.67712 15.821 7.35764 15.7796 5.99693 16.2461C5.58459 16.3809 5.14133 16.4535 4.70838 16.4742C3.8837 16.5053 3.06934 16.4846 2.20343 16.4846C2.20343 15.9662 2.20343 15.4789 2.20343 14.9501C11.1408 14.9501 20.0679 14.9501 29.0569 14.9501C29.0569 15.4685 29.0569 15.9454 29.0569 16.4846C28.8507 16.4846 28.6755 16.4846 28.4899 16.4846C25.2118 16.4742 21.9544 16.4846 18.6969 16.4639ZM29.0466 18.5479C28.8816 18.5583 28.7373 18.5894 28.593 18.5894C26.0365 18.6101 23.48 18.6101 20.9338 18.6516C20.3566 18.662 19.903 18.5894 19.6556 17.9984C19.6041 17.8636 19.4907 17.7599 19.3567 17.5836C22.6244 17.5836 25.82 17.5836 29.0569 17.5836C29.0466 17.9258 29.0466 18.2161 29.0466 18.5479ZM39.3653 23.9084C37.7572 23.9187 36.4583 22.5708 36.479 20.9119C36.4996 19.3463 37.7984 18.0813 39.3756 18.0917C40.9631 18.1021 42.262 19.4085 42.262 20.9948C42.262 22.5605 40.9219 23.898 39.3653 23.9084ZM47.4884 21.2333C47.1585 21.2333 46.8595 21.2333 46.5297 21.2333C46.5297 19.1389 46.5297 17.0445 46.5297 14.9294C46.8389 14.9294 47.1379 14.9294 47.4884 14.9294C47.4884 17.0134 47.4884 19.1078 47.4884 21.2333ZM47.5296 12.9179C47.4987 13.1875 47.5193 13.4674 47.5193 13.7992C47.076 13.7992 46.6637 13.7992 46.2617 13.7992C45.571 13.7992 45.4164 13.9651 45.4061 14.6494C45.4061 16.6194 45.4061 18.5894 45.4061 20.5594C45.4061 20.7667 45.4061 20.9637 45.4061 21.2126C45.0556 21.2126 44.7566 21.2126 44.3958 21.2126C44.3649 19.3981 43.6846 17.8843 42.1589 16.8164C41.1487 16.1113 40.0044 15.8418 38.788 15.9662C36.6645 16.1943 34.3451 17.9258 34.2936 21.2022C34.1596 21.2126 34.0152 21.2333 33.8297 21.2437C33.8297 14.8775 33.8297 8.5528 33.8297 2.14515C35.5203 2.14515 37.1902 2.21773 38.8499 2.11405C39.8292 2.06221 40.3755 2.40436 40.9322 3.18199C42.9114 5.93997 44.9628 8.64612 47.0039 11.3523C47.3853 11.8499 47.6018 12.3165 47.5296 12.9179Z" fill="#071D49"/>
<path d="M38.551 3.56581C38.417 3.37918 38.1078 3.23403 37.881 3.21329C37.1284 3.17182 36.3759 3.19255 35.6131 3.20292C35.0255 3.20292 34.8606 3.36881 34.8503 3.98054C34.8503 5.58764 34.84 7.19474 34.8503 8.80183C34.8503 9.42394 35.0255 9.6002 35.644 9.61056C36.6233 9.62093 37.6026 9.61056 38.5819 9.61056C39.5819 9.61056 40.5715 9.6313 41.5714 9.6002C41.8085 9.58983 42.128 9.45504 42.2414 9.27878C42.3342 9.13362 42.2311 8.7811 42.1074 8.59447C40.9426 6.89405 39.7571 5.22475 38.551 3.56581ZM35.9842 8.44931C35.9842 7.10143 35.9842 5.7328 35.9842 4.28123C36.5306 4.28123 37.0357 4.27086 37.5511 4.2916C37.6748 4.30196 37.8397 4.40565 37.9119 4.5197C38.8293 5.80538 39.7468 7.10143 40.6952 8.44931C39.118 8.44931 37.5717 8.44931 35.9842 8.44931Z" fill="#071D49"/>
<path d="M37.9737 11.1758C37.5613 11.1758 37.149 11.1758 36.7367 11.1758C36.3037 11.1758 35.8811 11.1758 35.4481 11.1758C35.0976 11.1758 34.8708 11.352 34.8708 11.6942C34.8708 12.0364 35.0873 12.2334 35.4378 12.2334C36.2934 12.2334 37.1593 12.2334 38.0149 12.2334C38.3654 12.2334 38.5716 12.0467 38.5613 11.6942C38.5406 11.3106 38.3139 11.1758 37.9737 11.1758Z" fill="#071D49"/>
<path d="M39.3346 19.1388C38.3141 19.1491 37.51 19.9579 37.51 20.9843C37.51 22.0315 38.3347 22.8817 39.3552 22.8817C40.3654 22.8817 41.221 22.0108 41.221 20.9947C41.221 19.9682 40.3654 19.1284 39.3346 19.1388ZM40.118 21.0673C40.0871 21.5131 39.716 21.8138 39.2728 21.7723C38.8707 21.7309 38.5409 21.3472 38.5718 20.9532C38.6027 20.5281 38.9944 20.1756 39.4171 20.2067C39.8397 20.2378 40.149 20.6214 40.118 21.0673Z" fill="#071D49"/>
<path d="M15.6147 19.1284C14.5839 19.1284 13.7386 19.9683 13.7489 20.9947C13.7592 22.0108 14.6354 22.8818 15.6353 22.861C16.6455 22.8403 17.4496 22.0212 17.4599 21.0051C17.4599 19.9683 16.6455 19.1388 15.6147 19.1284ZM15.5941 21.762C15.1508 21.7516 14.821 21.4095 14.8416 20.9532C14.8519 20.5385 15.2024 20.1964 15.6044 20.1964C16.027 20.186 16.3981 20.5592 16.3981 20.9844C16.3878 21.4198 16.027 21.7723 15.5941 21.762Z" fill="#071D49"/>
<path d="M7.7082 19.1284C6.65674 19.1284 5.85269 19.9372 5.84238 20.9947C5.83207 22.0212 6.68767 22.8818 7.7082 22.8714C8.70812 22.861 9.5328 22.0316 9.56372 21.0258C9.57403 19.9994 8.72874 19.1284 7.7082 19.1284ZM7.66697 21.762C7.23401 21.7516 6.89384 21.3991 6.90415 20.974C6.91446 20.5489 7.28556 20.1964 7.6979 20.2067C8.12054 20.2171 8.46072 20.5696 8.45041 21.0155C8.45041 21.4509 8.11023 21.7827 7.66697 21.762Z" fill="#071D49"/>
</svg>
