<svg width="87" height="27" viewBox="0 0 87 27" fill="none" xmlns="http://www.w3.org/2000/svg">
<path d="M86.0135 11.9225C86.0135 11.6011 85.9105 11.2175 85.7146 10.9686C83.1375 7.47449 80.5398 3.99073 77.9214 0.527694C77.7256 0.268485 77.3338 0.0300075 77.0246 0.0300075C74.3959 -0.0114659 71.7673 -0.00109248 69.1386 0.00927588C68.4892 0.00927588 68.0975 0.434369 68.0459 1.08758C68.0253 1.32605 68.0356 1.57489 68.0356 1.81336C68.0356 6.69686 68.0356 11.5804 68.0356 16.4742H56.1294C55.7686 16.4742 55.4078 16.4742 55.047 16.4742C54.5625 16.4742 54.0677 16.3705 53.6038 16.2254C52.2019 15.8003 50.9133 15.8729 49.7485 16.4742H46.2333C44.9963 15.821 43.6871 15.7899 42.347 16.2461C41.9347 16.3809 41.4914 16.4535 41.0585 16.4742C40.9966 16.4742 40.9451 16.4742 40.8832 16.4742H39.7287C39.3473 16.4639 38.9556 16.4431 38.5638 16.4017H38.1515H19.7406C19.3798 16.4017 19.0191 16.4017 18.6583 16.4017C18.1738 16.4017 17.679 16.298 17.2151 16.1528C15.8647 15.7381 14.6174 15.8003 13.4834 16.3394C13.401 16.3809 13.3082 16.4017 13.2154 16.4017H9.99918C9.9064 16.4017 9.81363 16.3809 9.72085 16.3394C8.51476 15.7485 7.25713 15.7381 5.96858 16.1735C5.55624 16.3083 5.11298 16.3809 4.68003 16.4017C4.62848 16.4017 4.57694 16.4017 4.51509 16.4017H1.69058V16.412H1.20609C0.536038 16.412 0 16.9615 0 17.6251V19.5433C0 20.2483 0.443262 20.6527 1.14424 20.663C1.44318 20.663 1.74213 20.663 2.04107 20.663C2.36063 20.663 2.62865 20.9015 2.65958 21.2229C2.85544 23.3588 3.89659 24.8933 5.94796 25.6502C7.96842 26.3968 9.74147 25.9094 11.2156 24.4993C11.4527 24.2712 11.8238 24.2712 12.0609 24.489C13.5247 25.8369 15.1328 26.3138 16.8543 25.8058C19.1531 25.1318 20.3385 23.5558 20.5962 21.254C20.6272 20.943 20.8952 20.7045 21.2044 20.7045L37.3577 20.7149C37.4093 20.7253 37.4608 20.7253 37.5227 20.7253C38.0175 20.7356 38.502 20.7253 39.0071 20.7253C39.069 23.1515 40.0998 24.8933 42.3264 25.7124C44.5427 26.5315 46.4601 25.8576 48.0167 24.1261C49.5939 25.7954 51.3566 26.4175 53.243 25.868C55.7171 25.1422 56.9128 23.3588 57.0365 20.7667H65.4379L67.6852 20.7771C67.8913 20.7771 68.0563 20.943 68.0563 21.1504C68.0563 21.4925 68.0563 21.8139 68.0563 22.1457C68.0666 22.9648 68.4995 23.3796 69.3036 23.3899C69.7984 23.3899 70.3035 23.4107 70.7983 23.3899C71.1591 23.3692 71.3756 23.4832 71.5817 23.8047C73.4991 26.7597 77.9317 26.77 79.8594 23.8254C80.0862 23.4832 80.3027 23.3899 80.6841 23.3899C82.0448 23.4107 83.3952 23.4003 84.7559 23.4003C85.6115 23.4003 86.0342 22.9856 86.0342 22.1354C86.0342 18.7242 86.0342 15.3233 86.0135 11.9225ZM7.65916 23.8254C6.06136 23.8047 4.78311 22.519 4.78311 20.9223C4.7728 19.3048 6.03043 18.0191 7.63855 18.0088C9.24666 17.9984 10.5558 19.3048 10.5558 20.9223C10.5558 22.4879 9.20543 23.8461 7.65916 23.8254ZM15.576 23.8254C14.0092 23.8358 12.6794 22.5086 12.6794 20.9326C12.6794 19.3152 13.9885 18.0087 15.5967 18.0191C17.2048 18.0295 18.4624 19.3152 18.4521 20.9223C18.4418 22.5294 17.1738 23.815 15.576 23.8254ZM44.0479 23.898C42.4501 23.8772 41.1719 22.5916 41.1719 20.9948C41.1616 19.3774 42.4192 18.0917 44.0273 18.0813C45.6354 18.071 46.9446 19.3774 46.9446 20.9948C46.9446 22.5605 45.5942 23.9187 44.0479 23.898ZM51.9648 23.898C50.3979 23.9083 49.0681 22.5812 49.0681 21.0052C49.0681 19.3877 50.3773 18.0813 51.9854 18.0917C53.5935 18.1021 54.8512 19.3877 54.8409 20.9948C54.8305 22.6019 53.5626 23.8876 51.9648 23.898ZM75.7257 23.898C74.1176 23.9083 72.8187 22.5605 72.8394 20.9015C72.86 19.3359 74.1589 18.071 75.736 18.0813C77.3235 18.0917 78.6224 19.3981 78.6224 20.9845C78.6224 22.5501 77.2823 23.8876 75.7257 23.898ZM83.8488 21.2333H82.8901V14.9293H83.8488V21.2333ZM83.89 12.9075C83.8591 13.1771 83.8797 13.457 83.8797 13.7888C83.4364 13.7888 83.0241 13.7888 82.6221 13.7888C82.1479 13.7888 81.7768 14.1725 81.7665 14.6494C81.7665 16.6194 81.7665 18.579 81.7665 20.549C81.7665 20.7564 81.7665 20.9534 81.7665 21.2022H80.7562C80.7253 19.3877 80.045 17.874 78.5193 16.806C77.5091 16.101 76.3649 15.8314 75.1485 15.9558C73.0249 16.1839 70.7055 17.9154 70.654 21.1918C70.52 21.2022 70.3757 21.2229 70.1901 21.2333V2.13479C71.8807 2.13479 73.5507 2.20736 75.2103 2.10368C76.1896 2.05184 76.736 2.394 77.2926 3.17163C79.2718 5.92961 81.3232 8.63575 83.3643 11.3419C83.7457 11.8396 83.9622 12.3061 83.89 12.9075Z" fill="#071D49"/>
<path d="M74.9114 3.55507C74.7774 3.36844 74.4681 3.22328 74.2413 3.20254C73.4888 3.16107 72.7363 3.18181 71.9735 3.19218C71.3859 3.19218 71.2209 3.35807 71.2106 3.96981C71.2106 5.5769 71.2003 7.184 71.2106 8.79109C71.2106 9.4132 71.3859 9.58946 72.0044 9.59983C72.9837 9.6102 73.963 9.59983 74.9423 9.59983C75.9422 9.59983 76.9318 9.62056 77.9317 9.58945C78.1688 9.57908 78.4884 9.4443 78.6018 9.26804C78.6945 9.12288 78.5915 8.77036 78.4678 8.58373C77.3029 6.89368 76.1174 5.21401 74.9114 3.55507ZM72.3446 8.43857C72.3446 7.09068 72.3446 5.72206 72.3446 4.27049C72.8909 4.27049 73.396 4.26012 73.9114 4.28086C74.0351 4.29122 74.2001 4.3949 74.2722 4.50896C75.1897 5.79463 76.1071 7.09068 77.0555 8.43857C75.4783 8.43857 73.9321 8.43857 72.3446 8.43857Z" fill="#071D49"/>
<path d="M74.334 11.1655C73.9217 11.1655 73.5094 11.1655 73.097 11.1655C72.6641 11.1655 72.2414 11.1655 71.8085 11.1655C71.458 11.1655 71.2312 11.3418 71.2312 11.6839C71.2312 12.0261 71.4477 12.2231 71.7982 12.2231C72.6538 12.2231 73.5197 12.2231 74.3753 12.2231C74.7257 12.2231 74.9319 12.0365 74.9216 11.6839C74.901 11.3107 74.6742 11.1655 74.334 11.1655Z" fill="#071D49"/>
<path d="M75.6947 19.1285C74.6742 19.1389 73.8701 19.9476 73.8701 20.9741C73.8701 22.0213 74.6948 22.8715 75.7153 22.8715C76.7256 22.8715 77.5812 22.0006 77.5812 20.9845C77.5812 19.958 76.7256 19.1181 75.6947 19.1285ZM76.4782 21.057C76.4472 21.5029 76.0761 21.8036 75.6329 21.7621C75.2308 21.7206 74.901 21.337 74.9319 20.943C74.9628 20.5179 75.3545 20.1654 75.7772 20.1965C76.1998 20.2276 76.5091 20.6112 76.4782 21.057Z" fill="#071D49"/>
<path d="M51.9753 19.1284C50.9445 19.1284 50.0992 19.9683 50.1095 20.9947C50.1198 22.0108 50.996 22.8818 51.9959 22.861C53.0061 22.8403 53.8102 22.0212 53.8205 21.0051C53.8205 19.9579 53.0061 19.1284 51.9753 19.1284ZM51.9547 21.762C51.5114 21.7516 51.1816 21.4095 51.2022 20.9533C51.2125 20.5385 51.563 20.1964 51.965 20.1964C52.3876 20.186 52.7587 20.5593 52.7587 20.9844C52.7484 21.4198 52.3876 21.762 51.9547 21.762Z" fill="#071D49"/>
<path d="M44.0686 19.1284C43.0171 19.1284 42.213 19.9372 42.2027 20.9947C42.1924 22.0212 43.048 22.8818 44.0686 22.8714C45.0685 22.861 45.8932 22.0316 45.9241 21.0258C45.9344 19.9994 45.0891 19.1284 44.0686 19.1284ZM44.0273 21.762C43.5944 21.7516 43.2542 21.3991 43.2645 20.974C43.2748 20.5489 43.6459 20.1964 44.0583 20.2067C44.4809 20.2171 44.8211 20.5696 44.8108 21.0155C44.8108 21.4406 44.4706 21.7724 44.0273 21.762Z" fill="#071D49"/>
<path d="M15.5864 19.0562C14.5555 19.0562 13.7102 19.896 13.7206 20.9225C13.7309 21.9386 14.6071 22.8095 15.607 22.7888C16.6172 22.768 17.4213 21.9489 17.4316 20.9328C17.4316 19.8856 16.6172 19.0562 15.5864 19.0562ZM15.5658 21.6897C15.1225 21.6794 14.7926 21.3372 14.8132 20.881C14.8236 20.4662 15.174 20.1241 15.5761 20.1241C15.9987 20.1137 16.3698 20.487 16.3698 20.9121C16.3595 21.3476 15.9987 21.6897 15.5658 21.6897Z" fill="#071D49"/>
<path d="M7.67988 19.0562C6.62842 19.0562 5.82437 19.8649 5.81406 20.9225C5.80375 21.9489 6.65935 22.8095 7.67988 22.7991C8.6798 22.7888 9.50448 21.9593 9.5354 20.9536C9.54571 19.9271 8.70042 19.0562 7.67988 19.0562ZM7.63865 21.6897C7.2057 21.6794 6.86552 21.3268 6.87583 20.9017C6.88613 20.4766 7.25724 20.1241 7.66957 20.1345C8.09222 20.1448 8.4324 20.4973 8.42209 20.9432C8.42209 21.3683 8.08191 21.7001 7.63865 21.6897Z" fill="#071D49"/>
</svg>
