<svg id="Capa_1" data-name="Capa 1" xmlns="http://www.w3.org/2000/svg" viewBox="0 0 16.99 19.8"><defs><style>.cls-1{fill:#fff;}</style></defs><path class="cls-1" d="M8.49,19.8a2.34,2.34,0,0,0,2.34-2.12H6.16A2.34,2.34,0,0,0,8.49,19.8Z"/><path class="cls-1" d="M15.34,8.76A6.56,6.56,0,0,0,13.52,4.2a6.48,6.48,0,0,0-3.35-1.91,1.91,1.91,0,0,0,.07-.52,1.77,1.77,0,1,0-3.54,0,1.3,1.3,0,0,0,.1.52A6.5,6.5,0,0,0,3.47,4.2,6.56,6.56,0,0,0,1.65,8.76v3.73H15.34Z"/><path class="cls-1" d="M15.34,13.43H1.65a1.65,1.65,0,0,0,0,3.3H15.34a1.65,1.65,0,0,0,0-3.3Z"/></svg>