<svg id="Capa_1" data-name="Capa 1" xmlns="http://www.w3.org/2000/svg" viewBox="0 0 12.65 12.65"><defs><style>.cls-1{fill:#071d49;}</style></defs><path class="cls-1" d="M8,9.18a.58.58,0,0,1-.13.23A1.74,1.74,0,0,1,6.54,10a4.23,4.23,0,0,1-.71,0A1,1,0,0,1,5,8.9c.05-.35.1-.69.16-1,.1-.6.21-1.21.32-1.82,0,0,0-.08,0-.12,0-.25-.08-.34-.33-.37l-.32,0a.25.25,0,0,1-.18-.24.23.23,0,0,1,.22-.2.75.75,0,0,1,.22,0H7a.32.32,0,0,1,.36.34,2.77,2.77,0,0,1-.07.56C7.14,6.63,7,7.31,6.89,8c0,.22-.1.45-.12.68a.91.91,0,0,0,0,.33.27.27,0,0,0,.3.22,1.65,1.65,0,0,0,.36-.11A1.58,1.58,0,0,1,7.71,9c.16-.06.28,0,.24.18ZM6.58,2.65a1,1,0,0,1,0,1.95,1,1,0,0,1-1-1,1,1,0,0,1,1-1Zm-4.73-.8a6.33,6.33,0,1,0,9,0A6.33,6.33,0,0,0,1.85,1.85Z"/></svg>