<svg id="Capa_1" data-name="Capa 1" xmlns="http://www.w3.org/2000/svg" viewBox="0 0 7.5 10.02"><defs><style>.cls-1{fill:#fff;}</style></defs><path class="cls-1" d="M3.07,8.52H4.43c-.08-.42-.16-.82-.24-1.22a.39.39,0,0,1,.08-.39.64.64,0,0,0,0-.93.68.68,0,0,0-.94,0,.71.71,0,0,0-.06.95.46.46,0,0,1,.09.34c-.06.41-.15.82-.24,1.25ZM2.51,4.39H5c0-.68,0-1.35,0-2a1.24,1.24,0,0,0-2.46,0c0,.67,0,1.34,0,2Zm-1.26,0c0-.66,0-1.28,0-1.9a2.5,2.5,0,0,1,5,0c0,.54,0,1.08,0,1.63,0,.08,0,.17,0,.29h.57a.62.62,0,0,1,.66.67V9.33a.62.62,0,0,1-.68.68H.68A.62.62,0,0,1,0,9.33V5.08a.63.63,0,0,1,.69-.7Z"/></svg>