<svg width="45" height="45" viewBox="0 0 45 45" fill="none" xmlns="http://www.w3.org/2000/svg">
<path d="M0.306702 22.9213C0.306702 23.8779 0.68772 24.7291 1.31194 25.3533C1.93616 25.9775 2.79547 26.3666 3.74395 26.3585L18.6441 26.3585L18.6441 41.2587C18.6441 42.2153 19.0251 43.0665 19.6493 43.6907C20.2736 44.3149 21.1329 44.704 22.0814 44.6959C23.9783 44.6959 25.5186 43.1556 25.5186 41.2587L25.5186 26.3585L40.4188 26.3585C42.3157 26.3585 43.856 24.8182 43.856 22.9213C43.856 21.0243 42.3157 19.484 40.4188 19.484L25.5186 19.484L25.5186 4.58385C25.5186 2.68688 23.9783 1.1466 22.0814 1.1466C20.1844 1.1466 18.6441 2.68688 18.6441 4.58385L18.6441 19.484L3.74395 19.484C1.83887 19.4759 0.298595 21.0162 0.306702 22.9213Z" fill="#C4D600" stroke="#C4D600" stroke-width="0.348"/>
</svg>
