<svg width="38" height="38" viewBox="0 0 38 38" fill="none" xmlns="http://www.w3.org/2000/svg">
<path fill-rule="evenodd" clip-rule="evenodd" d="M17.4673 14.2923C18.1128 13.6482 18.1175 12.6075 17.4658 11.9693C16.8207 11.3271 15.7803 11.323 15.1416 11.9721L8.83869 18.2608C8.52986 18.569 8.35297 18.9865 8.35297 19.4216C8.35297 19.8567 8.52986 20.2742 8.83869 20.5824L15.143 26.8725C15.465 27.1938 15.8843 27.3567 16.3051 27.3567C16.726 27.3567 17.1453 27.1938 17.4673 26.8725C18.1128 26.2284 18.1175 25.1878 17.466 24.5496L17.4644 24.5481L13.9751 21.0666H33.7677C34.673 21.0666 35.4156 20.327 35.4156 19.4216C35.4156 18.5141 34.671 17.7765 33.7573 17.7765H13.9751L17.4673 14.2923Z" fill="#9EA2A2"/>
<path fill-rule="evenodd" clip-rule="evenodd" d="M4.81457 6.54297C3.90921 6.54297 3.16669 7.15807 3.16669 7.91109V30.9319C3.16669 31.6849 3.90921 32.3 4.81457 32.3C5.71993 32.3 6.46245 31.6849 6.46245 30.9319V7.91109H6.4625L6.46241 7.9063C6.44901 7.16138 5.72509 6.54297 4.81457 6.54297Z" fill="#9EA2A2"/>
</svg>
