<svg width="25" height="33" viewBox="0 0 25 33" fill="none" xmlns="http://www.w3.org/2000/svg">
<path fill-rule="evenodd" clip-rule="evenodd" d="M1.07669 4.21846H23.6733L24.727 0.66878C24.7856 0.514446 24.727 0.360112 24.61 0.205779C24.4929 0.102889 24.3173 0 24.1416 0H0.60837C0.432749 0 0.257127 0.0514447 0.140047 0.205779C0.0229656 0.308668 -0.0355747 0.514446 0.0229657 0.66878L1.07669 4.21846ZM23.6148 28.346H23.4977H1.07669L0.0229657 31.8957C-0.0355747 32.05 0.0229656 32.2043 0.140047 32.3587C0.257127 32.4616 0.432749 32.5645 0.60837 32.5645H24.0831C24.2587 32.5645 24.4343 32.513 24.5514 32.3587C24.6685 32.2558 24.6685 32.05 24.6685 31.8957L23.6148 28.346ZM1.13523 5.24735H23.6148C25.0197 12.6039 25.0197 20.012 23.5562 27.3685H23.4977H1.13523C-0.328285 20.012 -0.328285 12.6039 1.13523 5.24735ZM3.94517 20.4235H21.1561V19.3946H3.94517V20.4235ZM3.94517 16.5652H21.1561V15.5363H3.94517V16.5652ZM3.94517 12.7068H21.1561V11.6779H3.94517V12.7068Z" fill="#00C389"/>
</svg>
