<svg width="37" height="36" viewBox="0 0 37 36" fill="none" xmlns="http://www.w3.org/2000/svg">
<path d="M17.8425 3.51001C16.4184 3.51001 15.2191 4.70926 15.2191 6.13337V6.8829C11.3216 8.0072 8.47334 11.6049 8.47334 15.8773V22.3232C7.01175 22.5106 5.84998 23.7474 5.84998 25.2464C5.84998 26.8954 7.19913 28.2445 8.8481 28.2445H14.8444C14.8444 29.8935 16.1935 31.2427 17.8425 31.2427C19.4914 31.2427 20.8406 29.8935 20.8406 28.2445H26.8369C28.4858 28.2445 29.835 26.8954 29.835 25.2464C29.835 23.7474 28.6732 22.5106 27.2116 22.3232V15.8773C27.2116 11.6049 24.3634 8.0072 20.4658 6.8829V6.13337C20.4658 4.67178 19.2666 3.51001 17.8425 3.51001ZM17.8425 8.75673C21.815 8.75673 24.963 11.9048 24.963 15.8773V23.3726C24.963 24.0097 25.4502 24.4969 26.0873 24.4969H26.8369C27.2866 24.4969 27.5864 24.7967 27.5864 25.2464C27.5864 25.6961 27.2866 25.9959 26.8369 25.9959H8.8481C8.39838 25.9959 8.09857 25.6961 8.09857 25.2464C8.09857 24.7967 8.39838 24.4969 8.8481 24.4969H9.59763C10.2347 24.4969 10.7219 24.0097 10.7219 23.3726V15.8773C10.7219 11.9048 13.87 8.75673 17.8425 8.75673Z" fill="#071D49"/>
</svg>
