<svg width="21" height="29" viewBox="0 0 21 29" fill="none" xmlns="http://www.w3.org/2000/svg">
<path d="M20.3623 0.161448C20.0935 -0.062559 19.6903 0.00464324 19.5334 0.027044H19.511L17.6742 0.452658L15.2997 0.0494447C15.2549 0.0494447 15.1877 0.0494447 15.1429 0.0494447L12.7684 0.475059L10.3715 0.0494447C10.3267 0.0494447 10.2595 0.0494447 10.2147 0.0494447L7.84026 0.475059L5.44338 0.0494447C5.39858 0.0494447 5.33138 0.0494447 5.28658 0.0494447L2.9121 0.475059L1.05284 0.0494447C0.761626 -0.0401582 0.470416 0.027044 0.224007 0.183849C0.089603 0.295853 0 0.49746 0 0.699066V27.9832C0 28.1848 0.089603 28.3864 0.224007 28.5208C0.492816 28.7448 0.89603 28.6776 1.07524 28.6552L2.9121 28.2296L5.28658 28.6552C5.33138 28.6552 5.39858 28.6552 5.44338 28.6552L7.81786 28.2296L10.2147 28.6552C10.2595 28.6552 10.3267 28.6552 10.3715 28.6552L12.746 28.2296L15.1205 28.6552C15.1653 28.6552 15.2325 28.6552 15.2773 28.6552L17.6518 28.2296L19.511 28.6552C19.8023 28.7448 20.0935 28.7 20.3399 28.5208C20.4967 28.3864 20.5863 28.1848 20.5863 27.9832V0.699066C20.6087 0.49746 20.5191 0.295853 20.3623 0.161448ZM10.3043 10.309C12.6564 10.309 14.5605 12.2131 14.5605 14.5651C14.5605 16.9172 12.6564 18.8213 10.3043 18.8213C7.95226 18.8213 6.0482 16.9172 6.0482 14.5651C6.0482 12.2131 7.95226 10.309 10.3043 10.309ZM14.3365 20.6133C14.3365 20.8597 14.1349 21.0613 13.8885 21.0613H6.72022C6.47382 21.0613 6.27221 20.8597 6.27221 20.6133C6.27221 20.3669 6.47382 20.1653 6.72022 20.1653H13.8885C14.1349 20.1653 14.3365 20.3669 14.3365 20.6133ZM17.6966 26.4375H2.9121C2.66569 26.4375 2.46408 26.2359 2.46408 25.9895C2.46408 25.7431 2.66569 25.5415 2.9121 25.5415H17.6966C17.943 25.5415 18.1446 25.7431 18.1446 25.9895C18.1446 26.2359 17.943 26.4375 17.6966 26.4375ZM17.6966 24.6455H2.9121C2.66569 24.6455 2.46408 24.4439 2.46408 24.1975C2.46408 23.951 2.66569 23.7494 2.9121 23.7494H17.6966C17.943 23.7494 18.1446 23.951 18.1446 24.1975C18.1446 24.4439 17.943 24.6455 17.6966 24.6455ZM17.6966 22.8534H2.9121C2.66569 22.8534 2.46408 22.6518 2.46408 22.4054C2.46408 22.159 2.66569 21.9574 2.9121 21.9574H17.6966C17.943 21.9574 18.1446 22.159 18.1446 22.4054C18.1446 22.6518 17.943 22.8534 17.6966 22.8534Z" fill="#071D49"/>
<path d="M10.6404 15.9316C10.2372 16.1332 9.74434 15.8196 9.60994 15.4163C9.54274 15.1699 9.29633 15.0579 9.04992 15.1251C8.80351 15.1923 8.69151 15.4387 8.75871 15.6852C8.91551 16.1556 9.25152 16.5364 9.69954 16.738C9.74434 16.7604 9.81154 16.7828 9.85634 16.8052V17.0292C9.85634 17.2756 10.058 17.4772 10.3044 17.4772C10.5508 17.4772 10.7524 17.2756 10.7524 17.0292V16.85C10.842 16.8276 10.9316 16.8052 11.0212 16.7604C11.5812 16.4916 11.8948 15.8644 11.7156 15.2595C11.514 14.5651 10.9092 14.3635 10.4612 14.2291C10.1252 14.1171 9.90115 14.0499 9.81154 13.8483C9.54273 13.3779 10.058 13.0643 10.4836 13.1539C10.73 13.2211 10.9092 13.4227 10.9764 13.6467C11.0436 13.8931 11.29 14.0275 11.514 13.9603C11.7604 13.8931 11.8948 13.6467 11.8276 13.4227C11.6932 12.8851 11.2676 12.437 10.73 12.2802V12.101C10.73 11.8546 10.5284 11.653 10.282 11.653C10.0356 11.653 9.83394 11.8546 9.83394 12.101V12.3026C9.63234 12.3698 9.43073 12.4594 9.27393 12.5938C8.80351 13.0195 8.71391 13.7139 9.00512 14.2515C9.27393 14.7667 9.78914 14.9235 10.17 15.0355C10.3716 15.0803 10.5732 15.1699 10.7524 15.3043C10.8868 15.4611 10.8868 15.6852 10.73 15.8196C10.73 15.8868 10.6852 15.9092 10.6404 15.9316Z" fill="#071D49"/>
</svg>
