<svg width="42" height="42" viewBox="0 0 42 42" fill="none" xmlns="http://www.w3.org/2000/svg">
<path fill-rule="evenodd" clip-rule="evenodd" d="M28.527 12.5192C28.527 16.606 25.1957 19.9372 21.1089 19.9372C16.9878 19.9372 13.6909 16.606 13.6909 12.5192C13.6909 8.43242 17.0221 5.10117 21.1089 5.10117C25.1957 5.10117 28.527 8.43242 28.527 12.5192ZM20.5251 13.2404H21.6584C22.1735 13.2404 22.5513 13.6182 22.5857 14.1677C22.5857 14.6485 22.1735 15.0606 21.6927 15.0606H20.5594C20.0786 15.0606 19.6665 14.6485 19.6665 14.1677H18.1898C18.1898 15.404 19.1857 16.3999 20.3877 16.503V17.6019H21.8645V16.503C23.1008 16.3999 24.0624 15.404 24.0624 14.1677C24.0624 12.8626 22.9978 11.798 21.6927 11.798H20.5594C20.0786 11.798 19.6665 11.3859 19.6665 10.9051C19.6665 10.4243 20.0786 10.0122 20.5594 10.0122H21.6927C22.1735 10.0122 22.5857 10.4243 22.5857 10.9051H24.0624C24.0624 9.66876 23.0665 8.67282 21.8645 8.56979V7.43648H20.3877V8.53544C19.1514 8.63847 18.1898 9.63441 18.1898 10.8708C18.1898 12.1758 19.2201 13.2404 20.5251 13.2404ZM7.37187 20.212L25.8139 28.3512C26.0543 28.4543 26.3634 28.4199 26.5695 28.2482L35.0522 20.8302C35.4643 20.4867 35.3612 19.8686 34.8804 19.6625L28.8361 16.9838C27.2563 19.5938 24.3715 21.3796 21.109 21.3796C16.8505 21.3796 13.3132 18.3918 12.4203 14.4424L7.16582 19.0443C6.78805 19.3878 6.89107 20.0059 7.37187 20.212ZM33.8157 23.818L34.846 24.2644C35.3268 24.4705 35.4299 25.123 35.0177 25.4664L26.5351 32.8845C26.329 33.0562 26.0199 33.0905 25.7795 32.9875L7.33746 24.8483C6.85666 24.6422 6.78797 23.9897 7.16575 23.6463L8.64248 22.3756L25.1957 29.7249C25.5048 29.828 25.7795 29.8967 26.0886 29.8967C26.6038 29.8967 27.1189 29.6906 27.531 29.3472L33.8157 23.818ZM33.8158 28.4543L34.8461 28.9007C35.3269 29.1068 35.4299 29.7593 35.0521 30.1027L26.5695 37.5207C26.3634 37.6925 26.0543 37.7268 25.8139 37.6238L7.37184 29.4845C6.89104 29.2785 6.82235 28.626 7.20012 28.2825L8.64252 27.0119L25.1957 34.3612C25.5048 34.4642 25.7796 34.5329 26.0887 34.5329C26.6038 34.5329 27.1189 34.3269 27.5311 33.9834L33.8158 28.4543Z" fill="#00C389"/>
</svg>
