<svg width="22" height="23" viewBox="0 0 22 23" fill="none" xmlns="http://www.w3.org/2000/svg">
<path fill-rule="evenodd" clip-rule="evenodd" d="M17.7101 7.35215H4.97582C4.15551 7.35215 3.51099 6.6988 3.51099 5.91094C3.51099 5.12308 4.17505 4.46973 4.97582 4.46973H17.6906C18.5109 4.46973 19.1554 5.12308 19.1554 5.91094C19.1554 6.6988 18.5109 7.35215 17.7101 7.35215ZM4.97582 10.2346H13.7844C14.6047 10.2346 15.2492 10.8879 15.2492 11.6758C15.2492 12.4637 14.6047 13.117 13.7844 13.117H4.97582C4.15551 13.117 3.51099 12.4637 3.51099 11.6758C3.51099 10.8879 4.17505 10.2346 4.97582 10.2346ZM4.97582 15.9994H17.6906C18.5109 15.9994 19.1554 16.6528 19.1554 17.4406C19.1554 18.2285 18.4914 18.8818 17.6906 18.8818H4.97582C4.15551 18.8818 3.51099 18.2285 3.51099 17.4406C3.51099 16.6528 4.17505 15.9994 4.97582 15.9994Z" fill="#585858"/>
</svg>
