<svg width="44" height="44" viewBox="0 0 44 44" fill="none" xmlns="http://www.w3.org/2000/svg">
<path d="M44 10C44 8.4087 43.3679 6.88258 42.2426 5.75736C41.1174 4.63214 39.5913 4 38 4H33V2C33 1.46957 32.7893 0.960859 32.4142 0.585786C32.0391 0.210714 31.5304 0 31 0C30.4696 0 29.9609 0.210714 29.5858 0.585786C29.2107 0.960859 29 1.46957 29 2V4H15V2C15 1.46957 14.7893 0.960859 14.4142 0.585786C14.0391 0.210714 13.5304 0 13 0C12.4696 0 11.9609 0.210714 11.5858 0.585786C11.2107 0.960859 11 1.46957 11 2V4H6C4.4087 4 2.88258 4.63214 1.75736 5.75736C0.632141 6.88258 0 8.4087 0 10V38C0 39.5913 0.632141 41.1174 1.75736 42.2426C2.88258 43.3679 4.4087 44 6 44H38C39.5913 44 41.1174 43.3679 42.2426 42.2426C43.3679 41.1174 44 39.5913 44 38V10ZM7 8H11V10C11 10.5304 11.2107 11.0391 11.5858 11.4142C11.9609 11.7893 12.4696 12 13 12C13.5304 12 14.0391 11.7893 14.4142 11.4142C14.7893 11.0391 15 10.5304 15 10V8H29V10C29 10.5304 29.2107 11.0391 29.5858 11.4142C29.9609 11.7893 30.4696 12 31 12C31.5304 12 32.0391 11.7893 32.4142 11.4142C32.7893 11.0391 33 10.5304 33 10V8H37C37.7956 8 38.5587 8.31607 39.1213 8.87868C39.6839 9.44129 40 10.2044 40 11V16H4V11C4 10.2044 4.31607 9.44129 4.87868 8.87868C5.44129 8.31607 6.20435 8 7 8V8ZM37 40H7C6.20435 40 5.44129 39.6839 4.87868 39.1213C4.31607 38.5587 4 37.7956 4 37V20H40V37C40 37.7956 39.6839 38.5587 39.1213 39.1213C38.5587 39.6839 37.7956 40 37 40Z" fill="white"/>
</svg>
