<svg width="24" height="21" viewBox="0 0 24 21" fill="none" xmlns="http://www.w3.org/2000/svg">
<path d="M23.1434 2.71444C22.9107 2.43829 22.6194 2.21627 22.2902 2.06418C21.961 1.91208 21.6021 1.83364 21.2388 1.83441H6.129L5.96817 0.862193C5.95927 0.829371 5.94497 0.798224 5.92585 0.77C5.91891 0.713071 5.89861 0.658538 5.86659 0.610757C5.84341 0.563127 5.81503 0.518158 5.78194 0.476658C5.74961 0.43628 5.71268 0.399721 5.6719 0.367703C5.6324 0.32954 5.58659 0.298358 5.53646 0.275509C5.49103 0.248173 5.44279 0.225697 5.39256 0.20846C5.33721 0.192463 5.28057 0.181246 5.22326 0.174935C5.1894 0.174935 5.16401 0.158173 5.13015 0.158173H1.74419C1.51969 0.158173 1.30438 0.246474 1.14564 0.403652C0.986888 0.56083 0.897705 0.774009 0.897705 0.996292C0.897705 1.21858 0.986888 1.43175 1.14564 1.58893C1.30438 1.74611 1.51969 1.83441 1.74419 1.83441H4.41063L4.57993 2.80663L6.40835 13.7022V13.7106L6.60304 14.8169C6.6871 15.3345 6.93338 15.8129 7.30707 16.1844C7.68075 16.5559 8.16292 16.8017 8.6854 16.887C8.57651 17.1652 8.51916 17.4604 8.5161 17.7587C8.51316 18.1266 8.59179 18.4907 8.74646 18.8252C8.90113 19.1597 9.12806 19.4566 9.41125 19.6948C9.69443 19.933 10.027 20.1068 10.3854 20.2039C10.7438 20.301 11.1194 20.319 11.4856 20.2567C11.8518 20.1944 12.1998 20.0533 12.5049 19.8433C12.8101 19.6334 13.0649 19.3596 13.2516 19.0415C13.4382 18.7233 13.552 18.3685 13.5851 18.002C13.6181 17.6356 13.5695 17.2664 13.4427 16.9206H16.2869C16.1476 17.3004 16.1028 17.7078 16.1564 18.1083C16.2099 18.5089 16.3601 18.8908 16.5943 19.2217C16.8285 19.5526 17.1398 19.8227 17.5018 20.0092C17.8638 20.1957 18.2659 20.2931 18.674 20.2931C19.082 20.2931 19.4841 20.1957 19.8461 20.0092C20.2081 19.8227 20.5194 19.5526 20.7536 19.2217C20.9878 18.8908 21.1381 18.5089 21.1916 18.1083C21.2451 17.7078 21.2003 17.3004 21.0611 16.9206H21.2134C21.4379 16.9206 21.6532 16.8323 21.812 16.6751C21.9707 16.5179 22.0599 16.3047 22.0599 16.0824C22.0599 15.8602 21.9707 15.647 21.812 15.4898C21.6532 15.3326 21.4379 15.2443 21.2134 15.2443H9.10018C8.89967 15.2448 8.70565 15.174 8.55342 15.0448C8.40118 14.9156 8.30083 14.7366 8.27062 14.5403L8.24523 14.4062H19.986C20.5845 14.4048 21.1629 14.1922 21.6175 13.8067C22.072 13.4211 22.3729 12.8879 22.4662 12.3025L23.719 4.75945C23.78 4.39764 23.76 4.02701 23.6605 3.67367C23.5611 3.32034 23.3846 2.9929 23.1434 2.71444V2.71444ZM18.674 16.9206C18.8414 16.9206 19.005 16.9697 19.1442 17.0618C19.2835 17.1539 19.392 17.2848 19.456 17.438C19.5201 17.5911 19.5369 17.7596 19.5042 17.9222C19.4715 18.0848 19.3909 18.2341 19.2725 18.3513C19.1541 18.4685 19.0033 18.5484 18.8391 18.5807C18.6749 18.613 18.5047 18.5964 18.35 18.533C18.1954 18.4696 18.0631 18.3621 17.9701 18.2243C17.8771 18.0865 17.8275 17.9245 17.8275 17.7587C17.8281 17.5366 17.9175 17.3238 18.0761 17.1668C18.2348 17.0097 18.4497 16.9212 18.674 16.9206V16.9206ZM11.0556 16.9206C11.223 16.9206 11.3866 16.9697 11.5259 17.0618C11.6651 17.1539 11.7736 17.2848 11.8376 17.438C11.9017 17.5911 11.9185 17.7596 11.8858 17.9222C11.8531 18.0848 11.7725 18.2341 11.6541 18.3513C11.5357 18.4685 11.3849 18.5484 11.2207 18.5807C11.0565 18.613 10.8863 18.5964 10.7316 18.533C10.577 18.4696 10.4448 18.3621 10.3517 18.2243C10.2587 18.0865 10.2091 17.9245 10.2091 17.7587C10.2097 17.5366 10.2991 17.3238 10.4578 17.1668C10.6164 17.0097 10.8313 16.9212 11.0556 16.9206V16.9206ZM16.2784 8.95843H15.0087V10.2156C15.0087 10.4379 14.9195 10.6511 14.7607 10.8082C14.602 10.9654 14.3867 11.0537 14.1622 11.0537C13.9377 11.0537 13.7224 10.9654 13.5636 10.8082C13.4049 10.6511 13.3157 10.4379 13.3157 10.2156V8.95843H12.046C11.8215 8.95843 11.6061 8.87013 11.4474 8.71295C11.2887 8.55577 11.1995 8.34259 11.1995 8.12031C11.1995 7.89803 11.2887 7.68485 11.4474 7.52767C11.6061 7.37049 11.8215 7.28219 12.046 7.28219H13.3157V6.02501C13.3157 5.80273 13.4049 5.58955 13.5636 5.43237C13.7224 5.27519 13.9377 5.18689 14.1622 5.18689C14.3867 5.18689 14.602 5.27519 14.7607 5.43237C14.9195 5.58955 15.0087 5.80273 15.0087 6.02501V7.28219H16.2784C16.5029 7.28219 16.7182 7.37049 16.877 7.52767C17.0357 7.68485 17.1249 7.89803 17.1249 8.12031C17.1249 8.34259 17.0357 8.55577 16.877 8.71295C16.7182 8.87013 16.5029 8.95843 16.2784 8.95843Z" fill="white"/>
</svg>
