<svg width="16" height="21" viewBox="0 0 16 21" fill="none" xmlns="http://www.w3.org/2000/svg">
<path fill-rule="evenodd" clip-rule="evenodd" d="M0.663566 2.59983H14.5898L15.2393 0.412169C15.2753 0.317053 15.2392 0.221937 15.1671 0.126821C15.0949 0.0634106 14.9867 0 14.8785 0H0.374938C0.266703 0 0.158468 0.0317053 0.0863109 0.126821C0.0141541 0.190232 -0.0219243 0.317053 0.0141541 0.412169L0.663566 2.59983ZM14.5538 17.4696H14.4816H0.663565L0.0141538 19.6573C-0.0219247 19.7524 0.0141537 19.8475 0.0863105 19.9426C0.158467 20.006 0.266703 20.0694 0.374938 20.0694H14.8424C14.9506 20.0694 15.0589 20.0377 15.131 19.9426C15.2032 19.8792 15.2032 19.7524 15.2032 19.6573L14.5538 17.4696ZM0.699639 3.23394H14.5538C15.4196 7.76779 15.4196 12.3334 14.5177 16.8672H14.4816H0.699639C-0.202322 12.3334 -0.202322 7.76779 0.699639 3.23394ZM2.4314 12.587H13.0385V11.9529H2.4314V12.587ZM2.4314 10.2091H13.0385V9.57499H2.4314V10.2091ZM2.4314 7.8312H13.0385V7.1971H2.4314V7.8312Z" fill="white"/>
</svg>
