<svg width="26" height="26" viewBox="0 0 26 26" fill="none" xmlns="http://www.w3.org/2000/svg">
<path d="M12.9713 0C5.81658 0 0 5.81658 0 12.9713C0 20.1259 5.81658 25.9425 12.9713 25.9425C20.1259 25.9425 25.9425 20.1259 25.9425 12.9713C25.9425 5.81658 20.1259 0 12.9713 0ZM12.9713 24.3586C6.69043 24.3586 1.58386 19.2521 1.58386 12.9713C1.58386 6.69043 6.69043 1.58386 12.9713 1.58386C19.2521 1.58386 24.3586 6.69043 24.3586 12.9713C24.3586 19.2521 19.2521 24.3586 12.9713 24.3586Z" fill="white"/>
<path d="M17.3405 12.1793H15.1013C14.7736 11.3054 13.9544 10.7047 12.9713 10.7047C12.6436 10.7047 12.3432 10.7866 12.0428 10.8958L8.49278 7.29118C8.19239 6.9908 7.67354 6.96349 7.37315 7.29118C7.07277 7.59157 7.04546 8.11042 7.37315 8.41081L10.9505 12.0428C10.8139 12.3431 10.732 12.6435 10.732 12.9985C10.732 14.2547 11.7424 15.2651 12.9986 15.2651C13.9817 15.2651 14.8009 14.637 15.1286 13.7905H17.3405C17.7775 13.7905 18.1325 13.4355 18.1325 12.9985C18.1325 12.5343 17.7775 12.1793 17.3405 12.1793ZM12.9713 13.6539C12.589 13.6539 12.2886 13.3535 12.2886 12.9712C12.2886 12.5889 12.589 12.2885 12.9713 12.2885C13.3536 12.2885 13.654 12.5889 13.654 12.9712C13.654 13.3535 13.3536 13.6539 12.9713 13.6539Z" fill="white"/>
<path d="M12.9713 5.51625C13.5594 5.51625 14.0363 5.03943 14.0363 4.45124C14.0363 3.86305 13.5594 3.38623 12.9713 3.38623C12.3831 3.38623 11.9062 3.86305 11.9062 4.45124C11.9062 5.03943 12.3831 5.51625 12.9713 5.51625Z" fill="white"/>
<path d="M4.45124 14.0363C5.03943 14.0363 5.51625 13.5594 5.51625 12.9713C5.51625 12.3831 5.03943 11.9062 4.45124 11.9062C3.86305 11.9062 3.38623 12.3831 3.38623 12.9713C3.38623 13.5594 3.86305 14.0363 4.45124 14.0363Z" fill="white"/>
<path d="M12.9713 22.5563C13.5594 22.5563 14.0363 22.0795 14.0363 21.4913C14.0363 20.9031 13.5594 20.4263 12.9713 20.4263C12.3831 20.4263 11.9062 20.9031 11.9062 21.4913C11.9062 22.0795 12.3831 22.5563 12.9713 22.5563Z" fill="white"/>
<path d="M21.4913 14.0363C22.0795 14.0363 22.5563 13.5594 22.5563 12.9713C22.5563 12.3831 22.0795 11.9062 21.4913 11.9062C20.9031 11.9062 20.4263 12.3831 20.4263 12.9713C20.4263 13.5594 20.9031 14.0363 21.4913 14.0363Z" fill="white"/>
</svg>
