<svg width="15" height="14" viewBox="0 0 15 14" fill="none" xmlns="http://www.w3.org/2000/svg">
<path d="M4.95629 0H13.241C13.9594 0 14.525 0.580848 14.525 1.28398C14.525 4.83021 14.525 8.39173 14.525 11.938C14.525 12.6564 13.9441 13.2219 13.241 13.2219H4.95629C4.727 13.2219 4.54358 13.0385 4.54358 12.8092V11.9838C4.54358 11.7545 4.727 11.5711 4.95629 11.5711H12.4767C12.706 11.5711 12.8894 11.3877 12.8894 11.1584V2.06354C12.8894 1.83426 12.706 1.65083 12.4767 1.65083H4.95629C4.727 1.65083 4.54358 1.46741 4.54358 1.23812V0.412708C4.54358 0.183426 4.727 0 4.95629 0Z" fill="#071D49"/>
<path d="M0.126105 6.90901L2.58707 9.36998C2.73992 9.52283 3.01506 9.52283 3.16792 9.36998L3.74876 8.78913C3.90162 8.63627 3.90162 8.36114 3.74876 8.20828L2.98449 7.44401H8.1357C8.36498 7.44401 8.5484 7.26058 8.5484 7.0313V6.20588C8.5484 5.9766 8.36498 5.79317 8.1357 5.79317H2.98449L3.74876 5.0289C3.90162 4.87605 3.90162 4.60091 3.74876 4.44805L3.16792 3.8672C3.01506 3.71435 2.73992 3.71435 2.58707 3.8672L0.126105 6.32817C-0.0420351 6.48102 -0.0420351 6.75616 0.126105 6.90901Z" fill="#071D49"/>
</svg>
