<svg width="30" height="27" viewBox="0 0 30 27" fill="none" xmlns="http://www.w3.org/2000/svg">
<path d="M28.6152 3.68818C28.3159 3.33296 27.9411 3.04738 27.5177 2.85174C27.0943 2.65609 26.6325 2.55518 26.1653 2.55618H6.72915L6.52227 1.30559C6.51081 1.26337 6.49242 1.22331 6.46782 1.187C6.45889 1.11377 6.43279 1.04363 6.3916 0.982165C6.36179 0.920897 6.32527 0.863053 6.28272 0.80967C6.24112 0.75773 6.19362 0.710704 6.14117 0.669517C6.09036 0.620428 6.03143 0.580318 5.96695 0.550927C5.90851 0.515763 5.84646 0.486852 5.78184 0.464679C5.71065 0.444103 5.63778 0.429674 5.56407 0.421556C5.52052 0.421556 5.48785 0.399994 5.4443 0.399994H1.08886C0.800076 0.399994 0.52312 0.513579 0.318919 0.715761C0.114719 0.917942 0 1.19216 0 1.47809C0 1.76402 0.114719 2.03823 0.318919 2.24042C0.52312 2.4426 0.800076 2.55618 1.08886 2.55618H4.51877L4.73654 3.80677L7.08847 17.822V17.8328L7.33891 19.2559C7.44704 19.9217 7.76384 20.5371 8.24452 21.015C8.7252 21.4928 9.34542 21.809 10.0175 21.9187C9.87743 22.2765 9.80366 22.6563 9.79973 23.04C9.79595 23.5132 9.8971 23.9815 10.0961 24.4118C10.295 24.8422 10.5869 25.224 10.9512 25.5304C11.3154 25.8369 11.7432 26.0604 12.2042 26.1853C12.6653 26.3102 13.1484 26.3334 13.6195 26.2533C14.0906 26.1731 14.5382 25.9916 14.9307 25.7215C15.3232 25.4514 15.651 25.0993 15.8911 24.6901C16.1311 24.2808 16.2776 23.8244 16.3201 23.353C16.3625 22.8816 16.3 22.4067 16.1369 21.9619H19.7955C19.6163 22.4504 19.5587 22.9745 19.6276 23.4897C19.6964 24.005 19.8896 24.4962 20.1909 24.9219C20.4922 25.3475 20.8926 25.695 21.3583 25.9348C21.8239 26.1747 22.3411 26.3 22.866 26.3C23.391 26.3 23.9082 26.1747 24.3738 25.9348C24.8395 25.695 25.2399 25.3475 25.5412 24.9219C25.8424 24.4962 26.0357 24.005 26.1045 23.4897C26.1733 22.9745 26.1158 22.4504 25.9366 21.9619H26.1326C26.4214 21.9619 26.6984 21.8483 26.9026 21.6461C27.1068 21.4439 27.2215 21.1697 27.2215 20.8838C27.2215 20.5979 27.1068 20.3236 26.9026 20.1215C26.6984 19.9193 26.4214 19.8057 26.1326 19.8057H10.551C10.2931 19.8063 10.0436 19.7152 9.84773 19.549C9.6519 19.3828 9.52282 19.1525 9.48396 18.9001L9.4513 18.7276H24.5538C25.3236 18.7257 26.0677 18.4523 26.6523 17.9564C27.237 17.4605 27.6241 16.7745 27.7441 16.0216L29.3556 6.31873C29.434 5.85333 29.4083 5.37657 29.2804 4.92207C29.1525 4.46756 28.9254 4.04637 28.6152 3.68818ZM22.866 21.9619C23.0814 21.9619 23.2919 22.0251 23.471 22.1436C23.65 22.262 23.7896 22.4304 23.872 22.6274C23.9544 22.8244 23.976 23.0412 23.934 23.2503C23.892 23.4594 23.7883 23.6515 23.636 23.8023C23.4837 23.9531 23.2897 24.0557 23.0785 24.0973C22.8673 24.1389 22.6483 24.1176 22.4494 24.036C22.2504 23.9544 22.0803 23.8162 21.9607 23.6389C21.841 23.4616 21.7772 23.2532 21.7772 23.04C21.778 22.7543 21.893 22.4806 22.0971 22.2786C22.3011 22.0766 22.5775 21.9627 22.866 21.9619ZM13.0663 21.9619C13.2817 21.9619 13.4922 22.0251 13.6712 22.1436C13.8503 22.262 13.9899 22.4304 14.0723 22.6274C14.1547 22.8244 14.1763 23.0412 14.1342 23.2503C14.0922 23.4594 13.9885 23.6515 13.8363 23.8023C13.684 23.9531 13.49 24.0557 13.2787 24.0973C13.0675 24.1389 12.8486 24.1176 12.6496 24.036C12.4507 23.9544 12.2806 23.8162 12.161 23.6389C12.0413 23.4616 11.9775 23.2532 11.9775 23.04C11.9783 22.7543 12.0933 22.4806 12.2973 22.2786C12.5013 22.0766 12.7778 21.9627 13.0663 21.9619ZM19.7846 11.72H18.1513V13.3371C18.1513 13.6231 18.0366 13.8973 17.8324 14.0995C17.6282 14.3016 17.3512 14.4152 17.0624 14.4152C16.7736 14.4152 16.4967 14.3016 16.2925 14.0995C16.0883 13.8973 15.9736 13.6231 15.9736 13.3371V11.72H14.3403C14.0515 11.72 13.7745 11.6064 13.5703 11.4042C13.3661 11.202 13.2514 10.9278 13.2514 10.6419C13.2514 10.356 13.3661 10.0817 13.5703 9.87956C13.7745 9.67738 14.0515 9.56379 14.3403 9.56379H15.9736V7.94665C15.9736 7.66072 16.0883 7.38651 16.2925 7.18432C16.4967 6.98214 16.7736 6.86856 17.0624 6.86856C17.3512 6.86856 17.6282 6.98214 17.8324 7.18432C18.0366 7.38651 18.1513 7.66072 18.1513 7.94665V9.56379H19.7846C20.0734 9.56379 20.3503 9.67738 20.5545 9.87956C20.7587 10.0817 20.8734 10.356 20.8734 10.6419C20.8734 10.9278 20.7587 11.202 20.5545 11.4042C20.3503 11.6064 20.0734 11.72 19.7846 11.72Z" fill="#071D49"/>
</svg>
