<svg width="24" height="24" viewBox="0 0 24 24" fill="none" xmlns="http://www.w3.org/2000/svg">
<g clip-path="url(#clip0)">
<path fill-rule="evenodd" clip-rule="evenodd" d="M6.52645 3.49238C6.52645 2.14353 7.62722 1.05225 8.98071 1.05225H14.8401C16.1936 1.05225 17.2944 2.14353 17.2944 3.49238V3.96308H22.6464C22.9008 3.96308 23.1656 4.16601 23.1352 4.47746V5.43908C23.1352 5.70891 22.9165 5.93866 22.6341 5.93866H20.2117V20.9451C20.2117 22.2939 19.1109 23.3852 17.7574 23.3852H6.04484C4.69135 23.3852 3.59057 22.2939 3.59057 20.9451V5.92638H1.16819C0.900712 5.92638 0.667053 5.71143 0.667053 5.42679V4.45652C0.667053 4.18668 0.885822 3.95693 1.16819 3.95693H6.52645V3.49238ZM8.98071 3.02783C8.72101 3.02783 8.51146 3.23844 8.51146 3.49238V3.95693H15.3094V3.49238C15.3094 3.23844 15.0998 3.02783 14.8401 3.02783H8.98071ZM5.58177 5.93866V20.9512C5.58177 21.2052 5.79132 21.4158 6.05102 21.4158H17.7698C18.0295 21.4158 18.239 21.2052 18.239 20.9512V5.93866H5.58177ZM7.99751 8.82884C7.99751 8.559 8.21628 8.32925 8.49864 8.32925H9.47521C9.74269 8.32925 9.97634 8.54421 9.97634 8.82884V18.5316C9.97634 18.8014 9.75758 19.0312 9.47521 19.0312H8.49864C8.23117 19.0312 7.99751 18.8162 7.99751 18.5316V8.82884ZM10.921 8.82884C10.921 8.559 11.1398 8.32925 11.4222 8.32925H12.3987C12.6662 8.32925 12.8999 8.54421 12.8999 8.82884V18.5316C12.8999 18.8014 12.6811 19.0312 12.3987 19.0312H11.4222C11.1547 19.0312 10.921 18.8162 10.921 18.5316V8.82884ZM13.8507 8.82884C13.8507 8.559 14.0694 8.32925 14.3518 8.32925H15.3284C15.5959 8.32925 15.8295 8.54421 15.8295 8.82884V18.5316C15.8295 18.8014 15.6107 19.0312 15.3284 19.0312H14.3518C14.0843 19.0312 13.8507 18.8162 13.8507 18.5316V8.82884Z" fill="#00C389"/>
</g>
<defs>
<clipPath id="clip0">
<rect width="22.8875" height="22.8875" fill="white" transform="translate(0.556274 0.740967)"/>
</clipPath>
</defs>
</svg>
