<svg width="23" height="22" viewBox="0 0 23 22" fill="none" xmlns="http://www.w3.org/2000/svg">
<path fill-rule="evenodd" clip-rule="evenodd" d="M19.8907 1.31806L21.4017 2.82909C22.197 3.62436 22.197 4.8968 21.4812 5.61255L10.3474 16.7464C10.2678 16.9055 10.1088 16.985 9.94973 16.985L5.97335 17.7803H5.8143C5.57572 17.7803 5.41666 17.7007 5.17808 17.5417C4.9395 17.3826 4.85997 17.0645 4.9395 16.8259L5.73477 12.8496C5.8143 12.6905 5.89383 12.5314 5.97335 12.4519L17.1072 1.31806C17.9025 0.602313 19.0954 0.602313 19.8907 1.31806ZM6.76863 15.9511L9.39304 15.474L10.1883 14.6787L8.20013 12.5314L7.32532 13.4063L6.76863 15.9511ZM9.31351 11.4181L11.3017 13.5653L18.2206 6.64641L16.1529 4.57869L9.31351 11.4181ZM19.2545 5.53302L20.2883 4.49916C20.4474 4.34011 20.4474 4.10153 20.2883 3.94247L18.6978 2.51097C18.5387 2.35192 18.3001 2.35192 18.1411 2.51097L17.1867 3.46531L19.2545 5.53302ZM17.1072 13.8039C17.1072 13.3268 17.4253 13.0086 17.9025 13.0086C18.3797 13.0086 18.6978 13.3268 18.6978 13.8039V18.9732C18.6978 20.4842 17.4253 21.7567 15.9143 21.7567H3.98519C2.47416 21.7567 1.20172 20.4842 1.20172 18.9732V7.04408C1.20172 5.53305 2.47416 4.26061 3.98519 4.26061H9.15448C9.63164 4.26061 9.94975 4.57872 9.94975 5.05589C9.94975 5.53305 9.63164 5.85116 9.15448 5.85116H3.98519C3.34897 5.85116 2.79227 6.40786 2.79227 7.04408V18.9732C2.79227 19.6094 3.34897 20.1661 3.98519 20.1661H15.9143C16.5505 20.1661 17.1072 19.6094 17.1072 18.9732V13.8039Z" fill="#00C389"/>
<path d="M21.4017 2.82909L21.5593 2.67145L21.5593 2.67145L21.4017 2.82909ZM19.8907 1.31806L20.0485 1.16021L20.0398 1.15236L19.8907 1.31806ZM21.4812 5.61255L21.3236 5.45491L21.3236 5.45491L21.4812 5.61255ZM10.3474 16.7464L10.1897 16.5888L10.1642 16.6144L10.148 16.6467L10.3474 16.7464ZM9.94973 16.985V16.7621H9.92766L9.90601 16.7664L9.94973 16.985ZM5.97335 17.7803V18.0032H5.99543L6.01707 17.9989L5.97335 17.7803ZM5.17808 17.5417L5.05442 17.7272L5.05442 17.7272L5.17808 17.5417ZM4.9395 16.8259L5.15099 16.8964L5.15537 16.8833L5.1581 16.8697L4.9395 16.8259ZM5.73477 12.8496L5.53538 12.7499L5.52203 12.7766L5.51617 12.8058L5.73477 12.8496ZM5.97335 12.4519L5.81572 12.2943L5.81572 12.2943L5.97335 12.4519ZM17.1072 1.31806L16.9579 1.15213L16.9496 1.16043L17.1072 1.31806ZM9.39304 15.474L9.43292 15.6933L9.50143 15.6808L9.55067 15.6316L9.39304 15.474ZM6.76863 15.9511L6.55085 15.9035L6.47936 16.2303L6.80851 16.1705L6.76863 15.9511ZM10.1883 14.6787L10.346 14.8363L10.4976 14.6846L10.3519 14.5272L10.1883 14.6787ZM8.20013 12.5314L8.3637 12.38L8.20631 12.21L8.04249 12.3738L8.20013 12.5314ZM7.32532 13.4063L7.16769 13.2486L7.1215 13.2948L7.10754 13.3586L7.32532 13.4063ZM11.3017 13.5653L11.1381 13.7168L11.2955 13.8868L11.4593 13.7229L11.3017 13.5653ZM9.31351 11.4181L9.15588 11.2604L9.00419 11.4121L9.14993 11.5695L9.31351 11.4181ZM18.2206 6.64641L18.3782 6.80404L18.5359 6.64641L18.3782 6.48877L18.2206 6.64641ZM16.1529 4.57869L16.3105 4.42106L16.1529 4.26342L15.9952 4.42106L16.1529 4.57869ZM20.2883 4.49916L20.1307 4.34153L20.1307 4.34153L20.2883 4.49916ZM19.2545 5.53302L19.0968 5.69066L19.2545 5.84829L19.4121 5.69066L19.2545 5.53302ZM20.2883 3.94247L20.4462 3.78462L20.4374 3.77677L20.2883 3.94247ZM18.6978 2.51097L18.5399 2.66883L18.5486 2.67668L18.6978 2.51097ZM18.1411 2.51097L18.2987 2.66861L18.2987 2.66861L18.1411 2.51097ZM17.1867 3.46531L17.0291 3.30767L16.8715 3.46531L17.0291 3.62294L17.1867 3.46531ZM21.5593 2.67145L20.0483 1.16043L19.733 1.4757L21.2441 2.98672L21.5593 2.67145ZM21.6389 5.77019C22.4474 4.96161 22.4358 3.5479 21.5593 2.67145L21.2441 2.98672C21.9582 3.70082 21.9465 4.832 21.3236 5.45491L21.6389 5.77019ZM10.505 16.904L21.6389 5.77019L21.3236 5.45491L10.1897 16.5888L10.505 16.904ZM9.94973 17.2079C10.1809 17.2079 10.4242 17.0911 10.5468 16.8461L10.148 16.6467C10.1114 16.7198 10.0367 16.7621 9.94973 16.7621V17.2079ZM6.01707 17.9989L9.99345 17.2036L9.90601 16.7664L5.92963 17.5617L6.01707 17.9989ZM5.8143 18.0032H5.97335V17.5573H5.8143V18.0032ZM5.05442 17.7272C5.30411 17.8936 5.50871 18.0032 5.8143 18.0032V17.5573C5.64272 17.5573 5.52922 17.5079 5.30174 17.3562L5.05442 17.7272ZM4.72801 16.7554C4.62055 17.0778 4.72243 17.5059 5.05442 17.7272L5.30174 17.3562C5.15656 17.2594 5.09938 17.0512 5.15099 16.8964L4.72801 16.7554ZM5.51617 12.8058L4.72089 16.7822L5.1581 16.8697L5.95337 12.8933L5.51617 12.8058ZM5.81572 12.2943C5.75408 12.3559 5.70239 12.437 5.66051 12.5103C5.61709 12.5863 5.57447 12.6717 5.53538 12.7499L5.93417 12.9493C5.9746 12.8684 6.01151 12.7947 6.04762 12.7315C6.08527 12.6656 6.1131 12.6274 6.13099 12.6096L5.81572 12.2943ZM16.9496 1.16043L5.81572 12.2943L6.13099 12.6096L17.2648 1.4757L16.9496 1.16043ZM20.0398 1.15236C19.1598 0.360307 17.8381 0.360307 16.9581 1.15236L17.2563 1.48376C17.9668 0.844319 19.0311 0.844319 19.7415 1.48376L20.0398 1.15236ZM9.35316 15.2546L6.72875 15.7318L6.80851 16.1705L9.43292 15.6933L9.35316 15.2546ZM10.0307 14.5211L9.2354 15.3163L9.55067 15.6316L10.346 14.8363L10.0307 14.5211ZM8.03655 12.6829L10.0247 14.8302L10.3519 14.5272L8.3637 12.38L8.03655 12.6829ZM7.48296 13.5639L8.35776 12.6891L8.04249 12.3738L7.16769 13.2486L7.48296 13.5639ZM6.98641 15.9988L7.5431 13.4539L7.10754 13.3586L6.55085 15.9035L6.98641 15.9988ZM11.4653 13.4138L9.47709 11.2666L9.14993 11.5695L11.1381 13.7168L11.4653 13.4138ZM18.063 6.48877L11.1441 13.4077L11.4593 13.7229L18.3782 6.80404L18.063 6.48877ZM15.9952 4.73633L18.063 6.80404L18.3782 6.48877L16.3105 4.42106L15.9952 4.73633ZM9.47115 11.5757L16.3105 4.73633L15.9952 4.42106L9.15588 11.2604L9.47115 11.5757ZM20.1307 4.34153L19.0968 5.37539L19.4121 5.69066L20.446 4.6568L20.1307 4.34153ZM20.1307 4.10011C20.2027 4.1721 20.2027 4.26953 20.1307 4.34153L20.446 4.6568C20.6921 4.41068 20.6921 4.03095 20.446 3.78484L20.1307 4.10011ZM18.5486 2.67668L20.1392 4.10817L20.4374 3.77677L18.8469 2.34527L18.5486 2.67668ZM18.2987 2.66861C18.3707 2.59661 18.4681 2.59661 18.5401 2.66861L18.8554 2.35334C18.6093 2.10722 18.2296 2.10722 17.9834 2.35334L18.2987 2.66861ZM17.3444 3.62294L18.2987 2.66861L17.9834 2.35334L17.0291 3.30767L17.3444 3.62294ZM19.4121 5.37539L17.3444 3.30767L17.0291 3.62294L19.0968 5.69066L19.4121 5.37539ZM17.9025 12.7857C17.6133 12.7857 17.3549 12.8831 17.1683 13.0697C16.9817 13.2563 16.8843 13.5147 16.8843 13.8039H17.3302C17.3302 13.616 17.3918 13.4767 17.4836 13.385C17.5753 13.2932 17.7146 13.2316 17.9025 13.2316V12.7857ZM18.9207 13.8039C18.9207 13.5147 18.8233 13.2563 18.6367 13.0697C18.4501 12.8831 18.1918 12.7857 17.9025 12.7857V13.2316C18.0904 13.2316 18.2297 13.2932 18.3214 13.385C18.4132 13.4767 18.4749 13.616 18.4749 13.8039H18.9207ZM18.9207 18.9732V13.8039H18.4749V18.9732H18.9207ZM15.9143 21.9796C17.5485 21.9796 18.9207 20.6074 18.9207 18.9732H18.4749C18.4749 20.3611 17.3022 21.5337 15.9143 21.5337V21.9796ZM3.98519 21.9796H15.9143V21.5337H3.98519V21.9796ZM0.978791 18.9732C0.978791 20.6074 2.35104 21.9796 3.98519 21.9796V21.5337C2.59728 21.5337 1.42465 20.3611 1.42465 18.9732H0.978791ZM0.978791 7.04408V18.9732H1.42465V7.04408H0.978791ZM3.98519 4.03768C2.35104 4.03768 0.978791 5.40993 0.978791 7.04408H1.42465C1.42465 5.65617 2.59728 4.48354 3.98519 4.48354V4.03768ZM9.15448 4.03768H3.98519V4.48354H9.15448V4.03768ZM10.1727 5.05589C10.1727 4.76664 10.0753 4.50828 9.88869 4.32168C9.70208 4.13507 9.44372 4.03768 9.15448 4.03768V4.48354C9.3424 4.48354 9.48168 4.54521 9.57342 4.63695C9.66516 4.72869 9.72682 4.86796 9.72682 5.05589H10.1727ZM9.15448 6.07409C9.44372 6.07409 9.70208 5.97671 9.88869 5.7901C10.0753 5.60349 10.1727 5.34513 10.1727 5.05589H9.72682C9.72682 5.24381 9.66516 5.38309 9.57342 5.47483C9.48168 5.56656 9.3424 5.62823 9.15448 5.62823V6.07409ZM3.98519 6.07409H9.15448V5.62823H3.98519V6.07409ZM3.0152 7.04408C3.0152 6.53098 3.47209 6.07409 3.98519 6.07409V5.62823C3.22584 5.62823 2.56934 6.28473 2.56934 7.04408H3.0152ZM3.0152 18.9732V7.04408H2.56934V18.9732H3.0152ZM3.98519 19.9432C3.47209 19.9432 3.0152 19.4863 3.0152 18.9732H2.56934C2.56934 19.7326 3.22584 20.3891 3.98519 20.3891V19.9432ZM15.9143 19.9432H3.98519V20.3891H15.9143V19.9432ZM16.8843 18.9732C16.8843 19.4863 16.4274 19.9432 15.9143 19.9432V20.3891C16.6737 20.3891 17.3302 19.7326 17.3302 18.9732H16.8843ZM16.8843 13.8039V18.9732H17.3302V13.8039H16.8843Z" fill="#00C389"/>
</svg>
