<svg width="91" height="63" viewBox="0 0 91 63" fill="none" xmlns="http://www.w3.org/2000/svg">
<path fill-rule="evenodd" clip-rule="evenodd" d="M1.69661 3.39624C0.632373 4.81778 0 6.58235 0 8.49834V53.8207C0 58.5149 3.79732 62.3191 8.48305 62.3191C24.3818 62.3191 66.6182 62.3191 82.5169 62.3191C87.2027 62.3191 91 58.5149 91 53.8207V8.49834C91 6.58235 90.3676 4.81778 89.3034 3.39624C84.5652 6.39384 62.9535 20.0375 52.8818 25.9215C48.3195 28.5884 42.6805 28.5884 38.1182 25.9215C28.0465 20.0375 6.43478 6.39384 1.69661 3.39624V3.39624ZM13.2212 50.4739H34.7034C35.9805 50.4739 37.0169 49.4356 37.0169 48.1562C37.0169 46.8768 35.9805 45.8385 34.7034 45.8385H13.2212C11.9441 45.8385 10.9077 46.8768 10.9077 48.1562C10.9077 49.4356 11.9441 50.4739 13.2212 50.4739V50.4739ZM13.2212 40.4304H24.5268C25.8039 40.4304 26.8404 39.3921 26.8404 38.1127C26.8404 36.8333 25.8039 35.795 24.5268 35.795H13.2212C11.9441 35.795 10.9077 36.8333 10.9077 38.1127C10.9077 39.3921 11.9441 40.4304 13.2212 40.4304ZM5.71912 0.460456C12.6012 4.80851 31.2917 16.5671 40.4472 21.9195C43.5689 23.7428 47.4311 23.7428 50.5528 21.9195C59.7083 16.5671 78.3988 4.80851 85.2809 0.460456C84.4171 0.160696 83.4856 0 82.5169 0C66.6182 0 24.3818 0 8.48305 0C7.51444 0 6.58285 0.160696 5.71912 0.460456V0.460456Z" fill="#00C389"/>
</svg>
