<svg width="55" height="53" viewBox="0 0 55 53" fill="none" xmlns="http://www.w3.org/2000/svg">
<ellipse cx="27.5" cy="26.5" rx="27.5" ry="26.5" fill="#C7C9C7"/>
<path fill-rule="evenodd" clip-rule="evenodd" d="M27.5345 9.85853C27.9538 9.85853 28.2937 9.44248 28.2937 8.92926C28.2937 8.41605 27.9538 8 27.5345 8C27.1152 8 26.7753 8.41605 26.7753 8.92926C26.7753 9.44248 27.1152 9.85853 27.5345 9.85853ZM27.3658 14.8622C27.3658 15.3785 27.0218 15.7915 26.6066 15.7915C26.1913 15.7915 25.8539 15.3785 25.8474 14.8622C25.8474 14.346 26.1913 13.933 26.6066 13.933C27.0283 13.933 27.3658 14.3539 27.3658 14.8622ZM28.9296 16.7208C29.3489 16.7208 29.6888 16.3047 29.6888 15.7915C29.6888 15.2783 29.3489 14.8623 28.9296 14.8623C28.5102 14.8623 28.1704 15.2783 28.1704 15.7915C28.1704 16.3047 28.5102 16.7208 28.9296 16.7208ZM26.6066 18.7858C27.0218 18.7858 27.3658 18.3728 27.3658 17.8565C27.3658 17.3403 27.0283 16.9273 26.6066 16.9273C26.1913 16.9273 25.8474 17.3403 25.8474 17.8565C25.8474 18.3728 26.1913 18.7858 26.6066 18.7858ZM41.4207 38.2526H42.3291C42.725 38.2526 43.043 38.6419 43.0299 39.1264C43.0299 39.6109 42.712 40 42.3162 40H36.4956C36.0998 40 35.7819 39.6109 35.7819 39.1264C35.7819 38.7689 35.9571 38.4592 36.2101 38.3242H34.1856C34.4386 38.4592 34.6138 38.7689 34.6138 39.1264C34.6138 39.6109 34.2959 40 33.9001 40H32.5569C32.161 40 31.8431 39.6109 31.8431 39.1264C31.8431 38.7689 32.0182 38.4592 32.2714 38.3242H30.8244C31.0774 38.4592 31.2526 38.7689 31.2526 39.1264C31.2526 39.6109 30.9347 40 30.5388 40H12.7138C12.318 40 12 39.6109 12 39.1264C12 38.6419 12.318 38.2526 12.7138 38.2526H13.6482L24.5755 22.2328C24.7377 21.9707 25.7565 20.4457 27.5345 20.4457C29.3124 20.4457 30.3312 21.9628 30.4934 22.2328L41.4207 38.2526ZM20.2798 34.3132C20.2798 34.8295 20.6238 35.2425 21.0391 35.2425C21.4608 35.2425 21.7982 34.8295 21.7982 34.3132C21.7982 33.797 21.4543 33.384 21.0391 33.384C20.6173 33.384 20.2798 33.8049 20.2798 34.3132ZM23.1933 30.477C23.1933 30.9933 23.5373 31.4063 23.9525 31.4063C24.3679 31.4063 24.7052 30.9933 24.7118 30.477C24.7118 29.9608 24.3744 29.5478 23.9525 29.5478C23.5308 29.5478 23.1933 29.9687 23.1933 30.477ZM27.6707 24.8935C27.6707 24.3773 27.3268 23.9643 26.9115 23.9643C26.4897 23.9643 26.1523 24.3773 26.1523 24.8935C26.1523 25.4098 26.4897 25.8228 26.9115 25.8228C27.3333 25.8228 27.6707 25.4018 27.6707 24.8935ZM25.6527 26.0531C25.2309 26.0531 24.8935 26.4741 24.8935 26.9824C24.8935 27.4987 25.2309 27.9116 25.6527 27.9116C26.0744 27.9116 26.4119 27.4907 26.4119 26.9824C26.4119 26.4661 26.0679 26.0531 25.6527 26.0531ZM25.6462 30.477C25.6462 30.9933 25.9901 31.4063 26.4054 31.4063C26.8206 31.4063 27.1646 30.9933 27.1646 30.477C27.1646 29.9608 26.8206 29.5478 26.4054 29.5478C25.9836 29.5478 25.6462 29.9687 25.6462 30.477ZM27.6707 26.9824C27.249 26.9824 26.9115 27.4033 26.9115 27.9116C26.9115 28.42 27.249 28.8409 27.6707 28.8409C28.0925 28.8409 28.4299 28.4279 28.4299 27.9116C28.4299 27.3954 28.0925 26.9824 27.6707 26.9824ZM28.1054 30.477C28.1054 30.9933 28.4493 31.4063 28.8647 31.4063C29.28 31.4063 29.6174 30.9933 29.6239 30.477C29.6239 29.9608 29.2865 29.5478 28.8647 29.5478C28.4429 29.5478 28.1054 29.9687 28.1054 30.477ZM29.2994 27.9037C29.2994 28.42 29.6433 28.833 30.0586 28.833C30.474 28.833 30.8179 28.42 30.8179 27.9037C30.8179 27.3875 30.4804 26.9744 30.0586 26.9744C29.6368 26.9744 29.2994 27.3875 29.2994 27.9037ZM31.5251 30.8344C31.5251 31.3507 31.8691 31.7637 32.2843 31.7637C32.7061 31.7637 33.0435 31.3507 33.0435 30.8344C33.0435 30.3182 32.7061 29.9052 32.2843 29.9052C31.8626 29.9052 31.5251 30.3261 31.5251 30.8344Z" fill="#071D49"/>
</svg>
