<svg width="25" height="24" viewBox="0 0 25 24" fill="none" xmlns="http://www.w3.org/2000/svg">
<path d="M24.626 12.7509V22.6574C24.626 22.9436 24.5123 23.2181 24.3099 23.4205C24.1075 23.6229 23.8331 23.7366 23.5469 23.7366H17.072C16.7858 23.7366 16.5113 23.6229 16.3089 23.4205C16.1066 23.2181 15.9929 22.9436 15.9929 22.6574V20.1322C15.9929 19.1563 15.6052 18.2203 14.9151 17.5302C14.2249 16.8401 13.289 16.4524 12.313 16.4524C11.337 16.4524 10.401 16.8401 9.71094 17.5302C9.02083 18.2203 8.63313 19.1563 8.63313 20.1322V22.6574C8.63313 22.9436 8.51943 23.2181 8.31705 23.4205C8.11467 23.6229 7.84019 23.7366 7.55399 23.7366H1.07914C0.792935 23.7366 0.518451 23.6229 0.316073 23.4205C0.113695 23.2181 6.77628e-07 22.9436 6.77628e-07 22.6574V12.7509C-0.000224992 12.4661 0.0559173 12.1841 0.165192 11.9211C0.274467 11.6581 0.434712 11.4193 0.636693 11.2185L11.5036 0.319208C11.604 0.218062 11.7233 0.13778 11.8548 0.0829931C11.9863 0.0282066 12.1274 0 12.2698 0C12.4123 0 12.5533 0.0282066 12.6848 0.0829931C12.8163 0.13778 12.9357 0.218062 13.036 0.319208L23.9893 11.2185C24.1913 11.4193 24.3515 11.6581 24.4608 11.9211C24.5701 12.1841 24.6262 12.4661 24.626 12.7509Z" fill="#071D49"/>
</svg>
