<svg width="16" height="16" viewBox="0 0 16 16" fill="none" xmlns="http://www.w3.org/2000/svg">
<path d="M15.8 8.54546V14.6781C15.8 14.8552 15.7296 15.0252 15.6043 15.1504C15.479 15.2757 15.3091 15.3461 15.1319 15.3461H11.1237C10.9465 15.3461 10.7766 15.2757 10.6513 15.1504C10.526 15.0252 10.4556 14.8552 10.4556 14.6781V13.1148C10.4556 12.5107 10.2156 11.9313 9.78843 11.504C9.36122 11.0768 8.7818 10.8368 8.17763 10.8368C7.57346 10.8368 6.99404 11.0768 6.56683 11.504C6.13962 11.9313 5.89961 12.5107 5.89961 13.1148V14.6781C5.89961 14.8552 5.82923 15.0252 5.70395 15.1504C5.57867 15.2757 5.40875 15.3461 5.23157 15.3461H1.22334C1.04616 15.3461 0.876244 15.2757 0.750962 15.1504C0.625681 15.0252 0.555298 14.8552 0.555298 14.6781V8.54546C0.555159 8.36915 0.589913 8.19456 0.65756 8.03175C0.725206 7.86895 0.824405 7.72113 0.949441 7.59684L7.6766 0.849643C7.7387 0.787029 7.81259 0.737331 7.89399 0.703415C7.9754 0.6695 8.06272 0.652039 8.15091 0.652039C8.2391 0.652039 8.32641 0.6695 8.40782 0.703415C8.48923 0.737331 8.56311 0.787029 8.62521 0.849643L15.4058 7.59684C15.5309 7.72113 15.6301 7.86895 15.6977 8.03175C15.7653 8.19456 15.8001 8.36915 15.8 8.54546Z" fill="#585858"/>
</svg>
