<svg width="47" height="33" viewBox="0 0 47 33" fill="none" xmlns="http://www.w3.org/2000/svg">
<rect x="0.125" width="46.75" height="33" rx="5.5" fill="#1F72CD"/>
<path fill-rule="evenodd" clip-rule="evenodd" d="M8.50623 11.6875L4.1322 21.6518H9.36853L10.0177 20.0631H11.5015L12.1506 21.6518H17.9144V20.4392L18.4279 21.6518H21.4094L21.923 20.4136V21.6518H33.91L35.3675 20.1043L36.7323 21.6518L42.8891 21.6646L38.5012 16.6975L42.8891 11.6875H36.8278L35.409 13.2064L34.0871 11.6875H21.0469L19.9271 14.2594L18.7811 11.6875H13.5557V12.8588L12.9744 11.6875H8.50623ZM9.51936 13.1024H12.0718L14.9731 19.8593V13.1024H17.7692L20.0101 17.9471L22.0753 13.1024H24.8574V20.2525H23.1646L23.1508 14.6498L20.6828 20.2525H19.1684L16.6866 14.6498V20.2525H13.204L12.5438 18.6495H8.97678L8.31791 20.2511H6.45198L9.51936 13.1024ZM33.2898 13.1024H26.4063V20.2483H33.1832L35.3675 17.88L37.4728 20.2483H39.6736L36.4748 16.6961L39.6736 13.1024H37.5683L35.3951 15.4435L33.2898 13.1024ZM10.761 14.3121L9.58585 17.1676H11.9348L10.761 14.3121ZM28.1062 15.8882V14.5829V14.5817H32.4013L34.2754 16.6691L32.3183 18.7679H28.1062V17.343H31.8615V15.8882H28.1062Z" fill="white"/>
</svg>
