<svg width="47" height="33" viewBox="0 0 47 33" fill="none" xmlns="http://www.w3.org/2000/svg">
<rect x="0.9375" y="0.6875" width="45.375" height="31.625" rx="4.8125" fill="white" stroke="#D9D9D9" stroke-width="1.375"/>
<path fill-rule="evenodd" clip-rule="evenodd" d="M23.8711 23.1405C22.243 24.5128 20.1312 25.3413 17.8234 25.3413C12.6743 25.3413 8.5 21.2167 8.5 16.1288C8.5 11.0409 12.6743 6.91629 17.8234 6.91629C20.1312 6.91629 22.2431 7.74474 23.8712 9.11708C25.4992 7.74476 27.6111 6.91632 29.9188 6.91632C35.068 6.91632 39.2423 11.0409 39.2423 16.1288C39.2423 21.2167 35.068 25.3413 29.9188 25.3413C27.6111 25.3413 25.4992 24.5129 23.8711 23.1405Z" fill="#ED0006"/>
<path fill-rule="evenodd" clip-rule="evenodd" d="M23.8711 23.1406C25.8758 21.4509 27.1469 18.9365 27.1469 16.1288C27.1469 13.3211 25.8758 10.8068 23.8711 9.11703C25.4992 7.74474 27.611 6.91632 29.9187 6.91632C35.0679 6.91632 39.2421 11.0409 39.2421 16.1288C39.2421 21.2167 35.0679 25.3413 29.9187 25.3413C27.611 25.3413 25.4992 24.5129 23.8711 23.1406Z" fill="#F9A000"/>
<path fill-rule="evenodd" clip-rule="evenodd" d="M23.8711 23.1406C25.8757 21.4508 27.1469 18.9365 27.1469 16.1288C27.1469 13.3212 25.8757 10.8069 23.8711 9.11713C21.8665 10.8069 20.5953 13.3212 20.5953 16.1288C20.5953 18.9365 21.8665 21.4508 23.8711 23.1406Z" fill="#FF5E00"/>
</svg>
