<svg width="47" height="33" viewBox="0 0 47 33" fill="none" xmlns="http://www.w3.org/2000/svg">
<rect x="0.6875" y="0.6875" width="45.375" height="31.625" rx="4.8125" fill="white" stroke="#D9D9D9" stroke-width="1.375"/>
<path fill-rule="evenodd" clip-rule="evenodd" d="M14.7817 21.8051H11.9495L9.82579 13.4645C9.72498 13.0808 9.51095 12.7417 9.19611 12.5818C8.41041 12.1801 7.54461 11.8603 6.6001 11.6991V11.378H11.1625C11.7921 11.378 12.2644 11.8603 12.3431 12.4205L13.445 18.4369L16.2758 11.378H19.0292L14.7817 21.8051ZM20.6035 21.8051H17.9287L20.1312 11.378H22.8059L20.6035 21.8051ZM26.2662 14.2666C26.3449 13.705 26.8172 13.3838 27.3682 13.3838C28.234 13.3032 29.1771 13.4645 29.9642 13.8648L30.4364 11.6198C29.6493 11.2987 28.7835 11.1375 27.9978 11.1375C25.4018 11.1375 23.5128 12.5818 23.5128 14.5863C23.5128 16.1112 24.8508 16.9119 25.7954 17.3943C26.8172 17.8752 27.2107 18.1964 27.132 18.6773C27.132 19.3988 26.3449 19.7199 25.5592 19.7199C24.6147 19.7199 23.6702 19.4794 22.8058 19.0777L22.3335 21.3241C23.278 21.7244 24.2999 21.8857 25.2444 21.8857C28.1552 21.9649 29.9642 20.522 29.9642 18.3562C29.9642 15.6289 26.2662 15.469 26.2662 14.2666ZM39.325 21.8051L37.2013 11.378H34.9201C34.4478 11.378 33.9756 11.6991 33.8182 12.1801L29.8855 21.8051H32.6389L33.1885 20.2815H36.5716L36.8864 21.8051H39.325ZM35.3138 14.1859L36.0995 18.1157H33.897L35.3138 14.1859Z" fill="#172B85"/>
</svg>
