<svg width="96" height="50" viewBox="0 0 96 50" fill="none" xmlns="http://www.w3.org/2000/svg">
<path d="M58.1148 39.1861C57.7143 38.7791 54.9387 35.814 54.1089 34.7675C55.9688 34.4477 57.1706 33.1105 57.1706 31.5989C57.1706 30.2035 56.1119 29.0698 54.5667 28.6919C53.88 28.5465 53.1074 28.4884 51.5909 28.4884H49.359V39.971H51.5623V34.971C51.5623 34.971 54.4237 38.4593 54.7098 38.75C55.1104 39.157 55.4824 39.4768 55.883 39.6803C56.2836 39.8837 56.5983 39.9419 57.5998 39.9419H59.0019C58.6585 39.7093 58.4582 39.5349 58.1148 39.1861ZM51.877 34.0407C51.8198 34.0407 51.6767 34.0407 51.5909 34.0407V29.8256C51.6767 29.8256 51.877 29.8256 51.9915 29.8256C53.88 29.8256 54.8243 30.4942 54.8243 31.8314C54.7956 33.0814 53.6511 34.0407 51.877 34.0407Z" fill="#121C4D"/>
<path d="M70.5905 39.5058V34.0989H68.3873V38.4302C67.9294 38.6337 67.3858 38.75 66.7277 38.75C64.2955 38.75 62.6931 37.0058 62.6931 34.3314C62.6931 31.6279 64.3813 29.7965 66.928 29.7965C67.9581 29.7965 68.9882 30.1163 69.9038 30.7268V28.5756C68.9023 28.314 67.9867 28.1977 67.071 28.1977C63.0651 28.1977 60.2323 30.7849 60.2323 34.4186C60.2323 37.907 62.8362 40.2907 66.6418 40.2907C67.9867 40.2907 69.4174 40 70.5905 39.5058Z" fill="#121C4D"/>
<path d="M91.4787 40.2908C94.2828 40.2908 96.0283 38.9536 95.9997 36.6861C95.971 34.9129 95.0268 34.0408 92.7663 33.0524C91.2784 32.3838 90.4486 32.1222 90.4486 31.1338C90.4486 30.2908 91.1639 29.7385 92.2512 29.7385C93.2527 29.7385 94.34 30.0292 95.1985 30.7268V28.692C94.2828 28.3722 93.2527 28.1687 92.3085 28.1687C89.8477 28.1687 88.1881 29.4187 88.2167 31.3954C88.2167 32.2966 88.5314 32.9943 89.1895 33.6047C89.6188 34.0117 90.1338 34.3024 91.3928 34.8257C93.1096 35.5815 93.7964 36.0466 93.825 36.9768C93.825 38.0234 92.938 38.721 91.7076 38.721C90.7061 38.721 89.5329 38.3431 88.3883 37.7617V39.8547C89.3898 40.1454 90.4486 40.2908 91.4787 40.2908Z" fill="#121C4D"/>
<path d="M79.6611 28.1105C76.0272 28.1105 73.4519 30.5815 73.4519 34.128C73.4519 37.7617 75.9699 40.3489 79.5753 40.3489C83.1234 40.3489 85.6414 37.8198 85.6414 34.3024C85.67 30.6687 83.2092 28.1105 79.6611 28.1105ZM79.6611 38.6919C77.5151 38.6919 75.9699 36.7443 75.9699 34.0117C75.9699 31.5117 77.4865 29.7384 79.6039 29.7384C81.6641 29.7384 83.1806 31.6861 83.1806 34.3896C83.1806 36.8315 81.6641 38.6919 79.6611 38.6919Z" fill="#121C4D"/>
<path d="M44.4947 40.0001H46.9269L41.29 28.1396H41.1755L35.5386 40.0001H37.7132L38.915 37.2676H43.2929L44.4947 40.0001ZM39.5445 35.8722L41.1183 32.2966L42.692 35.8722H39.5445Z" fill="#121C4D"/>
<path d="M0 34.6512C0 40.3488 3.06169 45.3198 7.6113 47.9651L12.0465 19.593C5.17912 21.0465 0 27.2384 0 34.6512ZM18.1984 19.593L15.1368 0H15.1081V50C24.1215 50 30.2163 42.3256 30.2163 34.6512C30.2163 27.2384 25.0658 21.0465 18.1984 19.593Z" fill="#121C4D"/>
</svg>
