<svg width="35" height="27" viewBox="0 0 35 27" fill="none" xmlns="http://www.w3.org/2000/svg">
<path d="M31.215 16.9832H25.8069L25.6172 18.0268C25.5223 18.3114 25.5223 18.5961 25.3325 18.8807H25.6172C25.0479 20.3988 25.8069 22.0117 27.325 22.4861C28.843 22.9605 30.4559 22.2963 30.9303 20.7783C31.1201 20.1141 31.1201 19.45 30.9303 18.8807H31.1201C31.6893 18.8807 32.0689 18.5012 32.0689 17.9319C32.0689 17.3627 31.7842 16.9832 31.215 16.9832ZM28.3686 20.7783C27.7993 20.7783 27.4198 20.3988 27.4198 19.8295C27.4198 19.2602 27.7993 18.8807 28.3686 18.8807C28.9379 18.8807 29.3174 19.2602 29.3174 19.8295C29.3174 20.3988 28.9379 20.7783 28.3686 20.7783Z" fill="#C7C9C7"/>
<path d="M33.3972 2.84634C32.8279 2.18219 32.0689 1.80268 31.3099 1.89756H14.3267L14.1369 0.759024C14.1369 0.759024 14.1369 0.664146 14.042 0.664146C14.042 0.569268 14.042 0.569268 13.9472 0.47439C13.9472 0.379512 13.8523 0.379512 13.8523 0.284634L13.7574 0.189756C13.7574 0.189756 13.6625 0.0948779 13.5677 0.0948779C13.4728 0.0948779 13.4728 0 13.3779 0C13.283 0 13.283 0 13.1881 0H13.0933H9.29815C8.72888 0 8.34937 0.379512 8.34937 0.94878C8.34937 1.51805 8.72888 1.89756 9.29815 1.89756H12.3342L12.6189 2.94122L12.9035 4.55414H22.8657C24.0991 4.55414 25.2377 5.12341 26.0916 6.07219C26.9455 7.02097 27.2301 8.25439 27.0403 9.4878L25.9967 16.0344H29.8867C31.3099 16.0344 32.4484 14.9907 32.6381 13.6624L34.0613 5.12341C34.2511 4.26951 33.9664 3.41561 33.3972 2.84634Z" fill="#C7C9C7"/>
<path d="M25.6171 9.298C25.7119 8.4441 25.5222 7.5902 24.9529 7.02093C24.3837 6.35679 23.6246 5.97727 22.8656 5.97727H5.97732L5.78756 4.83874C5.78756 4.83874 5.78756 4.74386 5.69268 4.74386C5.69268 4.64898 5.69268 4.64898 5.5978 4.5541C5.5978 4.45922 5.50293 4.45922 5.50293 4.36435L5.40805 4.26947C5.40805 4.26947 5.31317 4.17459 5.21829 4.17459C5.12341 4.17459 5.12341 4.07971 5.02854 4.07971C4.93366 4.07971 4.93366 4.07971 4.83878 4.07971H4.7439H0.94878C0.379512 4.07971 0 4.45922 0 5.02849C0 5.59776 0.379512 5.97727 0.94878 5.97727H3.98488L4.17463 7.11581L6.26195 19.45L6.45171 20.6834C6.64146 21.9168 7.59024 22.8656 8.82366 23.0553C8.72878 23.34 8.6339 23.7195 8.6339 24.0041C8.6339 25.617 9.86732 26.8504 11.4802 26.8504C13.0932 26.8504 14.3266 25.617 14.3266 24.0041C14.3266 23.6246 14.2317 23.34 14.1368 23.0553H17.3627C16.7934 24.5734 17.5524 26.1863 19.0705 26.6607C20.5885 27.23 22.2015 26.4709 22.6759 24.9529C22.8656 24.2887 22.8656 23.6246 22.6759 23.0553H22.8656C23.4349 23.0553 23.8144 22.6758 23.8144 22.1065C23.8144 21.5373 23.4349 21.1578 22.8656 21.1578H9.29805C8.82366 21.1578 8.44415 20.7782 8.34927 20.3987V20.209H21.5373C22.9605 20.209 24.099 19.1653 24.2888 17.837L25.6171 9.298ZM20.0193 23.0553C20.5885 23.0553 20.968 23.4348 20.968 24.0041C20.968 24.5734 20.5885 24.9529 20.0193 24.9529C19.45 24.9529 19.0705 24.5734 19.0705 24.0041C19.0705 23.4348 19.45 23.0553 20.0193 23.0553ZM11.4802 23.0553C12.0495 23.0553 12.429 23.4348 12.429 24.0041C12.429 24.5734 12.0495 24.9529 11.4802 24.9529C10.911 24.9529 10.5315 24.5734 10.5315 24.0041C10.5315 23.4348 10.911 23.0553 11.4802 23.0553Z" fill="#C7C9C7"/>
</svg>
