<svg width="17" height="27" viewBox="0 0 17 27" fill="none" xmlns="http://www.w3.org/2000/svg">
<path d="M16.7066 14.9267C16.5366 14.36 16.2533 13.7934 15.7999 13.34C15.4033 12.8867 14.9499 12.5467 14.3266 12.2067C13.6466 11.9234 13.0799 11.81 12.5699 11.81H5.14661C4.46661 11.81 3.84328 11.98 3.38994 12.2067C2.87994 12.4334 2.42661 12.7734 1.91661 13.34C1.51994 13.7934 1.23661 14.36 1.00994 14.9267C0.839942 15.55 0.783276 16.1734 0.896609 16.74L1.85994 23.37C1.97328 24.1634 2.36994 24.7867 2.93661 25.2967C3.55994 25.8067 4.29661 26.09 5.03328 26.09H12.7399C13.4766 26.09 14.1566 25.8067 14.8366 25.2967C15.4033 24.8434 15.7999 24.1634 15.9133 23.37L16.8766 16.74C16.9333 16.23 16.9333 15.55 16.7066 14.9267ZM15.2333 16.57L14.3833 23.2C14.3266 23.54 14.1566 23.9367 13.8733 24.1634C13.5333 24.4467 13.1933 24.56 12.8533 24.56H5.03328C4.63661 24.56 4.23994 24.39 4.01328 24.1634C3.67328 23.88 3.55994 23.4834 3.50328 23.2L2.53994 16.57C2.48328 16.1167 2.48328 15.72 2.59661 15.38C2.70994 15.04 2.87994 14.6434 3.16328 14.36C3.38994 14.0767 3.67328 13.85 4.06994 13.68C4.52328 13.51 4.86328 13.3967 5.20328 13.3967H12.6266C12.9666 13.3967 13.4199 13.51 13.7599 13.68C14.2133 13.85 14.4966 14.0767 14.6666 14.36L14.7233 14.4167C14.9499 14.7 15.1199 14.9834 15.2333 15.38C15.2333 15.6634 15.3466 16.06 15.2333 16.57Z" fill="#00C389"/>
<path d="M4.63661 6.76668C4.74995 7.78668 5.25995 8.75001 6.05328 9.48668C6.78995 10.1667 7.80995 10.5633 8.88661 10.5633C9.96328 10.5633 10.9833 10.1667 11.7199 9.48668C12.5133 8.75001 13.0233 7.78668 13.1366 6.82335L13.3633 5.35001C13.4199 4.89668 13.4199 4.16001 13.1933 3.53668C13.0233 2.97001 12.7399 2.40335 12.2866 1.95001C11.8333 1.44001 11.3799 1.10001 10.7566 0.81668C10.3033 0.533347 9.73661 0.420013 9.05661 0.420013H8.65995C7.97995 0.420013 7.35661 0.590013 6.90328 0.81668C6.39328 1.04335 5.93995 1.38335 5.42995 1.95001C5.03328 2.40335 4.74995 2.97001 4.52328 3.53668C4.35328 4.10335 4.29661 4.72668 4.35328 5.35001L4.63661 6.76668ZM5.99662 3.87668C6.10995 3.53668 6.27995 3.25335 6.61995 2.85668C6.84661 2.57335 7.12995 2.34668 7.52661 2.17668C7.97995 2.00668 8.31995 1.89335 8.65995 1.89335H8.94328C8.94328 1.95001 8.99995 1.95001 9.05661 1.95001C9.39661 1.95001 9.84995 2.06335 10.1899 2.23335C10.5866 2.40335 10.9266 2.63001 11.0966 2.91335C11.3799 3.25335 11.5499 3.53668 11.7199 3.93335C11.8333 4.38668 11.8899 4.72668 11.8333 5.12335L11.6066 6.59668C11.4933 7.27668 11.1533 7.90001 10.6999 8.35335C10.1899 8.80668 9.56661 9.03335 8.88661 9.03335C8.20661 9.03335 7.58328 8.80668 7.07328 8.35335C6.61995 7.95668 6.27995 7.27668 6.16661 6.65335L5.88328 5.06668C5.88328 4.72668 5.88328 4.27335 5.99662 3.87668Z" fill="#00C389"/>
</svg>
