<svg width="28" height="25" viewBox="0 0 28 25" fill="none" xmlns="http://www.w3.org/2000/svg">
<path fill-rule="evenodd" clip-rule="evenodd" d="M26.2074 2.33499C26.6106 2.52132 26.9675 2.7933 27.2526 3.13161C27.548 3.47274 27.7642 3.87388 27.8861 4.30674C28.0079 4.7396 28.0324 5.19365 27.9578 5.63689L26.423 14.8777C26.3087 15.5948 25.94 16.2481 25.3832 16.7204C24.8263 17.1927 24.1178 17.4531 23.3845 17.4549H9.00124L9.03235 17.6191C9.06935 17.8596 9.19229 18.0789 9.37879 18.2372C9.56529 18.3954 9.80298 18.4822 10.0486 18.4816H24.8882C25.1632 18.4816 25.427 18.5898 25.6215 18.7823C25.816 18.9749 25.9252 19.2361 25.9252 19.5084C25.9252 19.7807 25.816 20.0418 25.6215 20.2344C25.427 20.427 25.1632 20.5351 24.8882 20.5351H24.7015C24.8722 21.0004 24.927 21.4995 24.8614 21.9902C24.7959 22.481 24.6119 22.9488 24.3249 23.3542C24.038 23.7595 23.6567 24.0904 23.2132 24.3189C22.7697 24.5474 22.2771 24.6667 21.7772 24.6667C21.2773 24.6667 20.7847 24.5474 20.3412 24.3189C19.8977 24.0904 19.5163 23.7595 19.2294 23.3542C18.9425 22.9488 18.7585 22.481 18.6929 21.9902C18.6274 21.4995 18.6822 21.0004 18.8528 20.5351H15.3685C15.5238 20.9588 15.5834 21.4111 15.5429 21.86C15.5025 22.309 15.363 22.7436 15.1344 23.1334C14.9057 23.5232 14.5935 23.8585 14.2197 24.1157C13.8459 24.373 13.4196 24.5458 12.9709 24.6222C12.5223 24.6985 12.0622 24.6764 11.6231 24.5575C11.184 24.4385 10.7766 24.2256 10.4297 23.9338C10.0828 23.6419 9.80477 23.2783 9.61529 22.8684C9.42581 22.4586 9.32947 22.0126 9.33308 21.5619C9.33682 21.1965 9.40708 20.8348 9.54048 20.4941C8.9004 20.3895 8.30971 20.0884 7.85192 19.6333C7.39414 19.1782 7.09242 18.5921 6.98944 17.958L6.75093 16.6027V16.5924L4.51099 3.24455L4.30359 2.05351H1.03701C0.761977 2.05351 0.49821 1.94534 0.303733 1.75278C0.109256 1.56023 0 1.29907 0 1.02676C0 0.754444 0.109256 0.493284 0.303733 0.30073C0.49821 0.108176 0.761977 0 1.03701 0H5.18504C5.20578 0 5.22393 0.00513381 5.24208 0.0102676C5.26023 0.0154014 5.27837 0.0205351 5.29911 0.0205351C5.36932 0.0282668 5.43871 0.0420082 5.50652 0.0616053C5.56805 0.0827216 5.62715 0.110256 5.68281 0.143746C5.74422 0.171737 5.80034 0.209937 5.84873 0.256689C5.89869 0.295914 5.94392 0.340702 5.98354 0.390168C6.02407 0.441008 6.05885 0.496098 6.08724 0.554448C6.12647 0.612983 6.15133 0.67979 6.15983 0.749532C6.18326 0.784109 6.20077 0.822266 6.21168 0.862476L6.40871 2.05351H24.9193C25.3643 2.05256 25.8041 2.14867 26.2074 2.33499ZM22.3533 20.7082C22.1828 20.5953 21.9823 20.5351 21.7772 20.5351C21.5024 20.5359 21.2391 20.6444 21.0448 20.8368C20.8505 21.0291 20.741 21.2898 20.7402 21.5619C20.7402 21.765 20.801 21.9635 20.9149 22.1323C21.0289 22.3012 21.1908 22.4328 21.3803 22.5105C21.5698 22.5882 21.7783 22.6085 21.9795 22.5689C22.1807 22.5293 22.3654 22.4315 22.5105 22.2879C22.6555 22.1443 22.7543 21.9614 22.7943 21.7622C22.8343 21.563 22.8137 21.3566 22.7353 21.169C22.6568 20.9813 22.5239 20.821 22.3533 20.7082ZM13.0202 20.7082C12.8497 20.5953 12.6492 20.5351 12.4441 20.5351C12.1693 20.5359 11.906 20.6444 11.7117 20.8368C11.5174 21.0291 11.4079 21.2898 11.4071 21.5619C11.4071 21.765 11.4679 21.9635 11.5819 22.1323C11.6958 22.3012 11.8578 22.4328 12.0473 22.5105C12.2367 22.5882 12.4453 22.6085 12.6464 22.5689C12.8476 22.5293 13.0324 22.4315 13.1774 22.2879C13.3224 22.1443 13.4212 21.9614 13.4612 21.7622C13.5012 21.563 13.4807 21.3566 13.4022 21.169C13.3237 20.9813 13.1908 20.821 13.0202 20.7082Z" fill="#585858"/>
</svg>
