<svg width="30" height="30" viewBox="0 0 30 30" fill="none" xmlns="http://www.w3.org/2000/svg">
<path fill-rule="evenodd" clip-rule="evenodd" d="M3 0H10.5C12.15 0 13.5 1.35 13.5 3V10.5C13.5 12.15 12.15 13.5 10.5 13.5H3C1.35 13.5 0 12.15 0 10.5V3C0 1.35 1.35 0 3 0ZM3 16.5H10.5C12.15 16.5 13.5 17.85 13.5 19.5V27C13.5 28.65 12.15 30 10.5 30H3C1.35 30 0 28.65 0 27V19.5C0 17.85 1.35 16.5 3 16.5ZM19.5 16.5H27C28.65 16.5 30 17.85 30 19.5V27C30 28.65 28.65 30 27 30H19.5C17.85 30 16.5 28.65 16.5 27V19.5C16.5 17.85 17.85 16.5 19.5 16.5ZM30 6.75C30 10.4779 26.9779 13.5 23.25 13.5C19.5221 13.5 16.5 10.4779 16.5 6.75C16.5 3.02208 19.5221 0 23.25 0C26.9779 0 30 3.02208 30 6.75Z" fill="#00C389"/>
</svg>
