<svg width="62" height="65" viewBox="0 0 62 65" fill="none" xmlns="http://www.w3.org/2000/svg">
<path d="M30.7847 0C21.4615 0 13.8597 7.59098 13.8597 16.9009V24.5952H9.24982C4.18864 24.5952 0 28.7479 0 33.8019V55.3302C0 60.3842 4.18862 64.5369 9.24982 64.5369H52.3195C57.3807 64.5369 61.5633 60.3842 61.5633 55.3302V33.8019C61.5633 28.7479 57.3807 24.5952 52.3195 24.5952H47.7036V16.9009C47.7036 7.59098 40.1078 0 30.7847 0V0ZM30.7847 6.1518C36.8047 6.1518 41.5491 10.8894 41.5491 16.9009V24.5952H20.0142V16.9009C20.0142 10.8894 24.7646 6.1518 30.7847 6.1518ZM18.4756 41.4901C18.8797 41.4901 19.2799 41.5696 19.6532 41.724C20.0266 41.8785 20.3658 42.1048 20.6516 42.3902C20.9373 42.6755 21.164 43.0143 21.3186 43.3871C21.4733 43.7599 21.5529 44.1595 21.5529 44.563C21.5529 44.9666 21.4733 45.3662 21.3186 45.739C21.164 46.1118 20.9373 46.4506 20.6516 46.7359C20.3658 47.0212 20.0266 47.2476 19.6532 47.402C19.2799 47.5564 18.8797 47.6359 18.4756 47.6359C18.0715 47.6359 17.6713 47.5564 17.298 47.402C16.9246 47.2476 16.5854 47.0212 16.2996 46.7359C16.0139 46.4506 15.7872 46.1118 15.6326 45.739C15.4779 45.3662 15.3983 44.9666 15.3983 44.563C15.3983 44.1595 15.4779 43.7599 15.6326 43.3871C15.7872 43.0143 16.0139 42.6755 16.2996 42.3902C16.5854 42.1048 16.9246 41.8785 17.298 41.724C17.6713 41.5696 18.0715 41.4901 18.4756 41.4901V41.4901ZM30.7847 41.4901C31.1888 41.4901 31.5889 41.5696 31.9623 41.724C32.3356 41.8785 32.6749 42.1048 32.9606 42.3902C33.2464 42.6755 33.473 43.0143 33.6277 43.3871C33.7823 43.7599 33.8619 44.1595 33.8619 44.563C33.8619 44.9666 33.7823 45.3662 33.6277 45.739C33.473 46.1118 33.2464 46.4506 32.9606 46.7359C32.6749 47.0212 32.3356 47.2476 31.9623 47.402C31.5889 47.5564 31.1888 47.6359 30.7847 47.6359C30.3805 47.6359 29.9804 47.5564 29.607 47.402C29.2337 47.2476 28.8945 47.0212 28.6087 46.7359C28.3229 46.4506 28.0963 46.1118 27.9416 45.739C27.787 45.3662 27.7074 44.9666 27.7074 44.563C27.7074 44.1595 27.787 43.7599 27.9416 43.3871C28.0963 43.0143 28.3229 42.6755 28.6087 42.3902C28.8945 42.1048 29.2337 41.8785 29.607 41.724C29.9804 41.5696 30.3805 41.4901 30.7847 41.4901V41.4901ZM43.0937 41.4901C43.4978 41.4901 43.898 41.5696 44.2713 41.724C44.6447 41.8785 44.9839 42.1048 45.2697 42.3902C45.5554 42.6755 45.7821 43.0143 45.9367 43.3871C46.0914 43.7599 46.171 44.1595 46.171 44.563C46.171 44.9666 46.0914 45.3662 45.9367 45.739C45.7821 46.1118 45.5554 46.4506 45.2697 46.7359C44.9839 47.0212 44.6447 47.2476 44.2713 47.402C43.898 47.5564 43.4978 47.6359 43.0937 47.6359C42.6896 47.6359 42.2894 47.5564 41.9161 47.402C41.5427 47.2476 41.2035 47.0212 40.9178 46.7359C40.632 46.4506 40.4053 46.1118 40.2507 45.739C40.096 45.3662 40.0164 44.9666 40.0164 44.563C40.0164 44.1595 40.096 43.7599 40.2507 43.3871C40.4053 43.0143 40.632 42.6755 40.9178 42.3902C41.2035 42.1048 41.5427 41.8785 41.9161 41.724C42.2894 41.5696 42.6896 41.4901 43.0937 41.4901V41.4901Z" fill="#00C389"/>
</svg>
