<svg width="29" height="34" viewBox="0 0 29 34" fill="none" xmlns="http://www.w3.org/2000/svg">
<path d="M28.232 24.7562L27.1903 24.3048L20.8359 29.8952C20.4193 30.2425 19.8984 30.4508 19.3776 30.4508C19.0651 30.4508 18.7873 30.3813 18.4748 30.2772L1.73825 22.8464L0.27988 24.1312C-0.102074 24.4784 -0.032628 25.1382 0.453495 25.3465L19.0998 33.5759C19.3429 33.68 19.6554 33.6453 19.8637 33.4717L28.4403 25.9715C28.8223 25.6243 28.7181 24.9645 28.232 24.7562Z" fill="#9EA2A2"/>
<path d="M28.2319 20.0686L27.1902 19.6172L20.8359 25.2076C20.4192 25.5548 19.8984 25.7632 19.3775 25.7632C19.065 25.7632 18.7872 25.6937 18.4747 25.5896L1.73818 18.1588L0.24509 19.4436C-0.136864 19.7908 -0.067418 20.4505 0.418705 20.6589L19.065 28.8882C19.3081 28.9924 19.6206 28.9577 19.8289 28.7841L28.4055 21.2839C28.8222 20.9367 28.718 20.2769 28.2319 20.0686Z" fill="#9EA2A2"/>
<path d="M0.453476 15.9713L19.0998 24.2007C19.3428 24.3048 19.6553 24.2701 19.8637 24.0965L28.4403 16.5963C28.857 16.2491 28.7528 15.6241 28.2667 15.4157L22.1554 12.7073C20.5581 15.3463 17.6414 17.1519 14.3427 17.1519C10.037 17.1519 6.46057 14.131 5.55777 10.1378L0.245138 14.7907C-0.136816 15.1379 -0.0326469 15.763 0.453476 15.9713Z" fill="#9EA2A2"/>
<path d="M14.3426 15.6935C18.4746 15.6935 21.8428 12.3253 21.8428 8.1933C21.8428 4.06126 18.4746 0.693115 14.3426 0.693115C10.2105 0.693115 6.84241 4.06126 6.84241 8.1933C6.84241 12.3253 10.1758 15.6935 14.3426 15.6935ZM14.8982 8.92249H13.7523C12.4328 8.92249 11.3911 7.84607 11.3911 6.52659C11.3911 5.27656 12.3634 4.26959 13.6134 4.16542V3.05429H15.1065V4.20015C16.3218 4.30432 17.3288 5.31129 17.3288 6.56132H15.8357C15.8357 6.07519 15.419 5.65852 14.9329 5.65852H13.787C13.3009 5.65852 12.8842 6.07519 12.8842 6.56132C12.8842 7.04744 13.3009 7.46412 13.787 7.46412H14.9329C16.2524 7.46412 17.3288 8.54053 17.3288 9.86001C17.3288 11.11 16.3565 12.117 15.1065 12.2212V13.3323H13.6134V12.2212C12.3981 12.117 11.3911 11.11 11.3911 9.86001H12.8842C12.8842 10.3461 13.3009 10.7628 13.787 10.7628H14.9329C15.419 10.7628 15.8357 10.3461 15.8357 9.86001C15.801 9.30444 15.419 8.92249 14.8982 8.92249Z" fill="#9EA2A2"/>
</svg>
