<svg width="31" height="31" viewBox="0 0 31 31" fill="none" xmlns="http://www.w3.org/2000/svg">
<g filter="url(#filter0_d_2440_36764)">
<circle cx="14.0967" cy="14.3852" r="11.4443" fill="#C4D600"/>
</g>
<path d="M8.55947 9.98739C9.04103 10.2653 9.20606 10.881 8.92796 11.3625C8.65006 11.8441 8.03437 12.0091 7.55281 11.731C7.07125 11.4531 6.90623 10.8373 7.18432 10.3559C7.46223 9.87432 8.07809 9.7093 8.55947 9.98739Z" fill="#071D49"/>
<path d="M11.4398 7.84371C11.7179 8.32527 11.5529 8.94094 11.0715 9.21886C10.5899 9.49694 9.97427 9.33192 9.69617 8.85037C9.41826 8.36899 9.58311 7.75332 10.0647 7.47522C10.5462 7.19731 11.1619 7.36216 11.4398 7.84371" fill="#071D49"/>
<path d="M12.5868 10.3586V13.8822C12.5868 14.4163 12.799 14.9283 13.1767 15.3058C13.5541 15.6834 14.0662 15.8957 14.6003 15.8957H17.6203V13.8822H14.6003V10.3586H12.5868Z" fill="#071D49"/>
<path d="M14.0969 6.33179H13.0902V8.34525H14.0969C15.6988 8.34525 17.2353 8.98164 18.368 10.1143C19.5007 11.247 20.137 12.7835 20.137 14.3854C20.137 15.9874 19.5007 17.5239 18.368 18.6565C17.2353 19.7892 15.6988 20.4256 14.0969 20.4256C12.4949 20.4256 10.9584 19.7892 9.82575 18.6565C8.69307 17.5239 8.05668 15.9874 8.05668 14.3854V13.3788H6.04321V14.3854C6.04321 16.5214 6.89168 18.5698 8.40197 20.0801C9.91245 21.5904 11.9609 22.4389 14.0966 22.4389C16.2324 22.4389 18.281 21.5904 19.7913 20.0801C21.3016 18.5696 22.1501 16.5212 22.1501 14.3854C22.1501 12.2497 21.3016 10.2011 19.7913 8.69077C18.2808 7.18048 16.2324 6.33201 14.0966 6.33201L14.0969 6.33179Z" fill="#071D49"/>
<defs>
<filter id="filter0_d_2440_36764" x="0.956889" y="0.397736" width="29.6705" height="29.6705" filterUnits="userSpaceOnUse" color-interpolation-filters="sRGB">
<feFlood flood-opacity="0" result="BackgroundImageFix"/>
<feColorMatrix in="SourceAlpha" type="matrix" values="0 0 0 0 0 0 0 0 0 0 0 0 0 0 0 0 0 0 127 0" result="hardAlpha"/>
<feOffset dx="1.69545" dy="0.847727"/>
<feGaussianBlur stdDeviation="1.69545"/>
<feComposite in2="hardAlpha" operator="out"/>
<feColorMatrix type="matrix" values="0 0 0 0 0 0 0 0 0 0 0 0 0 0 0 0 0 0 0.25 0"/>
<feBlend mode="normal" in2="BackgroundImageFix" result="effect1_dropShadow_2440_36764"/>
<feBlend mode="normal" in="SourceGraphic" in2="effect1_dropShadow_2440_36764" result="shape"/>
</filter>
</defs>
</svg>
