<svg width="24" height="24" viewBox="0 0 24 24" fill="none" xmlns="http://www.w3.org/2000/svg">
<path d="M14.5244 16.4497C14.9103 16.0655 14.9103 16.0655 15.3737 15.6044C15.8036 15.1767 16.1417 14.8407 16.3574 14.6271C17.4315 13.5626 18.8665 13.5624 19.9427 14.6286C20.943 15.6197 21.9563 16.6322 22.9873 17.6706C24.0762 18.7677 24.0693 20.2033 22.976 21.3064C22.7597 21.5246 22.4052 21.7843 21.9235 22.0944C21.816 22.1636 21.7031 22.2346 21.5853 22.3073C21.268 22.5029 20.9295 22.7018 20.5912 22.894C20.3882 23.0093 20.2299 23.097 20.1518 23.1392C18.914 23.8531 16.9034 24.0076 15.6138 23.5094C15.4843 23.47 15.2528 23.3914 14.9339 23.2702C14.4087 23.0708 13.8253 22.8221 13.198 22.5208C11.4088 21.6616 9.62032 20.5512 7.94911 19.1611C7.27799 18.6029 6.63822 18.0088 6.03436 17.3776C5.54716 16.8684 5.0841 16.3379 4.64455 15.7882C3.19735 13.9784 2.06098 12.0417 1.19926 10.1042C0.897177 9.42509 0.650725 8.79345 0.455538 8.22504C0.337041 7.87995 0.26126 7.62971 0.240279 7.54202C-0.245111 6.20565 0.0300395 4.19406 0.839236 3.01031C0.889802 2.93206 0.978437 2.79783 1.09511 2.62603C1.28952 2.33977 1.49159 2.05332 1.69177 1.78459C1.77862 1.66799 1.86347 1.557 1.94594 1.45239C2.15746 1.18405 2.34948 0.962258 2.52185 0.792693C3.59782 -0.265266 5.03021 -0.263789 6.10814 0.794475C6.54752 1.22556 8.44548 3.12443 9.13207 3.81678C10.2432 4.93809 10.2457 6.35542 9.13601 7.47039C8.96955 7.63769 8.60793 7.99994 8.10911 8.49922C7.68546 8.92322 7.68546 8.92322 7.33343 9.27543C7.15178 9.45715 7.0873 9.52166 7.04551 9.56346C7.11616 9.74286 7.23329 10.0201 7.39295 10.3652C7.70198 11.0331 8.05611 11.7007 8.44786 12.3205C8.87475 12.9958 9.32013 13.5713 9.77495 14.0146C10.195 14.424 10.696 14.8203 11.2609 15.1994C11.9201 15.6419 12.63 16.0379 13.3402 16.3803C13.7081 16.5578 14.0034 16.6869 14.2045 16.7683C14.2502 16.7228 14.3188 16.6544 14.5244 16.4497ZM7.01533 9.48536C7.01624 9.48774 7.01715 9.49016 7.01807 9.49259C7.01734 9.4904 7.01636 9.48791 7.01533 9.48536ZM22.0982 18.5528C21.0697 17.5169 20.0588 16.5067 19.061 15.5182C18.4731 14.9358 17.8251 14.9358 17.2391 15.5166C17.0242 15.7295 16.6866 16.065 16.2598 16.4896C15.7941 16.9529 15.7941 16.9529 15.4084 17.337C15.0998 17.6443 15.0998 17.6443 15.0227 17.7211C14.7159 18.0267 14.2035 18.1247 13.8217 17.9637C13.6111 17.8821 13.253 17.7287 12.796 17.5083C12.0359 17.1418 11.2756 16.7177 10.5627 16.2392C9.93853 15.8203 9.37909 15.3778 8.9005 14.9113C8.36774 14.392 7.86438 13.7417 7.38896 12.9895C6.96536 12.3194 6.58642 11.605 6.25605 10.8909C6.05746 10.4617 5.91822 10.1256 5.84828 9.94014C5.68937 9.54471 5.79667 9.04112 6.09544 8.74225C6.16581 8.67186 6.16582 8.67186 6.44738 8.39018C6.79934 8.03804 6.79934 8.03804 7.22167 7.61537C7.72099 7.11559 8.08233 6.75361 8.248 6.5871C8.87114 5.96101 8.87002 5.33176 8.24237 4.69836C7.55975 4.01001 5.66494 2.1143 5.23063 1.68818C4.63954 1.10788 3.98842 1.10721 3.40029 1.6855C3.2717 1.81199 3.11147 1.99707 2.92975 2.22759C2.85469 2.32281 2.77672 2.42481 2.6964 2.53262C2.50827 2.78518 2.31634 3.05725 2.13144 3.32952C2.02053 3.49283 1.93706 3.61924 1.88245 3.70337C1.28915 4.57156 1.07163 6.16181 1.43406 7.1666C1.46411 7.27902 1.53151 7.50157 1.6403 7.81838C1.82392 8.35313 2.0571 8.95075 2.34383 9.59539C3.16439 11.4403 4.24722 13.2858 5.62294 15.0062C6.03968 15.5273 6.47838 16.0299 6.93956 16.512C7.50993 17.1081 8.11493 17.67 8.75023 18.1984C10.3369 19.5181 12.039 20.5749 13.7404 21.392C14.3348 21.6774 14.8858 21.9123 15.3787 22.0995C15.6706 22.2104 15.8755 22.28 16.0213 22.3261C17.001 22.7032 18.6162 22.5791 19.5397 22.0467C19.6251 22.0003 19.7768 21.9162 19.9725 21.8051C20.2986 21.6198 20.6246 21.4283 20.9276 21.2414C21.0388 21.1729 21.145 21.1061 21.2454 21.0414C21.654 20.7784 21.9528 20.5594 22.0863 20.4249C22.6975 19.8081 22.7006 19.1598 22.0982 18.5528Z" fill="#00C389"/>
</svg>
