<svg width="39" height="39" viewBox="0 0 39 39" fill="none" xmlns="http://www.w3.org/2000/svg">
<ellipse cx="19.5001" cy="19.0668" rx="19.5001" ry="19.0668" fill="#00C389"/>
<path d="M19.9331 8.43564C17.9717 8.43564 16.0906 9.21481 14.7037 10.6018C13.3167 11.9887 12.5375 13.8698 12.5375 15.8312C12.5375 19.919 19.9331 29.9501 19.9331 29.9501C19.9331 29.9501 27.3287 19.919 27.3287 15.8312C27.3287 13.8698 26.5495 11.9887 25.1626 10.6018C23.7757 9.21481 21.8946 8.43564 19.9331 8.43564ZM19.9331 19.1929C19.2683 19.1929 18.6183 18.9957 18.0655 18.6263C17.5127 18.2569 17.0818 17.7319 16.8274 17.1177C16.5729 16.5034 16.5064 15.8275 16.6361 15.1754C16.7658 14.5233 17.086 13.9243 17.5561 13.4542C18.0262 12.9841 18.6252 12.6639 19.2773 12.5342C19.9294 12.4045 20.6053 12.4711 21.2196 12.7255C21.8338 12.9799 22.3588 13.4108 22.7282 13.9636C23.0976 14.5164 23.2948 15.1664 23.2948 15.8312C23.2948 16.2727 23.2078 16.7098 23.0389 17.1177C22.8699 17.5255 22.6223 17.8961 22.3102 18.2083C21.998 18.5204 21.6274 18.768 21.2196 18.937C20.8117 19.1059 20.3746 19.1929 19.9331 19.1929Z" fill="white"/>
</svg>
