<svg width="39" height="39" viewBox="0 0 39 39" fill="none" xmlns="http://www.w3.org/2000/svg">
<g filter="url(#filter0_d)">
<circle cx="17.1226" cy="18.1226" r="14.1226" fill="#C4D600"/>
<circle cx="17.1226" cy="18.1226" r="14.1226" stroke="#EFEFEF" stroke-width="0.863973"/>
</g>
<path d="M10.2422 17.9347C10.2422 18.2453 10.3659 18.5217 10.5686 18.7243C10.7712 18.927 11.0502 19.0533 11.3582 19.0507L16.1956 19.0507V23.8881C16.1956 24.1987 16.3193 24.4751 16.522 24.6777C16.7246 24.8804 17.0036 25.0067 17.3115 25.0041C17.9274 25.0041 18.4275 24.504 18.4275 23.8881L18.4275 19.0507L23.2649 19.0507C23.8808 19.0507 24.3809 18.5506 24.3809 17.9347C24.3809 17.3189 23.8808 16.8188 23.2649 16.8188L18.4275 16.8188L18.4275 11.9814C18.4275 11.3655 17.9274 10.8654 17.3115 10.8654C16.6957 10.8654 16.1956 11.3655 16.1956 11.9814L16.1956 16.8188L11.3582 16.8188C10.7397 16.8162 10.2396 17.3162 10.2422 17.9347Z" fill="white" stroke="white" stroke-width="0.129596"/>
<defs>
<filter id="filter0_d" x="0.265505" y="0.690963" width="37.749" height="37.749" filterUnits="userSpaceOnUse" color-interpolation-filters="sRGB">
<feFlood flood-opacity="0" result="BackgroundImageFix"/>
<feColorMatrix in="SourceAlpha" type="matrix" values="0 0 0 0 0 0 0 0 0 0 0 0 0 0 0 0 0 0 127 0"/>
<feOffset dx="2.01738" dy="1.44283"/>
<feGaussianBlur stdDeviation="2.15993"/>
<feColorMatrix type="matrix" values="0 0 0 0 0 0 0 0 0 0 0 0 0 0 0 0 0 0 0.15 0"/>
<feBlend mode="normal" in2="BackgroundImageFix" result="effect1_dropShadow"/>
<feBlend mode="normal" in="SourceGraphic" in2="effect1_dropShadow" result="shape"/>
</filter>
</defs>
</svg>
