<svg width="28" height="28" viewBox="0 0 28 28" fill="none" xmlns="http://www.w3.org/2000/svg">
<path d="M13.9995 14L24.7251 22.9996C23.2118 24.8027 21.2684 26.1952 19.0744 27.0483C16.8804 27.9014 14.5067 28.1875 12.1728 27.8802C9.83894 27.5729 7.62022 26.6821 5.72184 25.2902C3.82345 23.8983 2.30669 22.0502 1.31181 19.9168C0.316935 17.7834 -0.123941 15.4336 0.0299537 13.0847C0.183849 10.7358 0.927546 8.46366 2.19228 6.47832C3.457 4.49297 5.20193 2.85856 7.2657 1.72622C9.32947 0.593885 11.6454 0.000176083 13.9995 0V14ZM15.293 0V0.474783L16.0508 0.0213044C15.7982 5.21541e-08 15.5456 0 15.293 0ZM17.5239 0.20087L15.293 1.52174V2.6813L18.8966 0.541739C18.4454 0.403847 17.9872 0.290063 17.5239 0.20087V0.20087ZM19.9984 0.946522L15.293 3.75261V4.91217L21.0758 1.46391C20.7261 1.2724 20.3665 1.09969 19.9984 0.946522V0.946522ZM21.9463 2.00261L15.293 5.95913V7.1187L22.8076 2.64478C22.5324 2.41527 22.2448 2.2009 21.9463 2.00261V2.00261ZM23.5137 3.28391L15.296 8.19V9.34957L24.2016 4.03261C23.986 3.77077 23.7564 3.52084 23.5137 3.28391V3.28391ZM24.7555 4.76304L15.293 10.4087V11.5652L25.2821 5.60609C25.1217 5.31587 24.9459 5.03446 24.7555 4.76304V4.76304ZM25.5468 20.5709C26.9303 18.9215 27.7729 16.8864 27.9602 14.7418C28.1475 12.5972 27.6705 10.4468 26.5938 8.58261L26.2895 8.05609L16.4526 13.7352L25.1542 21.0396L25.5468 20.5709ZM25.8269 9.73913C26.5766 11.26 26.895 12.9573 26.7475 14.6465C26.5999 16.3357 25.992 17.9522 24.9899 19.32L18.5649 13.9209L25.8269 9.73913Z" fill="#071D49"/>
</svg>
