<svg width="54" height="54" viewBox="0 0 54 54" fill="none" xmlns="http://www.w3.org/2000/svg">
<path d="M40.4387 35.718C39.9381 35.2167 39.3433 34.819 38.6884 34.5477C38.0335 34.2763 37.3313 34.1366 36.6221 34.1366C35.913 34.1366 35.2108 34.2763 34.5559 34.5477C33.9009 34.819 33.3061 35.2167 32.8056 35.718L30.2013 38.3166C27.2691 36.4597 24.5525 34.2838 22.1012 31.829C19.6411 29.383 17.4605 26.6722 15.5996 23.7463L18.2038 21.1476C18.7061 20.6481 19.1047 20.0546 19.3767 19.4011C19.6486 18.7476 19.7886 18.0469 19.7886 17.3393C19.7886 16.6317 19.6486 15.931 19.3767 15.2775C19.1047 14.6239 18.7061 14.0304 18.2038 13.5309L13.1211 8.477C12.6276 7.97411 12.0378 7.57535 11.3868 7.30442C10.7358 7.03349 10.0368 6.89592 9.33144 6.89989V6.89989C8.62108 6.89816 7.91739 7.0366 7.26085 7.30727C6.60431 7.57793 6.00789 7.97547 5.5059 8.477L3.0633 10.8964C1.89906 12.1455 1.03014 13.6391 0.520413 15.2673C0.0106877 16.8955 -0.126886 18.6171 0.117806 20.3053C0.692535 27.0259 5.11077 35.1086 11.9177 41.9189C18.7247 48.7291 26.9146 53.1199 33.6497 53.7651C34.1522 53.7919 34.6558 53.7919 35.1584 53.7651C36.6082 53.8258 38.0555 53.5971 39.4156 53.0924C40.7757 52.5877 42.0211 51.8172 43.0789 50.8259L45.5035 48.3886C46.0061 47.8877 46.4045 47.2925 46.6758 46.6374C46.947 45.9823 47.0857 45.2801 47.084 44.5713C47.088 43.8674 46.9501 43.17 46.6786 42.5204C46.4071 41.8708 46.0075 41.2822 45.5035 40.7898L40.4387 35.718Z" fill="#00C389"/>
<path d="M46.0962 7.86767C43.6002 5.36754 40.6329 3.38517 37.3654 2.03485C34.0979 0.684528 30.5949 -0.00702823 27.0582 5.38484e-05C26.5819 5.38484e-05 26.1251 0.188871 25.7883 0.524968C25.4514 0.861064 25.2622 1.31691 25.2622 1.79222C25.2622 2.26753 25.4514 2.72338 25.7883 3.05948C26.1251 3.39557 26.5819 3.58439 27.0582 3.58439C30.1411 3.58428 33.1934 4.19338 36.0392 5.37653C38.8849 6.55968 41.4676 8.29346 43.6383 10.4778C45.809 12.6622 47.5247 15.2539 48.6864 18.1033C49.8481 20.9528 50.4327 24.0036 50.4066 27.0797C50.4066 27.555 50.5959 28.0109 50.9327 28.347C51.2695 28.6831 51.7263 28.8719 52.2027 28.8719C52.679 28.8719 53.1358 28.6831 53.4727 28.347C53.8095 28.0109 53.9987 27.555 53.9987 27.0797C54.0331 23.5132 53.3516 19.9759 51.9944 16.6763C50.6372 13.3767 48.6317 10.3817 46.0962 7.86767V7.86767Z" fill="#00C389"/>
<path d="M35.8766 18.1189C36.8959 19.1298 37.7023 20.334 38.2482 21.6605C38.7941 22.987 39.0687 24.4091 39.0556 25.8431C39.0556 26.3184 39.2448 26.7743 39.5817 27.1104C39.9185 27.4465 40.3753 27.6353 40.8516 27.6353C41.328 27.6353 41.7848 27.4465 42.1216 27.1104C42.4585 26.7743 42.6477 26.3184 42.6477 25.8431C42.6715 23.9453 42.3174 22.0616 41.6059 20.3014C40.8945 18.5412 39.8399 16.9394 38.5033 15.589C37.1668 14.2386 35.5748 13.1665 33.8197 12.4348C32.0647 11.7031 30.1815 11.3264 28.2794 11.3265C27.8031 11.3265 27.3463 11.5154 27.0094 11.8515C26.6726 12.1875 26.4834 12.6434 26.4834 13.1187C26.4834 13.594 26.6726 14.0499 27.0094 14.386C27.3463 14.7221 27.8031 14.9109 28.2794 14.9109C29.6948 14.9215 31.0943 15.2103 32.3978 15.7607C33.7014 16.3112 34.8835 17.1125 35.8766 18.1189Z" fill="#00C389"/>
</svg>
