<svg width="34" height="31" viewBox="0 0 34 31" fill="none" xmlns="http://www.w3.org/2000/svg">
<path d="M26.1685 5.46906C26.8608 5.46906 27.4146 4.91523 27.4146 4.22294V1.24611C27.4146 0.553829 26.8608 0 26.1685 0C25.4762 0 24.9224 0.553829 24.9224 1.24611V4.22294C24.9224 4.91523 25.4762 5.46906 26.1685 5.46906Z" fill="#00C389"/>
<path d="M16.6841 5.46906C17.3764 5.46906 17.9302 4.91523 17.9302 4.22294V1.24611C17.9302 0.553829 17.3764 0 16.6841 0C15.9918 0 15.438 0.553829 15.438 1.24611V4.22294C15.438 4.91523 15.9918 5.46906 16.6841 5.46906Z" fill="#00C389"/>
<path d="M7.13064 5.46906C7.82292 5.46906 8.37675 4.91523 8.37675 4.22294V1.24611C8.37675 0.553829 7.82292 0 7.13064 0C6.43835 0 5.88452 0.553829 5.88452 1.24611V4.22294C5.88452 4.91523 6.43835 5.46906 7.13064 5.46906Z" fill="#00C389"/>
<path d="M8.446 13.1534H6.36914V15.2303H8.446V13.1534Z" fill="#00C389"/>
<path d="M17.7226 13.1534H15.6458V15.2303H17.7226V13.1534Z" fill="#00C389"/>
<path d="M26.9992 13.1534H24.9224V15.2303H26.9992V13.1534Z" fill="#00C389"/>
<path d="M8.446 22.2916H6.36914V24.3685H8.446V22.2916Z" fill="#00C389"/>
<path d="M17.7226 22.2916H15.6458V24.3685H17.7226V22.2916Z" fill="#00C389"/>
<path d="M33.2989 5.81512C33.2989 4.70747 32.399 3.8075 31.2913 3.8075H29.5606V4.22287C29.5606 6.09204 28.0376 7.61507 26.1684 7.61507C24.2992 7.61507 22.7762 6.09204 22.7762 4.22287V3.8075H20.0763V4.22287C20.0763 6.09204 18.5533 7.61507 16.6841 7.61507C14.8149 7.61507 13.2919 6.09204 13.2919 4.22287V3.8075H10.592V4.22287C10.592 6.09204 9.06894 7.61507 7.19977 7.61507C5.3306 7.61507 3.80757 6.09204 3.80757 4.22287V3.8075H2.00763C0.899972 3.8075 0.0692286 4.70747 0 5.81512V28.6606C0 29.7682 0.899972 30.6682 2.00763 30.6682H31.3605C32.4682 30.6682 33.3682 29.7682 33.3682 28.6606L33.2989 5.81512ZM10.592 25.476C10.592 26.0991 10.1074 26.5837 9.48432 26.5837H5.26137C4.63831 26.5837 4.15371 26.0991 4.15371 25.476V21.1839C4.15371 20.5608 4.63831 20.0762 5.26137 20.0762H9.48432C10.1074 20.0762 10.592 20.5608 10.592 21.1839V25.476ZM10.592 16.4071C10.592 17.0302 10.1074 17.5148 9.48432 17.5148H5.26137C4.63831 17.5148 4.15371 17.0302 4.15371 16.4071V12.1149C4.15371 11.4919 4.63831 11.0073 5.26137 11.0073H9.48432C10.1074 11.0073 10.592 11.4226 10.592 12.1149V16.4071ZM19.9378 25.476C19.9378 26.0991 19.4532 26.5837 18.8302 26.5837H14.6072C13.9842 26.5837 13.4996 26.0991 13.4996 25.476V21.1839C13.4996 20.5608 13.9842 20.0762 14.6072 20.0762H18.7609C19.384 20.0762 19.9378 20.5608 19.9378 21.1839V25.476ZM19.9378 16.4071C19.9378 17.0302 19.4532 17.5148 18.8302 17.5148H14.6072C13.9842 17.5148 13.4996 17.0302 13.4996 16.4071V12.1149C13.4996 11.4919 13.9842 11.0073 14.6072 11.0073H18.7609C19.384 11.0073 19.9378 11.4226 19.9378 12.1149V16.4071ZM29.2145 25.476C29.2145 26.0991 28.7299 26.5837 28.1068 26.5837H23.8839C23.2608 26.5837 22.7762 26.0991 22.7762 25.476V21.1839C22.7762 20.5608 23.2608 20.0762 23.8839 20.0762H28.1068C28.7299 20.0762 29.2145 20.5608 29.2145 21.1839V25.476ZM29.2145 16.3379C29.2145 16.9609 28.7299 17.4455 28.1068 17.4455H23.8839C23.2608 17.4455 22.7762 16.9609 22.7762 16.3379V12.0457C22.7762 11.4226 23.2608 10.938 23.8839 10.938H28.1068C28.7299 10.938 29.2145 11.4226 29.2145 12.0457V16.3379Z" fill="#00C389"/>
<path d="M26.9992 22.2916H24.9224V24.3685H26.9992V22.2916Z" fill="#00C389"/>
</svg>
