<svg width="21" height="22" viewBox="0 0 21 22" fill="none" xmlns="http://www.w3.org/2000/svg">
<path d="M20.007 18.689L16.2685 14.9272L16.515 14.5138C17.501 13.0256 17.994 11.3307 17.994 9.55315C17.994 4.55118 13.9679 0.5 8.99699 0.5C4.02605 0.5 0 4.55118 0 9.55315C0 14.5551 4.02605 18.6063 8.99699 18.6063C10.517 18.6063 11.996 18.1929 13.3517 17.4488L13.7214 17.2421L17.501 21.0453C17.8297 21.3346 18.2405 21.5 18.7335 21.5C19.2265 21.5 19.6784 21.3346 19.9659 21.0453C20.2946 20.7146 20.4589 20.3012 20.5 19.8878C20.5 19.4331 20.2946 19.0197 20.007 18.689ZM9.03807 15.5472C5.7515 15.5472 3.04008 12.8602 3.04008 9.51181C3.04008 6.20473 5.71042 3.47638 9.03807 3.47638C12.3657 3.47638 15.0361 6.20473 15.0361 9.51181C15.0361 12.8189 12.3657 15.5472 9.03807 15.5472Z" fill="#071D49"/>
</svg>
