<svg width="90" height="88" viewBox="0 0 90 88" fill="none" xmlns="http://www.w3.org/2000/svg">
<path d="M84.5856 2.94641C70.1912 19.7108 55.7968 36.475 41.4023 53.2394C35.7708 46.9723 30.1392 40.7051 24.5076 34.4378C21.7113 31.326 17.1357 35.9258 19.9205 39.025C26.334 46.1621 32.7474 53.2995 39.1609 60.4369C40.2699 61.671 42.6489 61.7168 43.748 60.4369C58.8896 42.8024 74.031 25.168 89.1726 7.53341C91.8791 4.38135 87.3108 -0.227444 84.5856 2.94641Z" fill="#00C389"/>
<path d="M79.1979 31.2113C84.6925 48.9306 77.5737 68.2277 60.739 76.7866C45.7018 84.4318 26.7736 80.7284 15.7052 68.0112C4.60569 55.2582 3.48965 36.1098 13.1033 22.1818C24.3171 5.93551 45.9917 1.79625 62.9588 11.2971C66.6055 13.3389 69.8799 7.73774 66.233 5.69562C35.6878 -11.4082 -3.55593 12.1452 0.258066 47.9092C3.76977 80.8383 42.8675 98.6292 69.7577 78.8063C85.2049 67.4188 91.0863 47.653 85.4532 29.4868C84.2207 25.5119 77.9565 27.208 79.1979 31.2113Z" fill="#00C389"/>
</svg>
