<svg width="22" height="30" viewBox="0 0 22 30" fill="none" xmlns="http://www.w3.org/2000/svg">
<path fill-rule="evenodd" clip-rule="evenodd" d="M20.015 0.0253171C20.1858 0.000594755 20.5808 -0.0565914 20.8471 0.165292C21.0076 0.302897 21.0994 0.509304 21.0764 0.715711V28.6494C21.0764 28.8558 20.9847 29.0623 20.8242 29.1999C20.5719 29.3833 20.2737 29.4292 19.9756 29.3375L18.0721 28.9017L15.6411 29.3375H15.4805L13.0495 28.9017L10.6185 29.3375H10.4579L8.004 28.9017L5.57299 29.3375H5.41245L2.98143 28.9017L1.10084 29.3375C1.09087 29.3387 1.08022 29.3401 1.06895 29.3416C0.872904 29.367 0.489595 29.4167 0.229341 29.1999C0.0917364 29.0623 0 28.8558 0 28.6494V0.715711C0 0.509304 0.0917364 0.302897 0.229341 0.188227C0.481616 0.0276879 0.779759 -0.0411144 1.0779 0.050622L2.98143 0.48637L5.41245 0.050622H5.57299L8.02693 0.48637L10.4579 0.050622H10.6185L13.0724 0.48637L15.5034 0.050622H15.664L18.095 0.463436L19.9756 0.0276879H19.9985C20.0038 0.0269422 20.0092 0.026148 20.015 0.0253171ZM14.9072 14.9119C14.9072 12.5038 12.9578 10.5544 10.5497 10.5544C8.1416 10.5544 6.19221 12.5038 6.19221 14.9119C6.19221 17.32 8.1416 19.2694 10.5497 19.2694C12.9578 19.2694 14.9072 17.32 14.9072 14.9119ZM14.2191 21.5628C14.4714 21.5628 14.6778 21.3564 14.6778 21.1041C14.6778 20.8518 14.4714 20.6454 14.2191 20.6454H6.88023C6.62795 20.6454 6.42155 20.8518 6.42155 21.1041C6.42155 21.3564 6.62795 21.5628 6.88023 21.5628H14.2191ZM2.52275 26.6083C2.52275 26.8606 2.72916 27.067 2.98143 27.067H18.1179C18.3702 27.067 18.5766 26.8606 18.5766 26.6083C18.5766 26.356 18.3702 26.1496 18.1179 26.1496H2.98143C2.72916 26.1496 2.52275 26.356 2.52275 26.6083ZM2.98143 25.2323H18.1179C18.3702 25.2323 18.5766 25.0259 18.5766 24.7736C18.5766 24.5213 18.3702 24.3149 18.1179 24.3149H2.98143C2.72916 24.3149 2.52275 24.5213 2.52275 24.7736C2.52275 25.0259 2.72916 25.2323 2.98143 25.2323ZM2.98143 23.3975H18.1179C18.3702 23.3975 18.5766 23.1911 18.5766 22.9389C18.5766 22.6866 18.3702 22.4802 18.1179 22.4802H2.98143C2.72916 22.4802 2.52275 22.6866 2.52275 22.9389C2.52275 23.1911 2.72916 23.3975 2.98143 23.3975ZM9.83873 15.7834C9.97634 16.1962 10.4809 16.5173 10.8937 16.3109C10.9396 16.288 10.9854 16.265 10.9854 16.1962C11.146 16.0586 11.146 15.8293 11.0084 15.6687C10.8249 15.5311 10.6185 15.4394 10.4121 15.3935C10.0222 15.2789 9.49472 15.1183 9.21951 14.5908C8.92137 14.0404 9.01311 13.3295 9.49472 12.8937C9.65526 12.7561 9.86167 12.6644 10.0681 12.5956V12.3892C10.0681 12.1369 10.2745 11.9305 10.5268 11.9305C10.779 11.9305 10.9854 12.1369 10.9854 12.3892V12.5726C11.5359 12.7332 11.9716 13.1919 12.1092 13.7423C12.178 13.9716 12.0404 14.2239 11.7881 14.2927C11.5588 14.3615 11.3065 14.2239 11.2377 13.9716C11.1689 13.7423 10.9854 13.5359 10.7332 13.4671C10.2974 13.3753 9.76993 13.6964 10.0451 14.178C10.1332 14.3761 10.3478 14.4474 10.6689 14.5542C10.6825 14.5587 10.6963 14.5633 10.7102 14.5679C11.1689 14.7055 11.7881 14.9119 11.9945 15.6229C12.178 16.2421 11.8569 16.8843 11.2836 17.1595C11.1919 17.2053 11.1001 17.2283 11.0084 17.2512L11.0084 17.2512V17.4347C11.0084 17.6869 10.802 17.8934 10.5497 17.8934C10.2974 17.8934 10.091 17.6869 10.091 17.4347V17.2053C10.0681 17.1939 10.0394 17.1824 10.0107 17.1709C9.98207 17.1595 9.9534 17.148 9.93047 17.1365C9.47179 16.9301 9.12778 16.5402 8.96724 16.0586C8.89843 15.8063 9.01311 15.5541 9.26538 15.4853C9.51766 15.4165 9.76993 15.5311 9.83873 15.7834Z" fill="#071D49"/>
</svg>
