<svg width="27" height="26" viewBox="0 0 27 26" fill="none" xmlns="http://www.w3.org/2000/svg">
<path d="M26.385 13.6617V24.2758C26.385 24.5824 26.2632 24.8765 26.0463 25.0934C25.8295 25.3102 25.5354 25.432 25.2288 25.432H18.2914C17.9848 25.432 17.6907 25.3102 17.4739 25.0934C17.257 24.8765 17.1352 24.5824 17.1352 24.2758V21.5702C17.1352 20.5246 16.7198 19.5217 15.9804 18.7823C15.241 18.0429 14.2382 17.6275 13.1925 17.6275C12.1468 17.6275 11.144 18.0429 10.4046 18.7823C9.66517 19.5217 9.24978 20.5246 9.24978 21.5702V24.2758C9.24978 24.5824 9.12796 24.8765 8.91113 25.0934C8.69429 25.3102 8.4002 25.432 8.09355 25.432H1.15622C0.849574 25.432 0.555484 25.3102 0.33865 25.0934C0.121816 24.8765 7.2603e-07 24.5824 7.2603e-07 24.2758V13.6617C-0.000241063 13.3565 0.0599113 13.0544 0.176991 12.7726C0.294071 12.4908 0.465763 12.235 0.682171 12.0198L12.3253 0.342008C12.4328 0.233638 12.5607 0.147621 12.7016 0.0889212C12.8425 0.0302213 12.9936 0 13.1462 0C13.2989 0 13.45 0.0302213 13.5909 0.0889212C13.7318 0.147621 13.8597 0.233638 13.9672 0.342008L25.7028 12.0198C25.9192 12.235 26.0909 12.4908 26.208 12.7726C26.3251 13.0544 26.3852 13.3565 26.385 13.6617Z" fill="#9EA2A2"/>
</svg>
