<svg width="30" height="34" viewBox="0 0 30 34" fill="none" xmlns="http://www.w3.org/2000/svg">
<path fill-rule="evenodd" clip-rule="evenodd" d="M22.3629 7.67876C22.3629 11.9092 18.9146 15.3575 14.6841 15.3575C10.4181 15.3575 7.00536 11.9092 7.00536 7.67876C7.00536 3.44833 10.4537 0 14.6841 0C18.9146 0 22.3629 3.44833 22.3629 7.67876ZM14.0798 8.42531H15.2529C15.7862 8.42531 16.1772 8.81636 16.2128 9.38515C16.2128 9.88285 15.7862 10.3094 15.2885 10.3094H14.1153C13.6176 10.3094 13.191 9.88285 13.191 9.38515H11.6624C11.6624 10.6649 12.6933 11.6959 13.9376 11.8025V12.9401H15.4662V11.8025C16.746 11.6959 17.7414 10.6649 17.7414 9.38515C17.7414 8.03426 16.6394 6.93222 15.2885 6.93222H14.1153C13.6176 6.93222 13.191 6.50562 13.191 6.00792C13.191 5.51022 13.6176 5.08362 14.1153 5.08362H15.2885C15.7862 5.08362 16.2128 5.51022 16.2128 6.00792H17.7414C17.7414 4.72813 16.7105 3.69718 15.4662 3.59053V2.41739H13.9376V3.55498C12.6578 3.66163 11.6624 4.69258 11.6624 5.97237C11.6624 7.32326 12.7289 8.42531 14.0798 8.42531ZM0.464271 15.6419L19.5545 24.0672C19.8034 24.1739 20.1233 24.1383 20.3366 23.9606L29.1174 16.2818C29.544 15.9263 29.4374 15.2864 28.9397 15.0731L22.6829 12.3002C21.0476 15.002 18.0614 16.8506 14.6842 16.8506C10.276 16.8506 6.61439 13.7578 5.69009 9.66955L0.250972 14.4332C-0.140076 14.7887 -0.0334267 15.4286 0.464271 15.6419ZM27.8376 19.3747L28.9041 19.8368C29.4018 20.0501 29.5084 20.7255 29.0818 21.081L20.301 28.7598C20.0877 28.9376 19.7678 28.9731 19.5189 28.8665L0.428674 20.4411C-0.0690232 20.2278 -0.140123 19.5524 0.250925 19.1969L1.77957 17.8816L18.9146 25.4892C19.2345 25.5959 19.5189 25.667 19.8389 25.667C20.3721 25.667 20.9054 25.4537 21.332 25.0982L27.8376 19.3747ZM27.8376 24.1739L28.9041 24.636C29.4018 24.8493 29.5085 25.5248 29.1174 25.8803L20.3366 33.559C20.1233 33.7368 19.8034 33.7723 19.5545 33.6657L0.464252 25.2404C-0.0334459 25.0271 -0.104546 24.3516 0.286502 23.9961L1.7796 22.6808L18.9146 30.2885C19.2346 30.3951 19.519 30.4662 19.8389 30.4662C20.3722 30.4662 20.9054 30.2529 21.332 29.8974L27.8376 24.1739Z" fill="#071D49"/>
</svg>
