<svg width="29" height="34" viewBox="0 0 29 34" fill="none" xmlns="http://www.w3.org/2000/svg">
<path d="M25.55 22.54V14.84C25.55 9.73 22.12 5.39 17.5 4.06V3.15C17.5 1.4 16.03 0 14.35 0C12.67 0 11.2 1.4 11.2 3.15V4.06C6.51 5.39 3.15 9.73 3.15 14.84V22.54C1.4 22.75 0 24.22 0 26.04C0 28 1.61 29.61 3.57 29.61H10.71C10.71 31.57 12.32 33.18 14.28 33.18C16.24 33.18 17.85 31.57 17.85 29.61H24.99C26.95 29.61 28.56 28 28.56 26.04C28.7 24.22 27.3 22.75 25.55 22.54ZM12.6 3.22C12.6 2.31 13.44 1.61 14.35 1.61C15.26 1.61 16.1 2.31 16.1 3.22V3.71C15.54 3.57 14.98 3.5 14.35 3.5C13.72 3.5 13.16 3.57 12.53 3.71V3.22H12.6ZM14.35 31.64C13.23 31.64 12.25 30.73 12.25 29.54H16.38C16.45 30.73 15.47 31.64 14.35 31.64Z" fill="#071D49"/>
</svg>
