<svg width="39" height="39" viewBox="0 0 39 39" fill="none" xmlns="http://www.w3.org/2000/svg">
<ellipse cx="19.5001" cy="19.0668" rx="19.5001" ry="19.0668" fill="#C4D600"/>
<path d="M9.5364 20.574V15.8385C9.09035 15.3923 8.82736 15.0908 8.82736 15.0908L9.5364 13.0345C9.5364 13.0345 14.4919 11.6712 17.3281 11.6712C22.2888 11.6712 23.0004 16.4641 23.0004 16.4641L21.5823 19.8911C21.5823 19.8911 20.8914 20.5516 17.5009 20.574H23.7043V14.4103C23.7046 14.2303 23.7417 14.0521 23.8132 13.8859C23.8848 13.7198 23.9896 13.5688 24.1215 13.4418C24.2534 13.3147 24.4099 13.214 24.5821 13.1454C24.7543 13.0768 24.9387 13.0417 25.125 13.042H27.9611C28.7346 13.042 29.142 13.2738 29.3766 13.7224L31.5089 17.8374V19.8911V21.9473V23.3131C31.5089 23.4951 31.4343 23.6697 31.3014 23.7987C31.1685 23.9276 30.9882 24.0004 30.7999 24.001H28.6727C28.6727 24.7282 28.3739 25.4255 27.8421 25.9397C27.3102 26.4538 26.5888 26.7427 25.8366 26.7427C25.0844 26.7427 24.363 26.4538 23.8311 25.9397C23.2992 25.4255 23.0004 24.7282 23.0004 24.001H17.3281C17.3281 24.7282 17.0293 25.4255 16.4974 25.9397C15.9655 26.4538 15.2441 26.7427 14.4919 26.7427C13.7397 26.7427 13.0184 26.4538 12.4865 25.9397C11.9546 25.4255 11.6558 24.7282 11.6558 24.001H9.52866C9.34038 24.0004 9.16004 23.9276 9.02714 23.7987C8.89424 23.6697 8.81962 23.4951 8.81962 23.3131V21.2594C8.81962 21.1688 8.83821 21.079 8.87433 20.9954C8.91044 20.9117 8.96336 20.8358 9.03002 20.7721C9.09668 20.7084 9.17576 20.658 9.26268 20.624C9.3496 20.59 9.44264 20.573 9.5364 20.574ZM28.6727 15.0957C28.5 14.7618 28.3608 14.4103 27.9689 14.4103H25.8366C25.6483 14.4103 25.4677 14.4825 25.3343 14.6109C25.2009 14.7394 25.1257 14.9137 25.125 15.0957V17.1495C25.1256 17.3317 25.2008 17.5063 25.3341 17.6352C25.4675 17.764 25.6481 17.8367 25.8366 17.8374H30.0857L28.6727 15.0957ZM25.8366 25.3694C26.1171 25.3689 26.3911 25.288 26.624 25.1369C26.8569 24.9859 27.0383 24.7715 27.1451 24.5208C27.252 24.2702 27.2796 23.9945 27.2243 23.7287C27.1691 23.4629 27.0336 23.2188 26.8349 23.0275C26.6362 22.8361 26.3833 22.706 26.1081 22.6536C25.833 22.6012 25.5479 22.6288 25.289 22.733C25.03 22.8372 24.8089 23.0133 24.6535 23.239C24.4981 23.4647 24.4154 23.7299 24.4159 24.001C24.4156 24.1812 24.4521 24.3597 24.5235 24.5262C24.5948 24.6927 24.6995 24.8439 24.8316 24.9711C24.9636 25.0983 25.1204 25.199 25.2929 25.2673C25.4654 25.3357 25.6502 25.3703 25.8366 25.3694ZM11.6558 17.7676C12.0786 19.2406 12.3519 20.5541 12.3571 20.574H17.2843C15.4949 20.5491 13.3497 19.1484 11.6558 17.7676ZM14.4919 25.3694C14.7727 25.3703 15.0475 25.2907 15.2815 25.1406C15.5154 24.9904 15.698 24.7766 15.806 24.526C15.914 24.2755 15.9427 23.9996 15.8884 23.7333C15.834 23.467 15.6991 23.2222 15.5007 23.0301C15.3024 22.838 15.0495 22.7072 14.7741 22.6541C14.4987 22.6011 14.2132 22.6283 13.9538 22.7323C13.6945 22.8363 13.4729 23.0124 13.3171 23.2383C13.1614 23.4641 13.0785 23.7296 13.079 24.001C13.0797 24.3633 13.2287 24.7106 13.4935 24.967C13.7582 25.2234 14.1172 25.368 14.4919 25.3694Z" fill="#585858"/>
</svg>
