<svg width="38" height="25" viewBox="0 0 38 25" fill="none" xmlns="http://www.w3.org/2000/svg">
<path d="M1.63036 14.9456V7.26176C0.906605 6.53786 0.479881 6.04853 0.479881 6.04853L1.63036 2.71213C1.63036 2.71213 9.67118 0.5 14.2731 0.5C22.3223 0.5 23.4769 8.27683 23.4769 8.27683L21.176 13.8375C21.176 13.8375 20.0548 14.9092 14.5534 14.9456H24.6191V4.94448C24.6196 4.65239 24.6797 4.36326 24.7958 4.0936C24.912 3.82394 25.0819 3.57904 25.296 3.37287C25.51 3.16671 25.764 3.00332 26.0433 2.89203C26.3227 2.78074 26.622 2.72373 26.9242 2.72426H31.5261C32.7812 2.72426 33.4422 3.10037 33.8229 3.82831L37.2827 10.5051V13.8375V17.1739V19.3901C37.2827 19.6854 37.1616 19.9687 36.946 20.1779C36.7304 20.3871 36.4377 20.5052 36.1322 20.5062H32.6808C32.6808 21.6861 32.1959 22.8176 31.3329 23.6518C30.4699 24.4861 29.2994 24.9548 28.0789 24.9548C26.8584 24.9548 25.6878 24.4861 24.8248 23.6518C23.9618 22.8176 23.4769 21.6861 23.4769 20.5062H14.2731C14.2731 21.6861 13.7883 22.8176 12.9252 23.6518C12.0622 24.4861 10.8917 24.9548 9.67118 24.9548C8.45067 24.9548 7.28015 24.4861 6.41713 23.6518C5.5541 22.8176 5.06926 21.6861 5.06926 20.5062H1.61781C1.3123 20.5052 1.01968 20.3871 0.804047 20.1779C0.588406 19.9687 0.467331 19.6854 0.467331 19.3901V16.0577C0.467323 15.9106 0.497494 15.765 0.556091 15.6293C0.614693 15.4936 0.700558 15.3704 0.808723 15.267C0.916889 15.1636 1.0452 15.0819 1.18624 15.0267C1.32727 14.9716 1.47823 14.944 1.63036 14.9456ZM32.6808 6.05661C32.4005 5.5147 32.1746 4.94448 31.5387 4.94448H28.0789C27.7734 4.94448 27.4803 5.06152 27.2639 5.26997C27.0475 5.47842 26.9253 5.76129 26.9242 6.05661V9.38896C26.9253 9.68466 27.0473 9.96795 27.2636 10.177C27.4799 10.3861 27.773 10.5041 28.0789 10.5051H34.9734L32.6808 6.05661ZM28.0789 22.7265C28.534 22.7257 28.9786 22.5944 29.3565 22.3494C29.7344 22.1043 30.0287 21.7564 30.2021 21.3496C30.3755 20.9429 30.4202 20.4956 30.3306 20.0643C30.241 19.633 30.0211 19.237 29.6987 18.9265C29.3764 18.616 28.966 18.4049 28.5195 18.3199C28.073 18.2348 27.6104 18.2797 27.1903 18.4488C26.7702 18.6179 26.4113 18.9036 26.1592 19.2698C25.907 19.636 25.7729 20.0663 25.7737 20.5062C25.7732 20.7986 25.8325 21.0882 25.9482 21.3584C26.064 21.6285 26.2339 21.8739 26.4482 22.0802C26.6624 22.2866 26.9168 22.45 27.1967 22.5609C27.4766 22.6718 27.7764 22.7281 28.0789 22.7265ZM5.06926 10.3919C5.75536 12.782 6.19882 14.9132 6.20719 14.9456H14.202C11.2986 14.9051 7.81786 12.6323 5.06926 10.3919ZM9.67118 22.7265C10.1268 22.7281 10.5726 22.5989 10.9522 22.3553C11.3318 22.1116 11.628 21.7646 11.8033 21.3581C11.9787 20.9515 12.0252 20.5039 11.937 20.0718C11.8488 19.6396 11.6299 19.2426 11.308 18.9309C10.9862 18.6191 10.5758 18.4068 10.129 18.3208C9.68211 18.2348 9.21891 18.2789 8.79805 18.4476C8.37719 18.6164 8.01762 18.9021 7.76492 19.2686C7.51222 19.635 7.37776 20.0658 7.37858 20.5062C7.37968 21.094 7.62144 21.6575 8.05103 22.0736C8.48062 22.4896 9.0631 22.7243 9.67118 22.7265Z" fill="#00C389"/>
</svg>
