<svg width="24" height="16" viewBox="0 0 24 16" fill="none" xmlns="http://www.w3.org/2000/svg">
<path d="M1.5364 9.57401V4.83848C1.09035 4.39234 0.827357 4.09076 0.827357 4.09076L1.5364 2.03455C1.5364 2.03455 6.49194 0.671211 9.32811 0.671211C14.2888 0.671211 15.0004 5.46407 15.0004 5.46407L13.5823 8.89109C13.5823 8.89109 12.8914 9.55158 9.50085 9.57401H15.7043V3.41034C15.7046 3.23032 15.7417 3.05213 15.8132 2.88594C15.8848 2.71975 15.9896 2.56882 16.1215 2.44176C16.2534 2.3147 16.4099 2.214 16.5821 2.14541C16.7543 2.07683 16.9387 2.0417 17.125 2.04202H19.9611C20.7346 2.04202 21.142 2.27381 21.3766 2.72244L23.5089 6.83737V8.89109V10.9473V12.3131C23.5089 12.4951 23.4343 12.6697 23.3014 12.7987C23.1685 12.9276 22.9882 13.0004 22.7999 13.001H20.6728C20.6728 13.7282 20.3739 14.4255 19.8421 14.9397C19.3102 15.4538 18.5888 15.7427 17.8366 15.7427C17.0844 15.7427 16.363 15.4538 15.8311 14.9397C15.2992 14.4255 15.0004 13.7282 15.0004 13.001H9.32811C9.32811 13.7282 9.0293 14.4255 8.49741 14.9397C7.96553 15.4538 7.24414 15.7427 6.49194 15.7427C5.73975 15.7427 5.01836 15.4538 4.48648 14.9397C3.95459 14.4255 3.65578 13.7282 3.65578 13.001H1.52866C1.34038 13.0004 1.16004 12.9276 1.02714 12.7987C0.894241 12.6697 0.819621 12.4951 0.819623 12.3131V10.2594C0.819617 10.1688 0.838211 10.079 0.874326 9.99538C0.910441 9.91173 0.963361 9.83584 1.03002 9.7721C1.09668 9.70835 1.17576 9.65802 1.26268 9.62402C1.3496 9.59002 1.44264 9.57302 1.5364 9.57401ZM20.6728 4.09575C20.5 3.76177 20.3608 3.41034 19.9689 3.41034H17.8366C17.6483 3.41034 17.4677 3.48247 17.3343 3.61094C17.2009 3.73941 17.1257 3.91374 17.125 4.09575V6.14947C17.1256 6.33171 17.2008 6.5063 17.3341 6.63516C17.4675 6.76403 17.6481 6.83671 17.8366 6.83737H22.0857L20.6728 4.09575ZM17.8366 14.3694C18.1171 14.3689 18.3911 14.288 18.624 14.1369C18.8569 13.9859 19.0383 13.7715 19.1451 13.5208C19.252 13.2702 19.2796 12.9945 19.2243 12.7287C19.1691 12.4629 19.0336 12.2188 18.8349 12.0275C18.6362 11.8361 18.3833 11.706 18.1081 11.6536C17.833 11.6012 17.5479 11.6288 17.289 11.733C17.03 11.8372 16.8089 12.0133 16.6535 12.239C16.4981 12.4647 16.4154 12.7299 16.4159 13.001C16.4156 13.1812 16.4521 13.3597 16.5235 13.5262C16.5948 13.6927 16.6995 13.8439 16.8316 13.9711C16.9636 14.0983 17.1204 14.199 17.2929 14.2673C17.4654 14.3357 17.6502 14.3703 17.8366 14.3694V14.3694ZM3.65578 6.76758C4.07863 8.24058 4.35193 9.55407 4.35709 9.57401H9.28427C7.49491 9.54908 5.34975 8.14836 3.65578 6.76758V6.76758ZM6.49194 14.3694C6.77274 14.3703 7.04752 14.2907 7.28146 14.1406C7.51539 13.9904 7.69795 13.7766 7.806 13.526C7.91404 13.2755 7.94271 12.9996 7.88837 12.7333C7.83403 12.467 7.69912 12.2222 7.50075 12.0301C7.30237 11.838 7.04946 11.7072 6.77407 11.6541C6.49868 11.6011 6.21321 11.6283 5.95383 11.7323C5.69446 11.8363 5.47286 12.0124 5.31712 12.2383C5.16138 12.4641 5.07851 12.7296 5.07902 13.001C5.0797 13.3633 5.2287 13.7106 5.49345 13.967C5.7582 14.2234 6.11719 14.368 6.49194 14.3694V14.3694Z" fill="#585858"/>
</svg>
