<svg width="27" height="18" viewBox="0 0 27 18" fill="none" xmlns="http://www.w3.org/2000/svg">
<path d="M1.00378 10.7299V5.26871C0.489112 4.7542 0.185664 4.40641 0.185664 4.40641L1.00378 2.03509C1.00378 2.03509 6.7217 0.46283 9.99417 0.46283C15.718 0.46283 16.5391 5.99016 16.5391 5.99016L14.9029 9.94237C14.9029 9.94237 14.1056 10.7041 10.1935 10.7299H17.3513V3.62172C17.3517 3.41411 17.3944 3.20862 17.477 3.01696C17.5596 2.8253 17.6804 2.65124 17.8326 2.50471C17.9849 2.35818 18.1655 2.24205 18.3641 2.16295C18.5628 2.08385 18.7756 2.04333 18.9905 2.04371H22.263C23.1555 2.04371 23.6255 2.31102 23.8963 2.8284L26.3566 7.57392V9.94237V12.3137V13.8888C26.3566 14.0987 26.2705 14.3001 26.1171 14.4488C25.9638 14.5975 25.7557 14.6814 25.5384 14.6821H23.0841C23.0841 15.5207 22.7393 16.3249 22.1256 16.9178C21.5119 17.5108 20.6795 17.8439 19.8116 17.8439C18.9437 17.8439 18.1113 17.5108 17.4976 16.9178C16.8839 16.3249 16.5391 15.5207 16.5391 14.6821H9.99417C9.99417 15.5207 9.6494 16.3249 9.03569 16.9178C8.42198 17.5108 7.58961 17.8439 6.7217 17.8439C5.85378 17.8439 5.02141 17.5108 4.4077 16.9178C3.794 16.3249 3.44922 15.5207 3.44922 14.6821H0.994859C0.777607 14.6814 0.569522 14.5975 0.41618 14.4488C0.262838 14.3001 0.176738 14.0987 0.176739 13.8888V11.5204C0.176733 11.4158 0.198187 11.3123 0.239858 11.2159C0.281529 11.1194 0.34259 11.0319 0.419507 10.9584C0.496425 10.8849 0.587671 10.8268 0.687962 10.7876C0.788253 10.7484 0.895598 10.7288 1.00378 10.7299ZM23.0841 4.41216C22.8848 4.027 22.7241 3.62172 22.2719 3.62172H19.8116C19.5944 3.62172 19.386 3.7049 19.2321 3.85306C19.0782 4.00121 18.9913 4.20226 18.9905 4.41216V6.78061C18.9913 6.99077 19.0781 7.19212 19.2319 7.34073C19.3857 7.48934 19.5941 7.57316 19.8116 7.57392H24.7144L23.0841 4.41216ZM19.8116 16.2601C20.1352 16.2596 20.4514 16.1663 20.7202 15.9921C20.9889 15.8179 21.1982 15.5707 21.3215 15.2816C21.4448 14.9925 21.4766 14.6746 21.4128 14.368C21.3491 14.0615 21.1928 13.7801 20.9635 13.5594C20.7343 13.3387 20.4424 13.1886 20.1249 13.1282C19.8074 13.0678 19.4785 13.0996 19.1797 13.2198C18.881 13.34 18.6258 13.5431 18.4465 13.8034C18.2672 14.0637 18.1718 14.3695 18.1724 14.6821C18.172 14.89 18.2142 15.0958 18.2965 15.2878C18.3788 15.4798 18.4996 15.6542 18.652 15.8008C18.8044 15.9475 18.9853 16.0636 19.1843 16.1425C19.3833 16.2213 19.5965 16.2613 19.8116 16.2601V16.2601ZM3.44922 7.49344C3.93711 9.19217 4.25246 10.7069 4.25841 10.7299H9.9436C7.87896 10.7012 5.40378 9.08582 3.44922 7.49344V7.49344ZM6.7217 16.2601C7.04569 16.2613 7.36274 16.1695 7.63267 15.9963C7.90259 15.8232 8.11323 15.5765 8.2379 15.2876C8.36257 14.9986 8.39565 14.6804 8.33295 14.3733C8.27025 14.0662 8.11458 13.784 7.88569 13.5624C7.6568 13.3409 7.36498 13.19 7.04723 13.1288C6.72947 13.0677 6.40008 13.0991 6.1008 13.219C5.80152 13.3389 5.54583 13.542 5.36613 13.8025C5.18644 14.0629 5.09082 14.3691 5.09141 14.6821C5.09219 15.0999 5.26411 15.5004 5.56959 15.7961C5.87508 16.0918 6.28929 16.2586 6.7217 16.2601V16.2601Z" fill="#071D49"/>
</svg>
