<svg width="20" height="32" viewBox="0 0 20 32" fill="none" xmlns="http://www.w3.org/2000/svg">
<path d="M4.64692 6.29707C4.55196 5.57828 4.6116 4.8475 4.82185 4.15362C5.0321 3.45974 5.38811 2.81876 5.86606 2.27356C6.34401 1.72837 6.93289 1.29153 7.59329 0.992276C8.25368 0.693024 8.97038 0.538257 9.69541 0.53833H10.1756C10.9006 0.538257 11.6173 0.693024 12.2777 0.992276C12.9381 1.29153 13.527 1.72837 14.0049 2.27356C14.4829 2.81876 14.8389 3.45974 15.0491 4.15362C15.2594 4.8475 15.319 5.57828 15.2241 6.29707L14.9807 8.12107C14.8198 9.3453 14.2193 10.4693 13.2911 11.2836C12.3629 12.0978 11.1703 12.5468 9.9355 12.5468C8.70074 12.5468 7.50811 12.0978 6.57989 11.2836C5.65166 10.4693 5.05117 9.3453 4.89034 8.12107L4.64692 6.29707ZM18.2985 16.3007C17.8251 15.7497 17.2383 15.3074 16.5782 15.0041C15.9181 14.7008 15.2003 14.5437 14.4738 14.5434H5.39719C4.67098 14.5422 3.95307 14.6978 3.29246 14.9994C2.63185 15.3011 2.04409 15.7417 1.56929 16.2912C1.09449 16.8407 0.743829 17.4861 0.541241 18.1835C0.338652 18.8809 0.288903 19.6138 0.39539 20.3321L1.59916 28.4251C1.7292 29.2929 2.16608 30.0854 2.83052 30.6587C3.49495 31.232 4.3429 31.548 5.22046 31.5495H14.6505C15.5281 31.548 16.376 31.232 17.0405 30.6587C17.7049 30.0854 18.1418 29.2929 18.2718 28.4251L19.4689 20.3321C19.5755 19.6145 19.5261 18.8823 19.3241 18.1854C19.1221 17.4886 18.7723 16.8435 18.2985 16.294V16.3007Z" fill="#00C389"/>
</svg>
