<svg width="32" height="33" viewBox="0 0 32 33" fill="none" xmlns="http://www.w3.org/2000/svg">
<path fill-rule="evenodd" clip-rule="evenodd" d="M16.0771 0.305481C7.28325 0.305481 0.154541 7.43419 0.154541 16.2281C0.154541 25.0219 7.28325 32.1506 16.0771 32.1506C24.8713 32.1506 31.9997 25.0219 31.9997 16.2281C31.9997 7.43419 24.8713 0.305481 16.0771 0.305481ZM18.2582 17.0376L18.4344 19.5049C19.3657 20.2161 19.9693 21.335 19.9693 22.5971C19.9693 24.7466 18.2267 26.4893 16.0771 26.4893C13.9276 26.4893 12.1849 24.7466 12.1849 22.5971C12.1849 21.335 12.7886 20.2161 13.7199 19.5049L13.8957 17.0451C8.0861 17.5967 4.28627 20.2161 2.88579 21.3569C2.26694 19.7661 1.92372 18.0376 1.92372 16.2281C1.92372 8.41113 8.26055 2.07466 16.0771 2.07466C23.894 2.07466 30.2305 8.41113 30.2305 16.2281C30.2305 17.9452 29.9244 19.5909 29.3643 21.1135C28.0442 20.0969 24.2019 17.562 18.2582 17.0376Z" fill="#00C389"/>
<path fill-rule="evenodd" clip-rule="evenodd" d="M17.4649 20.5452L16.0772 6.32068L14.6894 20.5452C14.0324 20.9907 13.6003 21.7433 13.6003 22.5971C13.6003 23.965 14.7093 25.0739 16.0772 25.0739C17.4451 25.0739 18.554 23.965 18.554 22.5971C18.554 21.7433 18.122 20.9907 17.4649 20.5452Z" fill="#00C389"/>
</svg>
