<svg width="96" height="96" viewBox="0 0 96 96" fill="none" xmlns="http://www.w3.org/2000/svg">
<path d="M48 0C21.5242 0 0 21.5242 0 48C0 74.4758 21.5242 96 48 96C74.4758 96 96 74.4758 96 48C96 21.5242 74.4758 0 48 0ZM48 90.1389C24.7579 90.1389 5.86105 71.2421 5.86105 48C5.86105 24.7579 24.7579 5.86105 48 5.86105C71.2421 5.86105 90.1389 24.7579 90.1389 48C90.1389 71.2421 71.2421 90.1389 48 90.1389Z" fill="#00C389"/>
<path d="M64.1683 45.0695H55.882C54.6694 41.8359 51.6378 39.6127 47.9999 39.6127C46.7873 39.6127 45.6757 39.9159 44.5641 40.3201L31.4273 26.9811C30.3157 25.8695 28.3957 25.7685 27.2841 26.9811C26.1725 28.0927 26.0715 30.0127 27.2841 31.1243L40.522 44.5643C40.0167 45.6759 39.7136 46.7874 39.7136 48.1011C39.7136 52.7495 43.4525 56.4885 48.1009 56.4885C51.7388 56.4885 54.7704 54.1643 55.983 51.0316H64.1683C65.7852 51.0316 67.0988 49.718 67.0988 48.1011C67.0988 46.3832 65.7852 45.0695 64.1683 45.0695ZM47.9999 50.5264C46.5852 50.5264 45.4736 49.4148 45.4736 48.0001C45.4736 46.5853 46.5852 45.4737 47.9999 45.4737C49.4146 45.4737 50.5262 46.5853 50.5262 48.0001C50.5262 49.4148 49.4146 50.5264 47.9999 50.5264Z" fill="#00C389"/>
<path d="M48.0001 20.4126C50.1767 20.4126 51.9412 18.6482 51.9412 16.4716C51.9412 14.295 50.1767 12.5305 48.0001 12.5305C45.8236 12.5305 44.0591 14.295 44.0591 16.4716C44.0591 18.6482 45.8236 20.4126 48.0001 20.4126Z" fill="#00C389"/>
<path d="M16.4716 51.9412C18.6482 51.9412 20.4126 50.1767 20.4126 48.0001C20.4126 45.8236 18.6482 44.0591 16.4716 44.0591C14.295 44.0591 12.5305 45.8236 12.5305 48.0001C12.5305 50.1767 14.295 51.9412 16.4716 51.9412Z" fill="#00C389"/>
<path d="M48.0001 83.4695C50.1767 83.4695 51.9412 81.705 51.9412 79.5285C51.9412 77.3519 50.1767 75.5874 48.0001 75.5874C45.8236 75.5874 44.0591 77.3519 44.0591 79.5285C44.0591 81.705 45.8236 83.4695 48.0001 83.4695Z" fill="#00C389"/>
<path d="M79.5285 51.9412C81.705 51.9412 83.4695 50.1767 83.4695 48.0001C83.4695 45.8236 81.705 44.0591 79.5285 44.0591C77.3519 44.0591 75.5874 45.8236 75.5874 48.0001C75.5874 50.1767 77.3519 51.9412 79.5285 51.9412Z" fill="#00C389"/>
</svg>
