<svg width="315" height="315" viewBox="0 0 315 315" fill="none" xmlns="http://www.w3.org/2000/svg">
<path d="M174.15 38.649C205.081 39.1924 252.934 50.9519 266.706 81.1783C271.52 91.732 271.189 107.253 270.543 138.286C270.348 147.405 270.034 160.701 267.801 177.198C263.174 211.466 260.015 234.798 248.086 248.383C218.191 282.422 110.182 281.437 64.0613 220.16C38.9038 186.733 35.0321 139.177 58.033 99.883C83.3688 56.6151 132.742 37.9188 174.15 38.649Z" fill="#F4F7FA"/>
<path d="M135.255 252.119C138.227 251.134 140.443 248.612 141.071 245.521L145.393 224.134L182.352 225.45L186.903 247.729C187.54 250.845 184.993 253.978 182.055 255.124L166.585 261.17C163.707 262.299 160.616 262.74 157.543 262.477L124.862 259.684C123.903 259.599 123.139 258.852 123.028 257.884C122.918 256.924 122.247 255.838 123.156 255.54L135.255 252.119Z" fill="#97A6B7"/>
<path d="M134.89 250.82C137.853 249.843 140.069 247.356 140.697 244.299L145.01 223.183L181.07 224.482L185.612 246.481C186.249 249.563 184.568 252.654 181.63 253.783L166.186 259.76C163.316 260.872 160.226 261.314 157.152 261.051L124.506 258.291C123.555 258.206 122.782 257.468 122.672 256.517C122.561 255.566 123.139 254.666 124.047 254.369L134.89 250.82Z" fill="url(#paint0_linear)"/>
<path d="M257.867 238.347C261.874 238.585 265.152 235.987 265.152 232.548V108.696C265.152 105.257 261.874 102.608 257.867 102.778L72.5094 110.81C69.5632 110.938 67.1858 113.417 67.1858 116.338V221.672C67.1858 224.592 69.5716 227.114 72.5094 227.292L257.867 238.347Z" fill="url(#paint1_linear)"/>
<path d="M256.203 238.347C260.21 238.585 263.488 235.987 263.488 232.548V108.696C263.488 105.257 260.21 102.608 256.203 102.778L70.8453 110.81C67.8991 110.938 65.5217 113.417 65.5217 116.338V221.672C65.5217 224.592 67.9076 227.114 70.8453 227.292L256.203 238.347Z" fill="url(#paint2_linear)"/>
<path opacity="0.3" d="M70.8453 113.298L256.203 105.674C258.342 105.589 260.092 106.998 260.092 108.832V205.149V232.361C260.092 234.195 258.351 235.588 256.203 235.46L70.8453 224.813C69.2661 224.72 67.9925 223.378 67.9925 221.807V197.728V116.244C67.9925 114.682 69.2746 113.358 70.8453 113.298Z" fill="#D8DEE8"/>
<path d="M256.203 224.94C257.035 224.983 257.714 224.431 257.714 223.718V108.925C257.714 108.212 257.035 107.66 256.203 107.694L70.8453 115.039C70.234 115.064 69.733 115.582 69.733 116.193V214.624C69.733 215.236 70.234 215.762 70.8453 215.788L256.203 224.94Z" fill="url(#paint3_linear)"/>
<path opacity="0.12" d="M90.1953 219.625C105.792 209.98 94.8991 182.556 112.407 168.775C130.059 154.885 154.902 171.925 167.273 157.534C176.485 146.819 165.71 133.888 174.498 123.809C188.287 108.008 223.582 129.736 239.799 114.173C242.1 111.965 244.426 108.611 245.751 103.228L256.194 102.778C260.202 102.608 263.479 105.257 263.479 108.696V232.54C263.479 235.978 260.202 238.576 256.194 238.339L70.8453 227.292C67.8991 227.114 65.5217 224.601 65.5217 221.672V219.795C77.8331 223.981 85.3557 222.623 90.1953 219.625Z" fill="white"/>
<path d="M99.7897 210.94V84.1245L213.801 78.4188V217.307C213.801 220.22 215.915 222.708 218.793 223.174L105.92 217.469C102.464 217.257 99.7897 214.395 99.7897 210.94Z" fill="white"/>
<path d="M99.7896 109.766C99.934 109.766 100.044 109.656 100.044 109.511V84.3622L213.538 78.6905V104.57C213.538 104.714 213.657 104.824 213.792 104.824C213.937 104.824 214.047 104.714 214.047 104.57V78.1556L213.775 78.1726L99.5264 83.8867V109.511C99.5349 109.647 99.6453 109.766 99.7896 109.766Z" fill="#D8DEE8"/>
<path d="M107.092 103.508L202.619 101.191V88.6924L107.092 91.6641V103.508Z" fill="#D8DEE8"/>
<path d="M107.092 112.449L202.619 110.632V142.514L107.092 142.658V112.449ZM200.912 112.449L109.087 114.113V140.969L200.904 140.74V112.449H200.912Z" fill="#D8DEE8"/>
<path d="M180.374 141.444H182.377V111.77L180.374 111.804V141.444Z" fill="#D8DEE8"/>
<path d="M108.229 123.792L181.52 122.875V121.118L108.229 122.103V123.792Z" fill="#D8DEE8"/>
<path d="M108.229 132.979L181.52 132.461V130.695L108.229 131.289V132.979Z" fill="#D8DEE8"/>
<path d="M126.764 142.378H128.768V112.772L126.764 112.806V142.378Z" fill="#D8DEE8"/>
<path d="M107.092 169.242L202.619 170.575V202.458L107.092 199.452V169.242ZM200.912 172.333L109.095 170.966V197.822L200.912 200.624V172.333Z" fill="#D8DEE8"/>
<path d="M180.374 200.742L182.377 200.81V171.051L180.374 171.017V200.742Z" fill="#D8DEE8"/>
<path d="M108.229 180.62L181.52 182.123V180.357L108.229 178.93V180.62Z" fill="#D8DEE8"/>
<path d="M108.229 189.807L181.52 191.7V189.934L108.229 188.117V189.807Z" fill="#D8DEE8"/>
<path d="M126.764 199.825L128.768 199.885V170.27L126.764 170.244V199.825Z" fill="#D8DEE8"/>
<path d="M107.092 152.805L202.619 153.229V149.145L107.092 148.941V152.805Z" fill="#D8DEE8"/>
<path d="M107.092 161.991L202.619 162.917V158.841L107.092 158.12V161.991Z" fill="#D8DEE8"/>
<path d="M107.092 209.598L202.619 213.173V209.089L107.092 205.735V209.598Z" fill="#D8DEE8"/>
<path d="M91.9953 71.2783C91.9953 85.4235 80.9321 96.5547 66.7953 96.1217C52.0811 95.6717 39.7019 82.9613 39.7019 67.7547C39.7019 52.5481 52.0811 41.5103 66.7953 43.0386C80.9321 44.5075 91.9953 57.133 91.9953 71.2783Z" fill="url(#paint4_linear)"/>
<path d="M95.816 70.0556C95.816 84.2009 84.7528 95.332 70.616 94.899C55.9018 94.449 43.5226 81.7386 43.5226 66.532C43.5226 51.3254 55.9018 40.2877 70.616 41.816C84.7528 43.2848 95.816 55.9103 95.816 70.0556Z" fill="url(#paint5_linear)"/>
<path d="M94.7038 69.9792C94.7038 83.5047 84.1161 94.1264 70.6076 93.6849C56.5727 93.2264 44.7963 81.1018 44.7963 66.6084C44.7963 52.115 56.5812 41.5782 70.6076 43.0132C84.1246 44.4056 94.7038 56.4622 94.7038 69.9792Z" fill="url(#paint6_linear)"/>
<path d="M93.9143 69.9283C93.9143 83.0037 83.6746 93.2688 70.6161 92.8273C57.0737 92.3688 45.7133 80.6604 45.7133 66.6764C45.7133 52.6924 57.0737 42.5123 70.6161 43.8877C83.6661 45.2122 93.9143 56.8528 93.9143 69.9283Z" fill="url(#paint7_linear)"/>
<path d="M70.4802 48.3367C71.1764 48.4046 71.7368 49.0245 71.7368 49.7377V52.149C73.1293 52.3018 74.5132 52.548 75.9142 52.8707C76.9415 53.1084 77.9604 53.3971 78.9793 53.7367C79.5906 53.9405 79.9981 54.5518 79.9387 55.1801L79.6415 58.2028C79.5651 59.0009 78.767 59.4763 78.0283 59.1452C77.3576 58.848 76.6783 58.5933 75.9736 58.3811C74.751 58.0075 73.4604 57.7697 72.1019 57.6594L71.7453 57.6339V64.5282C75.3708 65.5386 78.0283 66.9056 79.7519 68.6207C81.467 70.3273 82.3161 72.4584 82.3161 75.0141C82.3161 77.7735 81.3736 79.9896 79.4802 81.6537C77.5783 83.3348 74.9123 84.2773 71.4566 84.4811V87.1386C71.4566 87.8433 70.8963 88.3952 70.2 88.3697H70.1746C69.4783 88.3443 68.9095 87.7414 68.9095 87.0367V84.3962L68.3491 84.3707C66.7274 84.2943 65.1821 84.1329 63.7047 83.8782C62.6095 83.6914 61.5397 83.4452 60.4953 83.1396C59.867 82.9613 59.434 82.3584 59.4849 81.7046L59.833 77.8245C59.9095 76.9839 60.75 76.4999 61.5481 76.8141C62.4821 77.1792 63.4161 77.4933 64.3755 77.7395C65.8614 78.1301 67.3642 78.3848 68.8925 78.4952L68.918 70.8197C65.4368 69.9622 62.8387 68.6801 61.1236 66.999C59.4085 65.3009 58.5425 63.1273 58.5425 60.4867C58.5425 57.7528 59.4764 55.6471 61.3444 54.1612C63.1953 52.6924 65.8359 51.9537 69.2321 51.9537V49.4914C69.2236 48.7952 69.784 48.2688 70.4802 48.3367ZM69.2236 57.5405C68.1453 57.6169 67.3132 57.9141 66.7104 58.4235C66.1076 58.9329 65.8104 59.6292 65.8104 60.4952C65.8104 61.3188 66.0906 61.998 66.6425 62.5499C67.1944 63.1018 68.0604 63.5348 69.2236 63.866V57.5405ZM71.4481 71.4311V78.4697C72.6198 78.4697 73.5114 78.1895 74.1397 77.6292C74.768 77.0688 75.0736 76.2792 75.0736 75.2603C75.0736 74.3263 74.7849 73.5622 74.2076 72.9424C73.6217 72.3395 72.7047 71.8301 71.4481 71.4311Z" fill="url(#paint8_linear)"/>
<path opacity="0.3" d="M66.3961 73.1292C67.1857 65.3519 74.3263 62.066 73.3923 54.9085C72.815 50.5019 69.4782 46.783 65.7508 43.8878C54.4499 45.0764 45.7046 54.433 45.7046 66.6764C45.7046 80.6604 57.065 92.3689 70.6074 92.8273C71.9235 92.8698 73.2055 92.8019 74.4537 92.6405C69.0876 87.2915 65.7253 79.8113 66.3961 73.1292Z" fill="url(#paint9_linear)"/>
<path d="M115.259 117.832C115.259 128.649 106.803 137.157 95.9858 136.825C84.7358 136.477 75.2689 126.764 75.2689 115.132C75.2689 103.5 84.7358 95.0603 95.9858 96.232C106.803 97.3613 115.259 107.015 115.259 117.832Z" fill="url(#paint10_linear)"/>
<path d="M118.18 116.898C118.18 127.715 109.724 136.223 98.9066 135.891C87.6566 135.543 78.1896 125.83 78.1896 114.198C78.1896 102.566 87.6566 94.1264 98.9066 95.2981C109.724 96.4273 118.18 106.081 118.18 116.898Z" fill="url(#paint11_linear)"/>
<path d="M117.331 116.839C117.331 127.18 109.24 135.306 98.9066 134.966C88.1745 134.618 79.166 125.346 79.166 114.266C79.166 103.186 88.1745 95.1283 98.9066 96.2236C109.24 97.2849 117.331 106.497 117.331 116.839Z" fill="url(#paint12_linear)"/>
<path d="M116.728 116.805C116.728 126.807 108.9 134.652 98.9151 134.312C88.5566 133.964 79.8707 125.007 79.8707 114.317C79.8707 103.627 88.5566 95.8415 98.9151 96.8943C108.891 97.9047 116.728 106.803 116.728 116.805Z" fill="url(#paint13_linear)"/>
<path d="M98.8132 100.291C99.3481 100.341 99.7726 100.817 99.7726 101.36V103.203C100.834 103.322 101.895 103.508 102.965 103.755C103.755 103.941 104.527 104.162 105.308 104.417C105.775 104.57 106.09 105.037 106.039 105.521L105.809 107.83C105.75 108.441 105.147 108.807 104.57 108.552C104.06 108.323 103.534 108.127 102.999 107.966C102.065 107.686 101.08 107.499 100.036 107.414L99.7641 107.389V112.661C102.532 113.434 104.57 114.478 105.886 115.794C107.193 117.102 107.847 118.724 107.847 120.676C107.847 122.791 107.125 124.48 105.682 125.754C104.23 127.036 102.184 127.757 99.5434 127.91V129.94C99.5434 130.483 99.1103 130.899 98.5839 130.882H98.5669C98.032 130.865 97.599 130.407 97.599 129.863V127.859L97.1745 127.842C95.9349 127.783 94.7547 127.664 93.6169 127.46C92.7764 127.316 91.9613 127.129 91.1632 126.891C90.6792 126.756 90.3481 126.289 90.3905 125.796L90.6537 122.824C90.7132 122.179 91.3584 121.806 91.9698 122.052C92.683 122.332 93.4047 122.57 94.1264 122.765C95.2641 123.062 96.4103 123.257 97.582 123.342L97.599 117.475C94.9415 116.813 92.9462 115.845 91.6386 114.555C90.3226 113.256 89.6603 111.6 89.6603 109.579C89.6603 107.491 90.3735 105.877 91.8 104.748C93.2179 103.619 95.2302 103.058 97.8368 103.067V101.182C97.8453 100.639 98.2783 100.24 98.8132 100.291ZM97.8452 107.329C97.0217 107.389 96.3849 107.618 95.9264 108.008C95.4679 108.399 95.2386 108.925 95.2386 109.588C95.2386 110.216 95.4509 110.742 95.8754 111.158C96.3 111.583 96.9622 111.914 97.8452 112.169V107.329ZM99.5518 117.951V123.334C100.443 123.334 101.131 123.122 101.607 122.697C102.082 122.273 102.32 121.67 102.32 120.889C102.32 120.175 102.099 119.59 101.658 119.114C101.216 118.639 100.511 118.257 99.5518 117.951Z" fill="url(#paint14_linear)"/>
<path opacity="0.3" d="M95.6887 119.25C96.2915 113.307 101.751 110.785 101.038 105.317C100.596 101.946 98.0406 99.1104 95.1962 96.8859C86.5528 97.7944 79.8707 104.952 79.8707 114.309C79.8707 124.998 88.5566 133.956 98.9151 134.304C99.917 134.338 100.902 134.287 101.861 134.159C97.7434 130.075 95.1708 124.361 95.6887 119.25Z" fill="url(#paint15_linear)"/>
<defs>
<linearGradient id="paint0_linear" x1="158.373" y1="292.205" x2="153.764" y2="247.656" gradientUnits="userSpaceOnUse">
<stop stop-color="#444B8C"/>
<stop offset="0.9964" stop-color="#26264F"/>
</linearGradient>
<linearGradient id="paint1_linear" x1="190.355" y1="167.904" x2="239.001" y2="173.537" gradientUnits="userSpaceOnUse">
<stop stop-color="#444B8C"/>
<stop offset="0.3946" stop-color="#383C74"/>
<stop offset="0.9964" stop-color="#26264F"/>
</linearGradient>
<linearGradient id="paint2_linear" x1="263.489" y1="170.568" x2="65.5228" y2="170.568" gradientUnits="userSpaceOnUse">
<stop stop-color="#444B8C"/>
<stop offset="0.9964" stop-color="#26264F"/>
</linearGradient>
<linearGradient id="paint3_linear" x1="109.695" y1="82.5406" x2="392.505" y2="497.267" gradientUnits="userSpaceOnUse">
<stop stop-color="#9A9A9A"/>
<stop offset="0.9964" stop-color="#707070"/>
</linearGradient>
<linearGradient id="paint4_linear" x1="56.8875" y1="72.3845" x2="26.39" y2="82.1721" gradientUnits="userSpaceOnUse">
<stop stop-color="#FCB148"/>
<stop offset="0.0520724" stop-color="#FDBA46"/>
<stop offset="0.1424" stop-color="#FFC244"/>
<stop offset="0.3183" stop-color="#FFC444"/>
<stop offset="0.4849" stop-color="#FDB946"/>
<stop offset="0.7754" stop-color="#F99C4D"/>
<stop offset="0.8658" stop-color="#F8924F"/>
<stop offset="1" stop-color="#F8924F"/>
</linearGradient>
<linearGradient id="paint5_linear" x1="81.5582" y1="42.0273" x2="54.3319" y2="102.094" gradientUnits="userSpaceOnUse">
<stop stop-color="#FFDB44"/>
<stop offset="1" stop-color="#FEEF06"/>
</linearGradient>
<linearGradient id="paint6_linear" x1="76.55" y1="105.451" x2="71.2966" y2="76.7517" gradientUnits="userSpaceOnUse">
<stop stop-color="#FCB148"/>
<stop offset="0.0520724" stop-color="#FDBA46"/>
<stop offset="0.1424" stop-color="#FFC244"/>
<stop offset="0.3183" stop-color="#FFC444"/>
<stop offset="0.4849" stop-color="#FDB946"/>
<stop offset="0.7754" stop-color="#F99C4D"/>
<stop offset="0.8658" stop-color="#F8924F"/>
<stop offset="1" stop-color="#F8924F"/>
</linearGradient>
<linearGradient id="paint7_linear" x1="65.4119" y1="58.9983" x2="87.0617" y2="104.957" gradientUnits="userSpaceOnUse">
<stop stop-color="#FCB148"/>
<stop offset="0.0520724" stop-color="#FDBA46"/>
<stop offset="0.1424" stop-color="#FFC244"/>
<stop offset="0.3183" stop-color="#FFC444"/>
<stop offset="0.4849" stop-color="#FDB946"/>
<stop offset="0.7754" stop-color="#F99C4D"/>
<stop offset="0.8658" stop-color="#F8924F"/>
<stop offset="1" stop-color="#F8924F"/>
</linearGradient>
<linearGradient id="paint8_linear" x1="64.5493" y1="49.1085" x2="75.4356" y2="89.9084" gradientUnits="userSpaceOnUse">
<stop stop-color="#FFDB44"/>
<stop offset="1" stop-color="#FEEF06"/>
</linearGradient>
<linearGradient id="paint9_linear" x1="59.0423" y1="61.9725" x2="80.6485" y2="107.838" gradientUnits="userSpaceOnUse">
<stop stop-color="#FCB148"/>
<stop offset="0.0520724" stop-color="#FDBA46"/>
<stop offset="0.1424" stop-color="#FFC244"/>
<stop offset="0.3183" stop-color="#FFC444"/>
<stop offset="0.4849" stop-color="#FDB946"/>
<stop offset="0.7754" stop-color="#F99C4D"/>
<stop offset="0.8658" stop-color="#F8924F"/>
<stop offset="1" stop-color="#F8924F"/>
</linearGradient>
<linearGradient id="paint10_linear" x1="88.4169" y1="118.679" x2="65.0977" y2="126.163" gradientUnits="userSpaceOnUse">
<stop stop-color="#FCB148"/>
<stop offset="0.0520724" stop-color="#FDBA46"/>
<stop offset="0.1424" stop-color="#FFC244"/>
<stop offset="0.3183" stop-color="#FFC444"/>
<stop offset="0.4849" stop-color="#FDB946"/>
<stop offset="0.7754" stop-color="#F99C4D"/>
<stop offset="0.8658" stop-color="#F8924F"/>
<stop offset="1" stop-color="#F8924F"/>
</linearGradient>
<linearGradient id="paint11_linear" x1="107.281" y1="95.4668" x2="86.4629" y2="141.395" gradientUnits="userSpaceOnUse">
<stop stop-color="#FFDB44"/>
<stop offset="1" stop-color="#FEEF06"/>
</linearGradient>
<linearGradient id="paint12_linear" x1="103.451" y1="143.962" x2="99.4345" y2="122.018" gradientUnits="userSpaceOnUse">
<stop stop-color="#FCB148"/>
<stop offset="0.0520724" stop-color="#FDBA46"/>
<stop offset="0.1424" stop-color="#FFC244"/>
<stop offset="0.3183" stop-color="#FFC444"/>
<stop offset="0.4849" stop-color="#FDB946"/>
<stop offset="0.7754" stop-color="#F99C4D"/>
<stop offset="0.8658" stop-color="#F8924F"/>
<stop offset="1" stop-color="#F8924F"/>
</linearGradient>
<linearGradient id="paint13_linear" x1="94.9348" y1="108.443" x2="111.489" y2="143.584" gradientUnits="userSpaceOnUse">
<stop stop-color="#FCB148"/>
<stop offset="0.0520724" stop-color="#FDBA46"/>
<stop offset="0.1424" stop-color="#FFC244"/>
<stop offset="0.3183" stop-color="#FFC444"/>
<stop offset="0.4849" stop-color="#FDB946"/>
<stop offset="0.7754" stop-color="#F99C4D"/>
<stop offset="0.8658" stop-color="#F8924F"/>
<stop offset="1" stop-color="#F8924F"/>
</linearGradient>
<linearGradient id="paint14_linear" x1="94.2753" y1="100.881" x2="102.599" y2="132.078" gradientUnits="userSpaceOnUse">
<stop stop-color="#FFDB44"/>
<stop offset="1" stop-color="#FEEF06"/>
</linearGradient>
<linearGradient id="paint15_linear" x1="90.0647" y1="110.717" x2="106.585" y2="145.788" gradientUnits="userSpaceOnUse">
<stop stop-color="#FCB148"/>
<stop offset="0.0520724" stop-color="#FDBA46"/>
<stop offset="0.1424" stop-color="#FFC244"/>
<stop offset="0.3183" stop-color="#FFC444"/>
<stop offset="0.4849" stop-color="#FDB946"/>
<stop offset="0.7754" stop-color="#F99C4D"/>
<stop offset="0.8658" stop-color="#F8924F"/>
<stop offset="1" stop-color="#F8924F"/>
</linearGradient>
</defs>
</svg>
