<svg xmlns="http://www.w3.org/2000/svg" viewBox="0 0 101.26 128.53"><defs><style>.cls-1{fill:#666;}</style></defs><title>cemento-iconAsset 8</title><g id="Layer_2" data-name="Layer 2"><g id="Layer_1-2" data-name="Layer 1"><path class="cls-1" d="M52.39,80.12a2.69,2.69,0,0,0,2.31-2.45,2.12,2.12,0,0,0-2-2,10.26,10.26,0,0,0-2.24,0l-1.68.09v8.4L50.5,84V80.38s2.16,2.43,2.37,2.65a3,3,0,0,0,.87.64A2.39,2.39,0,0,0,55,83.8l1.06-.06a5.32,5.32,0,0,1-.68-.55c-.31-.29-2.39-2.34-3-3.07m-1.89-.44V76.59l.29,0c1.42-.08,2.12.38,2.12,1.35s-.86,1.68-2.2,1.75H50.5"/><path class="cls-1" d="M55.27,68.28l3.49-22.06a12.86,12.86,0,0,0-9.5,12.18,11,11,0,0,0,6,9.89"/><path class="cls-1" d="M63.14,82.22a3,3,0,0,1-1.24.29,2.78,2.78,0,0,1-3-3.07,3.28,3.28,0,0,1,3.18-3.5,3.91,3.91,0,0,1,2.24.55V74.91a8.53,8.53,0,0,0-2.12-.16c-3,.17-5.15,2.19-5.15,4.86s2,4.2,4.82,4.05a7.94,7.94,0,0,0,2.95-.75v-4L63.14,79Z"/><path class="cls-1" d="M81.47,77.25c-1.12-.42-1.74-.61-1.75-1.33s.54-1.06,1.36-1.11a3.38,3.38,0,0,1,2.21.62v-1.5a6.56,6.56,0,0,0-2.16-.26c-1.86.1-3.1,1.1-3.09,2.56a2,2,0,0,0,.73,1.59,5.33,5.33,0,0,0,1.65.82c1.3.49,1.82.8,1.83,1.49s-.68,1.32-1.6,1.37a5.54,5.54,0,0,1-2.5-.58v1.54a8.6,8.6,0,0,0,2.34.2c2.11-.11,3.41-1.18,3.39-2.86,0-1.31-.73-1.92-2.42-2.56"/><path class="cls-1" d="M71.62,74.16A4.65,4.65,0,0,0,67,78.84a4.14,4.14,0,0,0,4.61,4.33,4.65,4.65,0,0,0,4.57-4.72,4.08,4.08,0,0,0-4.52-4.3m0,7.79c-1.62.09-2.78-1.29-2.78-3.29a3.06,3.06,0,0,1,2.74-3.3c1.55-.09,2.69,1.3,2.69,3.29a3.07,3.07,0,0,1-2.65,3.31"/><path class="cls-1" d="M42.67,75.8l-4.23,8.88,1.63-.09.9-2,3.28-.18.91,2,1.83-.1L42.76,75.8Zm-1.24,5.7,1.18-2.68,1.18,2.55Z"/><path class="cls-1" d="M73.12,56.91a11,11,0,0,0-9.5-11l-2.43-15h0V69.49A12.85,12.85,0,0,0,73.12,56.91"/><path class="cls-1" d="M98.84,0H18.33L2.1,2.18A2.42,2.42,0,0,0,0,4.58V119.1a2.42,2.42,0,0,0,1.46,2.22l16.23,7h0l.13,0,.09,0,.14,0,.09,0,.15,0h.51L99,122a2.42,2.42,0,0,0,2.23-2.41V2.42A2.42,2.42,0,0,0,98.84,0M96.42,111.58c0,.06,0,.11,0,.17,0,4.73-2.82,5.77-4.27,6l-.75.06h-.09L26,123.09c-.94,0-4.9-.46-4.9-6.05,0-.21,0-.4,0-.58V10.4c.15-4.22,2.67-5.3,4.1-5.56H92.31c1.48.28,4.11,1.41,4.11,6,0,.06,0,.12,0,.17Z"/></g></g></svg>