<svg xmlns="http://www.w3.org/2000/svg" viewBox="0 0 968.76 496.63"><defs><style>.cls-1{fill:#002d6a;fill-rule:evenodd;}</style></defs><title>logo-argosAsset 2</title><g id="Layer_2" data-name="Layer 2"><g id="Layer_1-2" data-name="Layer 1"><path class="cls-1" d="M586.67,389.43c-4.16-4.16-32.09-33.45-40.53-43.88,18.89-3.1,31-16.53,31-31.46,0-13.85-10.66-25.2-26.27-28.76-6.78-1.52-14.75-2-30-2H498.32V397.38h22.41V347.74s29,34.54,31.86,37.61a44.91,44.91,0,0,0,11.7,9.33c4.15,2.14,7.28,2.7,17.29,2.7h14.25a77.9,77.9,0,0,1-9.15-8m-63.11-51.18c-.64,0-1.92,0-2.83-.07V296.3c.71-.06,2.76-.13,3.87-.13,19,0,28.49,6.71,28.49,19.93,0,12.48-11.56,22.14-29.54,22.14"/><path class="cls-1" d="M712.39,392.4V338.75h-22.1V381.8c-4.64,2.14-10.05,3.06-16.66,3.06C649,384.86,633,367.38,633,341.11c0-27,17-44.94,42.73-44.94a54.15,54.15,0,0,1,30,9.16V284a114.61,114.61,0,0,0-28.45-3.74c-40.52,0-69.1,25.78-69.1,61.88,0,34.76,26.19,58.33,64.68,58.33a102.82,102.82,0,0,0,39.58-8.05"/><path class="cls-1" d="M923.23,400.44c28.32,0,45.77-13.37,45.52-35.92-.19-17.63-9.83-26.32-32.5-36.13-14.94-6.5-23.33-9.4-23.44-19.15-.09-8.31,7.24-13.9,18.24-13.9,10.14,0,21,2.95,29.72,9.91V285.17a90,90,0,0,0-29-5.1c-25,0-41.63,12.39-41.41,32.05A28.1,28.1,0,0,0,900.2,334c4.4,4,9.56,6.79,22.12,12.22,17.44,7.55,24.35,12.06,24.46,21.36.11,10.34-9.07,17.29-21.44,17.29-10,0-22-3.64-33.52-9.59V396a117.8,117.8,0,0,0,31.42,4.41"/><path class="cls-1" d="M804.08,279.36c-36.78,0-62.55,24.49-62.55,59.71,0,36.23,25.6,61.75,61.87,61.75,35.78,0,61.36-25.17,61.36-60.21,0-35.89-25.08-61.25-60.69-61.25m-.16,105c-21.7,0-37.31-19.46-37.31-46.44,0-24.74,15.43-42.49,36.8-42.49,20.85,0,36.11,19.47,36.11,46.26,0,24.22-15.25,42.67-35.59,42.67"/><path class="cls-1" d="M449.08,397.38h24.56L416.85,279.6h-1.19L358.88,397.38h21.88l12.1-27.23h44ZM399,356.27l15.77-35.56,15.91,35.56Z"/><path class="cls-1" d="M0,344.14A152.42,152.42,0,0,0,76.85,476.52l44.56-281.69A152.53,152.53,0,0,0,0,344.14M183.55,194.83,152.57,0h-.15l.07,496.63c91,0,152.47-76.36,152.47-152.49A152.52,152.52,0,0,0,183.55,194.83"/></g></g></svg>