<svg width="36" height="34" viewBox="0 0 36 34" fill="none" xmlns="http://www.w3.org/2000/svg">
<ellipse cx="18" cy="17" rx="18" ry="17" fill="#00C389"/>
<path d="M26.739 20.9236H28.3837C28.6526 20.9236 28.8907 20.7985 29.0361 20.7049L29.0641 20.6869L29.088 20.6638C29.3043 20.4549 29.3619 20.1872 29.3619 19.9672V18.7308V16.9175V15.1042V15.021L29.3233 14.9473L27.404 11.2808C27.4039 11.2806 27.4038 11.2804 27.4037 11.2802C27.2664 11.0153 27.066 10.8056 26.7814 10.6681C26.5054 10.5348 26.1719 10.4799 25.781 10.4799H23.1783C22.9669 10.4799 22.7626 10.5293 22.6017 10.5682L22.587 10.5718C22.4459 10.6059 22.3328 10.6715 22.249 10.7276C22.2106 10.7533 22.174 10.78 22.1442 10.8017L22.137 10.807C22.1037 10.8313 22.0792 10.8489 22.0566 10.8635L22.2392 11.1471L22.0566 10.8635C21.9371 10.9404 21.853 11.0451 21.7928 11.1356C21.7344 11.2233 21.6845 11.3198 21.6443 11.3975L21.6407 11.4045C21.5173 11.6427 21.5174 11.8363 21.5175 12.0021L21.5175 12.0133V17.1563H21.4717H16.1383H15.925H11.4023H8.79967C8.7958 17.1563 8.79173 17.1563 8.78744 17.1563C8.70662 17.156 8.55308 17.1556 8.39659 17.2312L8.39282 17.233C8.3528 17.2523 8.30307 17.2763 8.25758 17.3014C8.2149 17.325 8.15025 17.3631 8.09538 17.4161C8.09455 17.4169 8.09367 17.4177 8.09273 17.4186C8.07126 17.4393 8.02213 17.4867 7.97841 17.5458C7.94311 17.5936 7.88232 17.6866 7.86748 17.8099C7.84907 17.8832 7.8367 17.9423 7.8296 17.9971C7.82145 18.0602 7.82146 18.1096 7.82147 18.1496L7.82147 18.1539V19.9672C7.82147 20.2372 7.95547 20.4728 8.052 20.6126L8.07114 20.6404L8.09538 20.6638C8.30951 20.8706 8.57975 20.9236 8.79967 20.9236H10.4444C10.5199 21.5473 10.8066 22.1272 11.3061 22.5695C11.8787 23.0765 12.5981 23.3551 13.365 23.3551C14.1209 23.3551 14.8891 23.0834 15.4293 22.5646C15.9255 22.1229 16.2104 21.5451 16.2856 20.9236H20.8977C20.9732 21.5473 21.2599 22.1272 21.7595 22.5695C22.3321 23.0765 23.0514 23.3551 23.8183 23.3551C24.5742 23.3551 25.3424 23.0834 25.8827 22.5647C26.3789 22.1229 26.6638 21.5451 26.739 20.9236ZM23.0188 20.1746L23.0296 20.1607L23.039 20.1457C23.1217 20.0124 23.2675 19.8954 23.4527 19.8358C23.6792 19.7629 23.8783 19.7356 24.0633 19.7653C24.2346 19.7929 24.3911 19.8749 24.5775 20.0169C24.7003 20.1396 24.7806 20.2795 24.8077 20.4368C24.8377 20.6107 24.8084 20.793 24.7432 20.9505C24.685 21.0912 24.5629 21.2384 24.4168 21.3231C24.2451 21.4226 24.047 21.4836 23.861 21.4836C23.7376 21.4836 23.6067 21.4536 23.4284 21.4106C23.3988 21.4034 23.3625 21.3867 23.3077 21.35C23.2812 21.3323 23.2552 21.3134 23.223 21.2899L23.2183 21.2864C23.1945 21.2691 23.1665 21.2487 23.1367 21.2284C23.0518 21.1425 22.9912 21.0543 22.924 20.9245C22.8794 20.8384 22.8765 20.788 22.8765 20.6266C22.8765 20.4487 22.9403 20.2757 23.0188 20.1746ZM24.1992 14.8072V14.766H23.861C23.7893 14.766 23.6873 14.727 23.5779 14.657C23.5768 14.6559 23.5746 14.6535 23.5715 14.6495C23.5639 14.6397 23.5544 14.6246 23.5451 14.604C23.5253 14.5603 23.5165 14.515 23.5165 14.486V12.6727C23.5165 12.6114 23.5526 12.5591 23.5748 12.5449L23.6027 12.5269L23.6266 12.5038C23.6685 12.4633 23.7396 12.4339 23.861 12.4339H25.8237C25.8602 12.4339 25.8897 12.4414 25.9449 12.5095C25.976 12.5479 26.0082 12.598 26.0469 12.6649C26.0586 12.685 26.0746 12.7135 26.092 12.7447C26.1175 12.7901 26.1462 12.8412 26.1694 12.8806L27.2174 14.8072H24.1992ZM14.2899 20.9505C14.2316 21.0912 14.1096 21.2384 13.9634 21.3231C13.7918 21.4226 13.5937 21.4836 13.4077 21.4836C13.1464 21.4836 12.8916 21.3889 12.704 21.2076C12.5081 21.0184 12.4232 20.8156 12.4232 20.5854C12.4232 20.4134 12.4838 20.2271 12.5856 20.0632C12.6684 19.93 12.8141 19.813 12.9993 19.7534C13.2258 19.6804 13.425 19.6531 13.6099 19.6829C13.7813 19.7105 13.9378 19.7925 14.1242 19.9345C14.2452 20.0554 14.325 20.1931 14.3532 20.3478C14.3872 20.6187 14.3506 20.804 14.2899 20.9505Z" fill="#071D49" stroke="white" stroke-width="0.676389"/>
</svg>
